<svg width="533" height="603" viewBox="0 0 533 603" fill="none" xmlns="http://www.w3.org/2000/svg">
<g opacity="0.25">
<g filter="url(#filter0_f_516_50353)">
<path fill-rule="evenodd" clip-rule="evenodd" d="M216.132 279.32C278.606 279.32 320.83 323.963 320.83 371.654C320.83 422.065 282.168 473.02 216.132 473.02C143.708 473.02 86.6678 426.941 86.6678 371.654C86.6678 318.835 146.941 279.32 216.132 279.32Z" fill="url(#paint0_linear_516_50353)"/>
</g>
<g filter="url(#filter1_f_516_50353)">
<path fill-rule="evenodd" clip-rule="evenodd" d="M265.888 173C322.045 173 360 213.576 360 256.922C360 302.739 325.247 349.052 265.888 349.052C200.786 349.052 149.513 307.171 149.513 256.922C149.513 208.915 203.692 173 265.888 173Z" fill="#FFE198"/>
</g>
<g filter="url(#filter2_f_516_50353)">
<path fill-rule="evenodd" clip-rule="evenodd" d="M-7.29332 185.052C100.657 185.052 173.618 228.505 173.618 274.924C173.618 323.991 106.813 373.587 -7.29332 373.587C-132.438 373.587 -231 328.737 -231 274.924C-231 223.514 -126.851 185.052 -7.29332 185.052Z" fill="url(#paint1_linear_516_50353)"/>
</g>
</g>
<defs>
<filter id="filter0_f_516_50353" x="-42.4654" y="150.187" width="492.428" height="451.966" filterUnits="userSpaceOnUse" color-interpolation-filters="sRGB">
<feFlood flood-opacity="0" result="BackgroundImageFix"/>
<feBlend mode="normal" in="SourceGraphic" in2="BackgroundImageFix" result="shape"/>
<feGaussianBlur stdDeviation="64.5666" result="effect1_foregroundBlur_516_50353"/>
</filter>
<filter id="filter1_f_516_50353" x="-22.6649" y="0.822296" width="554.843" height="520.407" filterUnits="userSpaceOnUse" color-interpolation-filters="sRGB">
<feFlood flood-opacity="0" result="BackgroundImageFix"/>
<feBlend mode="normal" in="SourceGraphic" in2="BackgroundImageFix" result="shape"/>
<feGaussianBlur stdDeviation="86.0889" result="effect1_foregroundBlur_516_50353"/>
</filter>
<filter id="filter2_f_516_50353" x="-360.133" y="55.919" width="662.884" height="446.801" filterUnits="userSpaceOnUse" color-interpolation-filters="sRGB">
<feFlood flood-opacity="0" result="BackgroundImageFix"/>
<feBlend mode="normal" in="SourceGraphic" in2="BackgroundImageFix" result="shape"/>
<feGaussianBlur stdDeviation="64.5666" result="effect1_foregroundBlur_516_50353"/>
</filter>
<linearGradient id="paint0_linear_516_50353" x1="203.749" y1="279.32" x2="203.749" y2="473.02" gradientUnits="userSpaceOnUse">
<stop stop-color="#BCBFF7" stop-opacity="0.5"/>
<stop offset="1" stop-color="#4954E6" stop-opacity="0.8"/>
</linearGradient>
<linearGradient id="paint1_linear_516_50353" x1="-28.6912" y1="185.052" x2="-28.6912" y2="373.587" gradientUnits="userSpaceOnUse">
<stop stop-color="#BCBFF7" stop-opacity="0.5"/>
<stop offset="1" stop-color="#4954E6" stop-opacity="0.8"/>
</linearGradient>
</defs>
</svg>
