<svg width="346" height="346" viewBox="0 0 346 346" fill="none" xmlns="http://www.w3.org/2000/svg">
<path fillRule="evenodd" clip-rule="evenodd" d="M7.30729 227.405L118.714 7.30695L338.812 118.714L227.405 338.812L7.30729 227.405ZM113.897 3.1363C115.053 0.851706 117.843 -0.0628927 120.127 1.0935L342.983 113.896C345.268 115.053 346.182 117.842 345.026 120.127L232.223 342.983C231.066 345.267 228.277 346.182 225.992 345.025L3.13664 232.222C0.852042 231.066 -0.0625557 228.277 1.09384 225.992L113.897 3.1363ZM133.602 52.7132L52.7139 212.517L212.517 293.404L293.405 133.601L133.602 52.7132ZM135.015 46.4998C132.73 45.3434 129.941 46.2579 128.784 48.5425L46.5005 211.104C45.3441 213.388 46.2587 216.178 48.5433 217.334L211.104 299.618C213.389 300.774 216.178 299.86 217.335 297.575L299.619 135.014C300.775 132.729 299.86 129.94 297.576 128.783L135.015 46.4998ZM94.8776 198.693L147.426 94.8773L251.242 147.426L198.693 251.241L94.8776 198.693ZM142.608 90.7066C143.765 88.422 146.554 87.5074 148.839 88.6638L255.412 142.608C257.697 143.765 258.612 146.554 257.455 148.839L203.511 255.412C202.354 257.697 199.565 258.611 197.28 257.455L90.7069 203.51C88.4223 202.354 87.5077 199.565 88.6641 197.28L142.608 90.7066ZM135.96 185.223L160.896 135.959L210.159 160.895L185.223 210.159L135.96 185.223ZM156.078 131.789C157.235 129.504 160.024 128.589 162.309 129.746L214.33 156.077C216.614 157.234 217.529 160.023 216.373 162.308L190.041 214.329C188.885 216.614 186.095 217.528 183.811 216.372L131.789 190.04C129.505 188.884 128.59 186.094 129.746 183.81L156.078 131.789Z" fill="#9FA7C0" fillOpacity="0.1"/>
</svg>
