<svg width="529" height="407" viewBox="0 0 529 407" fill="none" xmlns="http://www.w3.org/2000/svg">
<path d="M264.5 140.447C410.579 140.447 529 101.653 529 59.5V223.053C529 265.206 410.579 304 264.5 304C118.421 304 0 265.206 0 223.053V59.5C0 101.653 118.421 140.447 264.5 140.447Z" fill="url(#paint0_linear_345_50026)" fill-opacity="0.48"/>
<path d="M473 51.75C473 58.3174 467.586 64.8666 457.032 71.0299C446.549 77.1522 431.313 82.6998 412.399 87.372C374.586 96.7124 322.295 102.5 264.5 102.5C206.705 102.5 154.414 96.7124 116.601 87.372C97.6867 82.6998 82.4509 77.1522 71.9679 71.0299C61.4144 64.8666 56 58.3174 56 51.75C56 45.1826 61.4144 38.6334 71.9679 32.4701C82.4509 26.3478 97.6867 20.8002 116.601 16.128C154.414 6.78761 206.705 1 264.5 1C322.295 1 374.586 6.78761 412.399 16.128C431.313 20.8002 446.549 26.3478 457.032 32.4701C467.586 38.6334 473 45.1826 473 51.75Z" stroke="url(#paint1_linear_345_50026)" stroke-width="2"/>
<path d="M403 372.25C403 376.474 399.538 380.787 392.53 384.915C385.589 389.002 375.48 392.718 362.9 395.852C337.755 402.115 302.965 406 264.5 406C226.035 406 191.245 402.115 166.1 395.852C153.52 392.718 143.411 389.002 136.47 384.915C129.462 380.787 126 376.474 126 372.25C126 368.026 129.462 363.713 136.47 359.585C143.411 355.498 153.52 351.782 166.1 348.648C191.245 342.385 226.035 338.5 264.5 338.5C302.965 338.5 337.755 342.385 362.9 348.648C375.48 351.782 385.589 355.498 392.53 359.585C399.538 363.713 403 368.026 403 372.25Z" stroke="url(#paint2_linear_345_50026)" stroke-width="2"/>
<defs>
<linearGradient id="paint0_linear_345_50026" x1="0" y1="138.341" x2="529" y2="138.341" gradientUnits="userSpaceOnUse">
<stop stop-color="#0047FF" stop-opacity="0"/>
<stop offset="0.5" stop-color="#0047FF"/>
<stop offset="1" stop-color="#0047FF" stop-opacity="0"/>
</linearGradient>
<linearGradient id="paint1_linear_345_50026" x1="264.5" y1="103.5" x2="264.5" y2="7.45713e-07" gradientUnits="userSpaceOnUse">
<stop stop-color="#2B2F36"/>
<stop offset="0.265625" stop-color="#71757C" stop-opacity="0.3"/>
<stop offset="0.532867" stop-color="#B7BCC3" stop-opacity="0.2"/>
<stop offset="1" stop-color="#B7BCC3" stop-opacity="0"/>
</linearGradient>
<linearGradient id="paint2_linear_345_50026" x1="264.5" y1="407" x2="264.5" y2="337.5" gradientUnits="userSpaceOnUse">
<stop stop-color="#2B2F36"/>
<stop offset="0.265625" stop-color="#71757C" stop-opacity="0.3"/>
<stop offset="0.532867" stop-color="#B7BCC3" stop-opacity="0.2"/>
<stop offset="1" stop-color="#B7BCC3" stop-opacity="0"/>
</linearGradient>
</defs>
</svg>
