<svg width="1082" height="652" viewBox="0 0 1082 652" fill="none" xmlns="http://www.w3.org/2000/svg">
<path fill-rule="evenodd" clip-rule="evenodd" d="M736.768 209.283C736.06 209.708 735.141 209.477 734.716 208.768C734.292 208.06 734.523 207.141 735.231 206.717L1079.23 0.716638C1079.94 0.292215 1080.86 0.522699 1081.28 1.23147C1081.71 1.94023 1081.48 2.85887 1080.77 3.28329L736.768 209.283ZM404.176 200.249C404.866 200.704 405.794 200.513 406.249 199.824C406.704 199.134 406.513 198.206 405.824 197.751L356.307 165.081L211.824 69.7514C211.134 69.2965 210.206 69.4867 209.751 70.1762C209.296 70.8658 209.487 71.7936 210.176 72.2486L354.659 167.578L404.176 200.249ZM751.725 421.691C751.002 421.291 750.092 421.553 749.692 422.276C749.292 422.999 749.554 423.909 750.276 424.309L994.276 559.309C994.999 559.709 995.909 559.447 996.309 558.724C996.709 558.001 996.448 557.091 995.725 556.691L751.725 421.691ZM388.296 427.253C387.883 426.537 386.968 426.291 386.253 426.704L1.25278 648.704C0.537109 649.117 0.291473 650.032 0.704163 650.747C1.11682 651.463 2.03152 651.708 2.74719 651.296L387.747 429.296C388.463 428.883 388.708 427.968 388.296 427.253Z" fill="url(#paint0_radial_197_36154)"/>
<defs>
<radialGradient id="paint0_radial_197_36154" cx="0" cy="0" r="1" gradientUnits="userSpaceOnUse" gradientTransform="translate(579 321.5) rotate(30.1916) scale(381.791 667.905)">
<stop stop-color="#716B83"/>
<stop offset="0.564137" stop-color="#716B83" stop-opacity="0.8"/>
<stop offset="1" stop-color="#716B83" stop-opacity="0"/>
</radialGradient>
</defs>
</svg>
