<svg width="557" height="557" viewBox="0 0 557 557" fill="none" xmlns="http://www.w3.org/2000/svg">
<path opacity="0.2" fillRule="evenodd" clip-rule="evenodd" d="M450.844 494.519C514.171 443.902 554.739 366.002 554.739 278.627C554.739 126.069 431.066 2.39679 278.508 2.39679C160.065 2.39679 59.0336 76.9423 19.7709 181.675C21.9261 182.863 23.6132 184.893 24.3004 187.457C25.6398 192.456 22.6734 197.594 17.6747 198.933C16.3973 199.276 15.1108 199.337 13.8809 199.155C6.33301 224.323 2.27765 251.002 2.27765 278.627C2.27765 431.185 125.95 554.858 278.508 554.858C340.028 554.858 396.85 534.747 442.76 500.741C442.694 500.569 442.637 500.392 442.588 500.21C441.827 497.372 443.512 494.454 446.351 493.693C447.959 493.262 449.592 493.616 450.844 494.519ZM452.218 495.974C515.928 444.989 556.733 366.573 556.733 278.627C556.733 124.968 432.168 0.402344 278.508 0.402344C159.238 0.402344 57.4957 75.4516 17.93 180.903C16.322 180.421 14.5648 180.365 12.8243 180.832C7.82567 182.171 4.85923 187.309 6.19862 192.308C7.01093 195.339 9.22042 197.623 11.9487 198.653C4.36012 223.982 0.283203 250.829 0.283203 278.627C0.283203 432.287 124.849 556.852 278.508 556.852C340.414 556.852 397.597 536.634 443.815 502.441C445.114 503.847 447.129 504.503 449.105 503.973C451.944 503.213 453.629 500.295 452.868 497.456C452.724 496.918 452.502 496.421 452.218 495.974Z" fill="#E9E8F7"/>
</svg>
