<svg width="457" height="457" viewBox="0 0 457 457" fill="none" xmlns="http://www.w3.org/2000/svg">
<path fill-rule="evenodd" clip-rule="evenodd" d="M456.32 231.623L455.82 231.616C455.832 230.621 455.839 229.625 455.839 228.628C455.839 227.63 455.832 226.634 455.82 225.639L456.32 225.632L456.82 225.626C456.832 226.625 456.839 227.626 456.839 228.628C456.839 229.63 456.832 230.63 456.82 231.629L456.32 231.623ZM455.666 219.689L456.166 219.67L456.666 219.651C456.589 217.654 456.486 215.664 456.357 213.681L455.859 213.713L455.36 213.745C455.487 215.72 455.59 217.701 455.666 219.689ZM454.899 207.813L455.397 207.768L455.895 207.723C455.714 205.733 455.508 203.75 455.276 201.775L454.78 201.833L454.283 201.891C454.514 203.858 454.719 205.832 454.899 207.813ZM453.514 195.993L454.009 195.922L454.504 195.85C454.219 193.873 453.91 191.903 453.575 189.942L453.082 190.026L452.589 190.11C452.923 192.062 453.231 194.023 453.514 195.993ZM451.512 184.261L452.002 184.164L452.493 184.067C452.105 182.107 451.692 180.156 451.255 178.214L450.767 178.324L450.279 178.434C450.715 180.367 451.126 182.31 451.512 184.261ZM448.896 172.651L449.38 172.529L449.865 172.406C449.375 170.469 448.859 168.542 448.32 166.625L447.838 166.76L447.357 166.896C447.894 168.804 448.407 170.723 448.896 172.651ZM445.671 161.195L446.149 161.047L446.626 160.899C446.034 158.991 445.418 157.093 444.778 155.206L444.304 155.367L443.831 155.528C444.468 157.406 445.082 159.295 445.671 161.195ZM441.846 149.923L442.315 149.75L442.784 149.577C442.092 147.703 441.377 145.841 440.638 143.991L440.174 144.177L439.71 144.362C440.445 146.204 441.157 148.058 441.846 149.923ZM437.431 138.867L437.89 138.67L438.35 138.472C437.561 136.639 436.749 134.818 435.914 133.01L435.46 133.219L435.006 133.429C435.837 135.229 436.646 137.042 437.431 138.867ZM432.441 128.06L432.889 127.838L433.337 127.617C432.454 125.829 431.547 124.053 430.619 122.292L430.176 122.525L429.734 122.758C430.659 124.512 431.561 126.279 432.441 128.06ZM426.889 117.53L427.325 117.286L427.762 117.041C426.786 115.302 425.788 113.577 424.768 111.867L424.339 112.123L423.909 112.379C424.924 114.082 425.918 115.799 426.889 117.53ZM420.794 107.306L421.217 107.039L421.639 106.772C420.574 105.087 419.487 103.417 418.38 101.763L417.964 102.041L417.549 102.319C418.651 103.966 419.733 105.629 420.794 107.306ZM414.172 97.4157L414.58 97.1268L414.988 96.8379C413.837 95.2113 412.664 93.6006 411.472 92.0059L411.071 92.3054L410.671 92.6048C411.858 94.1925 413.026 95.7963 414.172 97.4157ZM407.043 87.8841L407.436 87.5743L407.828 87.2645C406.593 85.7002 405.339 84.1525 404.064 82.6217L403.68 82.9416L403.296 83.2615C404.564 84.7857 405.814 86.3266 407.043 87.8841ZM399.428 78.7369L399.803 78.4071L400.179 78.0773C398.865 76.5795 397.531 75.099 396.178 73.6363L395.811 73.9758L395.444 74.3153C396.791 75.7717 398.119 77.2457 399.428 78.7369ZM391.346 69.9985L391.704 69.6495L392.062 69.3006C390.672 67.8734 389.262 66.4643 387.835 65.0737L387.486 65.4318L387.137 65.7899C388.558 67.1744 389.961 68.5774 391.346 69.9985ZM382.82 61.6921L383.16 61.325L383.499 60.9579C382.037 59.6052 380.556 58.2713 379.059 56.9567L378.729 57.3325L378.399 57.7083C379.89 59.0172 381.364 60.3452 382.82 61.6921ZM373.874 53.8403L374.194 53.4561L374.514 53.0718C372.983 51.7973 371.436 50.5424 369.871 49.3076L369.562 49.7L369.252 50.0925C370.809 51.3219 372.35 52.5714 373.874 53.8403ZM364.531 46.4648L364.83 46.0644L365.13 45.664C363.803 44.6713 362.464 43.6926 361.115 42.7283C362.574 40.5242 363.117 37.7286 362.379 34.9744C361.013 29.8754 355.772 26.8494 350.673 28.2157C348.284 28.8557 346.351 30.3459 345.11 32.2734C343.452 31.2865 341.78 30.3201 340.095 29.3743L339.85 29.8103L339.606 30.2464C341.288 31.1907 342.958 32.1559 344.614 33.1415C343.591 35.1657 343.281 37.5592 343.914 39.9222C345.28 45.0212 350.522 48.0472 355.621 46.681C357.618 46.1457 359.298 45.0156 360.52 43.5323C361.868 44.4955 363.205 45.4731 364.531 46.4648ZM334.377 27.4018L334.611 26.9595L334.844 26.5172C333.082 25.5885 331.307 24.6822 329.519 23.7986L329.297 24.2469L329.076 24.6951C330.856 25.5749 332.624 26.4772 334.377 27.4018ZM323.707 22.1297L323.917 21.6757L324.126 21.2218C322.318 20.3868 320.497 19.5748 318.664 18.7861L318.466 19.2454L318.269 19.7047C320.094 20.4899 321.907 21.2984 323.707 22.1297ZM312.774 17.4261L312.959 16.9617L313.145 16.4974C311.295 15.7586 309.433 15.0433 307.559 14.3519L307.386 14.821L307.213 15.2901C309.078 15.9784 310.932 16.6906 312.774 17.4261ZM301.608 13.3051L301.769 12.8316L301.929 12.3581C300.043 11.7178 298.145 11.1015 296.237 10.5096L296.089 10.9872L295.94 11.4647C297.84 12.054 299.73 12.6676 301.608 13.3051ZM290.24 9.77871L290.376 9.29742L290.511 8.81613C288.594 8.27647 286.667 7.76122 284.73 7.27073L284.607 7.75543L284.484 8.24013C286.413 8.72846 288.332 9.24144 290.24 9.77871ZM278.702 6.85676L278.812 6.369L278.922 5.88123C276.98 5.44359 275.029 5.0307 273.069 4.6429L272.971 5.13339L272.874 5.62389C274.826 6.00998 276.769 6.42105 278.702 6.85676ZM267.026 4.54652L267.11 4.05365L267.194 3.56078C265.233 3.22607 263.263 2.91637 261.285 2.63202L261.214 3.12693L261.143 3.62185C263.112 3.90494 265.073 4.21328 267.026 4.54652ZM255.244 2.8525L255.303 2.3559L255.361 1.85929C253.386 1.62791 251.403 1.42174 249.413 1.24111L249.368 1.73906L249.323 2.23701C251.304 2.41686 253.278 2.62213 255.244 2.8525ZM243.39 1.77623L243.423 1.27727L243.455 0.778309C241.472 0.650146 239.482 0.547306 237.485 0.470108L237.466 0.969735L237.446 1.46936C239.434 1.54623 241.416 1.64862 243.39 1.77623ZM231.497 1.31612L231.503 0.816159L231.51 0.3162C230.511 0.30333 229.51 0.296875 228.508 0.296875C227.506 0.296875 226.506 0.30333 225.507 0.316202L225.513 0.816161L225.52 1.31612C226.514 1.3033 227.51 1.29688 228.508 1.29688C229.506 1.29688 230.502 1.3033 231.497 1.31612ZM219.57 1.46937L219.551 0.96974L219.531 0.470113C217.535 0.547311 215.545 0.650152 213.561 0.778315L213.594 1.27727L213.626 1.77623C215.601 1.64863 217.582 1.54623 219.57 1.46937ZM207.694 2.23702L207.648 1.73907L207.603 1.24111C205.613 1.42175 203.631 1.62792 201.656 1.8593L201.714 2.35591L201.772 2.85251C203.738 2.62214 205.712 2.41687 207.694 2.23702ZM195.873 3.62186L195.802 3.12694L195.731 2.63203C193.753 2.91638 191.783 3.22608 189.822 3.56079L189.906 4.05366L189.99 4.54653C191.943 4.21329 193.904 3.90496 195.873 3.62186ZM184.142 5.6239L184.045 5.1334L183.948 4.64291C181.988 5.03071 180.036 5.4436 178.094 5.88124L178.204 6.369L178.314 6.85677C180.248 6.42106 182.19 6.00999 184.142 5.6239ZM172.532 8.24014L172.409 7.75544L172.287 7.27073C170.349 7.76122 168.422 8.27647 166.505 8.81613L166.641 9.29742L166.776 9.77871C168.685 9.24144 170.603 8.72847 172.532 8.24014ZM161.076 11.4647L160.928 10.9872L160.78 10.5096C158.871 11.1015 156.974 11.7178 155.087 12.3581L155.248 12.8316L155.408 13.3051C157.287 12.6676 159.176 12.054 161.076 11.4647ZM149.803 15.2901L149.63 14.821L149.457 14.3519C147.584 15.0433 145.722 15.7586 143.872 16.4974L144.057 16.9617L144.243 17.4261C146.084 16.6906 147.938 15.9784 149.803 15.2901ZM138.748 19.7047L138.55 19.2454L138.353 18.7861C136.519 19.5748 134.698 20.3868 132.89 21.2218L133.1 21.6757L133.309 22.1297C135.11 21.2984 136.923 20.4899 138.748 19.7047ZM127.941 24.6951L127.719 24.2469L127.498 23.7986C125.709 24.6822 123.934 25.5885 122.173 26.5172L122.406 26.9595L122.639 27.4018C124.393 26.4772 126.16 25.5748 127.941 24.6951ZM117.411 30.2464L117.166 29.8103L116.922 29.3743C115.183 30.3502 113.458 31.3481 111.748 32.3678L112.004 32.7973L112.26 33.2267C113.963 32.2115 115.68 31.2179 117.411 30.2464ZM107.187 36.3418L106.92 35.9192L106.653 35.4966C104.968 36.5619 103.298 37.6485 101.643 38.7563L101.922 39.1718L102.2 39.5872C103.847 38.4843 105.51 37.4024 107.187 36.3418ZM97.2963 42.9636L97.0074 42.5555L96.7185 42.1474C95.0919 43.299 93.4812 44.4713 91.8865 45.664L92.186 46.0644L92.4854 46.4648C94.0731 45.2773 95.6769 44.1101 97.2963 42.9636ZM87.7647 50.0925L87.4549 49.7L87.1451 49.3076C85.5808 50.5424 84.0331 51.7973 82.5023 53.0718L82.8222 53.4561L83.1422 53.8403C84.6663 52.5713 86.2073 51.3219 87.7647 50.0925ZM78.6175 57.7083L78.2877 57.3325L77.9579 56.9567C76.4601 58.2713 74.9797 59.6051 73.517 60.9579L73.8564 61.325L74.1959 61.6921C75.6523 60.3452 77.1263 59.0171 78.6175 57.7083ZM69.8791 65.7899L69.5301 65.4318L69.1812 65.0737C67.754 66.4643 66.3449 67.8734 64.9543 69.3006L65.3124 69.6495L65.6705 69.9985C67.0551 68.5774 68.458 67.1745 69.8791 65.7899ZM61.5727 74.3153L61.2056 73.9758L60.8385 73.6363C59.4858 75.099 58.1519 76.5795 56.8373 78.0773L57.2131 78.4071L57.5889 78.7369C58.8978 77.2456 60.2258 75.7716 61.5727 74.3153ZM53.7209 83.2615L53.3367 82.9416L52.9524 82.6217C51.6779 84.1525 50.423 85.7002 49.1882 87.2645L49.5806 87.5743L49.9731 87.8841C51.2026 86.3266 52.452 84.7856 53.7209 83.2615ZM46.3454 92.6048L45.945 92.3053L45.5446 92.0059C44.352 93.6005 43.1796 95.2113 42.0281 96.8378L42.4361 97.1268L42.8442 97.4157C43.9908 95.7963 45.158 94.1925 46.3454 92.6048ZM39.4679 102.319L39.0524 102.041L38.6369 101.763C37.5292 103.417 36.4425 105.087 35.3772 106.772L35.7998 107.039L36.2225 107.306C37.283 105.629 38.365 103.966 39.4679 102.319ZM33.1074 112.379L32.6779 112.123L32.2484 111.867C31.2288 113.577 30.2308 115.302 29.2549 117.041L29.691 117.286L30.127 117.53C31.0986 115.799 32.0921 114.082 33.1074 112.379ZM27.2824 122.758L26.8401 122.525L26.3978 122.292C25.4691 124.053 24.5628 125.829 23.6792 127.617L24.1275 127.838L24.5758 128.06C25.4555 126.279 26.3578 124.512 27.2824 122.758ZM22.0103 133.429L21.5564 133.219L21.1024 133.01C20.2675 134.818 19.4554 136.639 18.6667 138.472L19.126 138.67L19.5853 138.867C20.3706 137.042 21.179 135.229 22.0103 133.429ZM17.3067 144.362L16.8424 144.177L16.378 143.991C15.6392 145.841 14.924 147.703 14.2326 149.577L14.7016 149.75L15.1707 149.923C15.8591 148.058 16.5712 146.204 17.3067 144.362ZM13.1857 155.528L12.7122 155.367L12.2387 155.206C11.5985 157.093 10.9822 158.991 10.3902 160.899L10.8678 161.047L11.3453 161.195C11.9347 159.295 12.5482 157.406 13.1857 155.528ZM9.65933 166.896L9.17804 166.76L8.69674 166.625C8.15709 168.542 7.64184 170.469 7.15134 172.406L7.63605 172.529L8.12075 172.651C8.60908 170.723 9.12206 168.804 9.65933 166.896ZM6.73738 178.434L6.24961 178.324L5.76185 178.214C5.32421 180.156 4.91132 182.107 4.52352 184.067L5.01401 184.164L5.5045 184.261C5.8906 182.31 6.30167 180.367 6.73738 178.434ZM4.42714 190.11L3.93427 190.026L3.44139 189.942C3.10668 191.903 2.79698 193.873 2.51264 195.85L3.00755 195.922L3.50246 195.993C3.78556 194.024 4.0939 192.062 4.42714 190.11ZM2.73311 201.891L2.23651 201.833L1.73991 201.775C1.50853 203.75 1.30236 205.733 1.12172 207.723L1.61967 207.768L2.11763 207.813C2.29748 205.832 2.50275 203.858 2.73311 201.891ZM1.65684 213.745L1.15788 213.713L0.658924 213.681C0.530761 215.664 0.427921 217.654 0.350724 219.651L0.85035 219.67L1.34998 219.69C1.42684 217.702 1.52924 215.72 1.65684 213.745ZM1.19673 225.639C1.18392 226.634 1.17749 227.63 1.17749 228.628C1.17749 229.625 1.18392 230.622 1.19673 231.616L0.696776 231.623L0.196817 231.629C0.183946 230.63 0.17749 229.63 0.17749 228.628C0.17749 227.626 0.183945 226.625 0.196815 225.626L0.696774 225.633L1.19673 225.639ZM1.34998 237.566L0.850355 237.585L0.350728 237.604C0.427927 239.601 0.530767 241.591 0.65893 243.574L1.15789 243.542L1.65685 243.51C1.52924 241.535 1.42685 239.554 1.34998 237.566ZM2.11764 249.442L1.61968 249.487L1.12173 249.533C1.30237 251.523 1.50854 253.505 1.73992 255.48L2.23652 255.422L2.73312 255.364C2.50276 253.398 2.29748 251.424 2.11764 249.442ZM3.50247 261.262L3.00756 261.334L2.51265 261.405C2.79699 263.383 3.10669 265.352 3.4414 267.314L3.93428 267.229L4.42715 267.145C4.09391 265.193 3.78557 263.232 3.50247 261.262ZM5.50451 272.994L5.01402 273.091L4.52353 273.188C4.91133 275.148 5.32422 277.099 5.76185 279.041L6.24962 278.931L6.73739 278.822C6.30168 276.888 5.89061 274.946 5.50451 272.994ZM8.12075 284.604L7.63605 284.727L7.15135 284.849C7.64184 286.786 8.15709 288.714 8.69674 290.631L9.17803 290.495L9.65932 290.36C9.12206 288.451 8.60908 286.532 8.12075 284.604ZM11.3453 296.06L10.8678 296.208L10.3902 296.356C10.9822 298.264 11.5985 300.162 12.2387 302.049L12.7122 301.888L13.1857 301.727C12.5482 299.849 11.9347 297.96 11.3453 296.06ZM15.1707 307.332L14.7016 307.506L14.2325 307.679C14.924 309.552 15.6392 311.414 16.378 313.264L16.8423 313.079L17.3067 312.893C16.5712 311.051 15.8591 309.198 15.1707 307.332ZM19.5853 318.388L19.126 318.586L18.6667 318.783C19.4554 320.616 20.2674 322.437 21.1024 324.246L21.5563 324.036L22.0103 323.826C21.179 322.026 20.3705 320.213 19.5853 318.388ZM24.5757 329.195L24.1275 329.417L23.6792 329.638C24.5628 331.427 25.4691 333.202 26.3978 334.963L26.8401 334.73L27.2824 334.497C26.3578 332.743 25.4555 330.976 24.5757 329.195ZM30.127 339.725L29.6909 339.97L29.2549 340.214C30.2308 341.953 31.2287 343.678 32.2484 345.388L32.6779 345.132L33.1073 344.876C32.0921 343.173 31.0986 341.456 30.127 339.725ZM36.2224 349.949L35.7998 350.216L35.3772 350.483C36.4425 352.168 37.5292 353.838 38.6369 355.492L39.0524 355.214L39.4678 354.936C38.365 353.289 37.283 351.626 36.2224 349.949ZM42.8442 359.84L42.4361 360.128L42.028 360.417C43.1796 362.044 44.3519 363.655 45.5446 365.249L45.945 364.95L46.3454 364.65C45.1579 363.063 43.9907 361.459 42.8442 359.84ZM49.9731 369.371L49.5806 369.681L49.1882 369.991C50.423 371.555 51.6779 373.103 52.9524 374.633L53.3367 374.314L53.7209 373.994C52.452 372.47 51.2025 370.929 49.9731 369.371ZM57.5889 378.518L57.2131 378.848L56.8373 379.178C58.1519 380.676 59.4858 382.156 60.8385 383.619L61.2056 383.279L61.5727 382.94C60.2258 381.484 58.8978 380.01 57.5889 378.518ZM65.6705 387.257L65.3124 387.606L64.9543 387.955C66.3449 389.382 67.754 390.791 69.1812 392.182L69.5301 391.823L69.8791 391.465C68.458 390.081 67.0551 388.678 65.6705 387.257ZM74.1959 395.563L73.8564 395.93L73.5169 396.297C74.9796 397.65 76.4601 398.984 77.9579 400.298L78.2877 399.923L78.6175 399.547C77.1263 398.238 75.6523 396.91 74.1959 395.563ZM83.1421 403.415L82.8222 403.799L82.5023 404.183C84.0331 405.458 85.5808 406.713 87.1451 407.948L87.4549 407.555L87.7647 407.163C86.2072 405.933 84.6663 404.684 83.1421 403.415ZM92.4854 410.79L92.186 411.191L91.8865 411.591C93.4812 412.784 95.0919 413.956 96.7184 415.108L97.0074 414.7L97.2963 414.292C95.6769 413.145 94.0731 411.978 92.4854 410.79ZM102.2 417.668L101.922 418.083L101.643 418.499C103.298 419.607 104.968 420.693 106.653 421.759L106.92 421.336L107.187 420.913C105.51 419.853 103.847 418.771 102.2 417.668ZM112.26 424.028L112.004 424.458L111.748 424.887C113.458 425.907 115.183 426.905 116.921 427.881L117.166 427.445L117.411 427.009C115.68 426.037 113.963 425.044 112.26 424.028ZM122.639 429.853L122.406 430.296L122.173 430.738C123.934 431.667 125.709 432.573 127.498 433.457L127.719 433.008L127.941 432.56C126.16 431.68 124.393 430.778 122.639 429.853ZM133.309 435.126L133.1 435.579L132.89 436.033C134.698 436.868 136.519 437.68 138.353 438.469L138.55 438.01L138.748 437.55C136.923 436.765 135.11 435.957 133.309 435.126ZM144.243 439.829L144.057 440.293L143.872 440.758C145.722 441.497 147.584 442.212 149.457 442.903L149.63 442.434L149.803 441.965C147.938 441.277 146.084 440.565 144.243 439.829ZM155.408 443.95L155.248 444.424L155.087 444.897C156.974 445.537 158.871 446.154 160.78 446.746L160.928 446.268L161.076 445.79C159.176 445.201 157.287 444.588 155.408 443.95ZM166.776 447.476L166.641 447.958L166.505 448.439C168.422 448.979 170.349 449.494 172.287 449.984L172.409 449.5L172.532 449.015C170.603 448.527 168.685 448.014 166.776 447.476ZM178.314 450.398L178.204 450.886L178.094 451.374C180.036 451.812 181.988 452.224 183.948 452.612L184.045 452.122L184.142 451.631C182.19 451.245 180.248 450.834 178.314 450.398ZM189.99 452.709L189.906 453.202L189.822 453.694C191.783 454.029 193.753 454.339 195.731 454.623L195.802 454.128L195.873 453.633C193.904 453.35 191.943 453.042 189.99 452.709ZM201.772 454.403L201.714 454.899L201.656 455.396C203.631 455.627 205.613 455.833 207.603 456.014L207.649 455.516L207.694 455.018C205.712 454.838 203.738 454.633 201.772 454.403ZM213.626 455.479L213.594 455.978L213.561 456.477C215.545 456.605 217.535 456.708 219.532 456.785L219.551 456.285L219.57 455.786C217.582 455.709 215.601 455.607 213.626 455.479ZM225.52 455.939L225.513 456.439L225.507 456.939C226.506 456.952 227.506 456.958 228.508 456.958C229.51 456.958 230.511 456.952 231.51 456.939L231.503 456.439L231.497 455.939C230.502 455.952 229.506 455.958 228.508 455.958C227.511 455.958 226.514 455.952 225.52 455.939ZM237.446 455.786L237.466 456.285L237.485 456.785C239.482 456.708 241.472 456.605 243.455 456.477L243.423 455.978L243.391 455.479C241.416 455.607 239.434 455.709 237.446 455.786ZM249.323 455.018L249.368 455.516L249.413 456.014C251.403 455.833 253.386 455.627 255.361 455.396L255.303 454.899L255.244 454.403C253.278 454.633 251.304 454.838 249.323 455.018ZM261.143 453.633L261.214 454.128L261.285 454.623C263.263 454.339 265.233 454.029 267.194 453.694L267.11 453.202L267.026 452.709C265.073 453.042 263.112 453.35 261.143 453.633ZM272.875 451.631L272.972 452.122L273.069 452.612C275.029 452.224 276.98 451.812 278.922 451.374L278.812 450.886L278.702 450.398C276.769 450.834 274.826 451.245 272.875 451.631ZM284.484 449.015L284.607 449.5L284.73 449.984C286.667 449.494 288.594 448.979 290.511 448.439L290.376 447.958L290.24 447.476C288.332 448.014 286.413 448.527 284.484 449.015ZM295.94 445.79L296.089 446.268L296.237 446.746C298.145 446.154 300.043 445.537 301.929 444.897L301.769 444.424L301.608 443.95C299.73 444.588 297.84 445.201 295.94 445.79ZM307.213 441.965L307.386 442.434L307.559 442.903C309.433 442.212 311.295 441.497 313.145 440.758L312.959 440.293L312.774 439.829C310.932 440.565 309.078 441.277 307.213 441.965ZM318.269 437.551L318.466 438.01L318.664 438.469C319.326 438.184 319.986 437.896 320.645 437.606C322.74 441.109 326.974 442.952 331.112 441.843C336.111 440.503 339.077 435.365 337.738 430.367C336.398 425.368 331.26 422.401 326.262 423.741C321.263 425.08 318.296 430.218 319.636 435.217C319.776 435.741 319.958 436.242 320.178 436.719C319.543 436.999 318.906 437.276 318.269 437.551ZM339.605 427.009L339.85 427.445L340.095 427.881C341.834 426.905 343.558 425.907 345.269 424.887L345.013 424.458L344.757 424.028C343.054 425.044 341.337 426.037 339.605 427.009ZM349.829 420.913L350.097 421.336L350.364 421.759C352.049 420.693 353.718 419.607 355.373 418.499L355.095 418.083L354.817 417.668C353.169 418.771 351.507 419.853 349.829 420.913ZM359.72 414.292L360.009 414.7L360.298 415.108C361.924 413.956 363.535 412.784 365.13 411.591L364.83 411.191L364.531 410.79C362.943 411.978 361.34 413.145 359.72 414.292ZM369.252 407.163L369.561 407.555L369.871 407.948C371.436 406.713 372.983 405.458 374.514 404.183L374.194 403.799L373.874 403.415C372.35 404.684 370.809 405.933 369.252 407.163ZM378.399 399.547L378.729 399.923L379.059 400.298C380.556 398.984 382.037 397.65 383.499 396.297L383.16 395.93L382.82 395.563C381.364 396.91 379.89 398.238 378.399 399.547ZM387.137 391.465L387.486 391.823L387.835 392.182C389.262 390.791 390.672 389.382 392.062 387.955L391.704 387.606L391.346 387.257C389.961 388.678 388.558 390.081 387.137 391.465ZM395.444 382.94L395.811 383.279L396.178 383.619C397.531 382.156 398.865 380.676 400.179 379.178L399.803 378.848L399.427 378.518C398.119 380.01 396.791 381.484 395.444 382.94ZM403.296 373.994L403.68 374.314L404.064 374.634C405.339 373.103 406.593 371.555 407.828 369.991L407.436 369.681L407.043 369.371C405.814 370.929 404.564 372.47 403.296 373.994ZM410.671 364.65L411.071 364.95L411.472 365.249C412.664 363.655 413.837 362.044 414.988 360.417L414.58 360.128L414.172 359.84C413.026 361.459 411.858 363.063 410.671 364.65ZM417.549 354.936L417.964 355.214L418.38 355.492C419.487 353.838 420.574 352.168 421.639 350.483L421.217 350.216L420.794 349.949C419.733 351.626 418.651 353.289 417.549 354.936ZM423.909 344.876L424.339 345.132L424.768 345.388C425.788 343.678 426.786 341.953 427.761 340.214L427.325 339.97L426.889 339.725C425.918 341.456 424.924 343.173 423.909 344.876ZM429.734 334.497L430.176 334.73L430.619 334.963C431.547 333.202 432.454 331.427 433.337 329.638L432.889 329.417L432.441 329.195C431.561 330.976 430.659 332.743 429.734 334.497ZM435.006 323.826L435.46 324.036L435.914 324.246C436.749 322.437 437.561 320.617 438.35 318.783L437.89 318.586L437.431 318.388C436.646 320.213 435.837 322.026 435.006 323.826ZM439.71 312.893L440.174 313.079L440.638 313.264C441.377 311.414 442.092 309.552 442.784 307.679L442.315 307.506L441.846 307.332C441.157 309.198 440.445 311.051 439.71 312.893ZM443.831 301.727L444.304 301.888L444.778 302.049C445.418 300.162 446.034 298.264 446.626 296.356L446.149 296.208L445.671 296.06C445.082 297.96 444.468 299.849 443.831 301.727ZM447.357 290.36L447.838 290.495L448.32 290.631C448.859 288.714 449.375 286.786 449.865 284.849L449.38 284.727L448.896 284.604C448.407 286.532 447.894 288.451 447.357 290.36ZM450.279 278.822L450.767 278.931L451.255 279.041C451.692 277.099 452.105 275.148 452.493 273.188L452.002 273.091L451.512 272.994C451.126 274.946 450.715 276.888 450.279 278.822ZM452.589 267.145L453.082 267.229L453.575 267.314C453.91 265.352 454.219 263.383 454.504 261.405L454.009 261.334L453.514 261.262C453.231 263.232 452.923 265.193 452.589 267.145ZM454.283 255.364L454.78 255.422L455.277 255.48C455.508 253.505 455.714 251.523 455.895 249.532L455.397 249.487L454.899 249.442C454.719 251.423 454.514 253.397 454.283 255.364ZM455.36 243.51L455.859 243.542L456.357 243.574C456.486 241.591 456.589 239.601 456.666 237.604L456.166 237.585L455.666 237.566C455.59 239.554 455.487 241.535 455.36 243.51Z" fill="#E9E8F7"/>
</svg>
