<svg width="354" height="354" viewBox="0 0 354 354" fill="none" xmlns="http://www.w3.org/2000/svg">
<path fill-rule="evenodd" clip-rule="evenodd" d="M176.508 350.89C272.752 350.89 350.773 272.869 350.773 176.626C350.773 80.3819 272.752 2.36094 176.508 2.36094C80.2644 2.36094 2.24351 80.3819 2.24351 176.626C2.24351 233.119 29.1252 283.333 70.7949 315.175C72.5025 313.071 74.8663 311.466 77.6844 310.711C84.7897 308.807 92.0931 313.024 93.997 320.129C94.8834 323.437 94.4431 326.788 93.0024 329.617C117.798 343.18 146.253 350.89 176.508 350.89ZM91.8181 331.527C116.959 345.302 145.819 353.134 176.508 353.134C273.991 353.134 353.016 274.108 353.016 176.626C353.016 79.1427 273.991 0.117188 176.508 0.117188C79.0252 0.117188 -0.000244141 79.1427 -0.000244141 176.626C-0.000244141 233.89 27.2691 284.785 69.5305 317.033C67.8777 319.963 67.3269 323.517 68.2663 327.024C70.1702 334.129 77.4736 338.345 84.5789 336.442C87.5948 335.634 90.0902 333.853 91.8181 331.527Z" fill="#E9E8F7"/>
</svg>
