<svg width="520" height="505" viewBox="0 0 520 505" fill="none" xmlns="http://www.w3.org/2000/svg">
<g filter="url(#filter0_f_213_36896)">
<g clip-path="url(#clip0_213_36896)">
<mask id="mask0_213_36896" style="mask-type:alpha" maskUnits="userSpaceOnUse" x="62" y="62" width="396" height="381">
<path d="M458 62H62V443H458V62Z" fill="white"/>
</mask>
<g mask="url(#mask0_213_36896)">
</g>
<g clip-path="url(#clip1_213_36896)">
<g style="mix-blend-mode:overlay" filter="url(#filter1_f_213_36896)">
<path d="M156.763 613.046C225.028 613.046 280.367 498.369 280.367 356.908C280.367 215.447 225.028 100.77 156.763 100.77C88.4992 100.77 33.1602 215.447 33.1602 356.908C33.1602 498.369 88.4992 613.046 156.763 613.046Z" fill="#FF3242"/>
</g>
<g style="mix-blend-mode:overlay" filter="url(#filter2_f_213_36896)">
<path d="M334.085 624.341C412.438 624.341 475.956 492.716 475.956 330.348C475.956 167.981 412.438 36.3555 334.085 36.3555C255.732 36.3555 192.215 167.981 192.215 330.348C192.215 492.716 255.732 624.341 334.085 624.341Z" fill="#6A38F5"/>
</g>
<g style="mix-blend-mode:overlay" filter="url(#filter3_f_213_36896)">
<path d="M370.585 291.912C440.765 291.912 497.657 174.017 497.657 28.5857C497.657 -116.845 440.765 -234.74 370.585 -234.74C300.406 -234.74 243.514 -116.845 243.514 28.5857C243.514 174.017 300.406 291.912 370.585 291.912Z" fill="#FFC225"/>
</g>
<g style="mix-blend-mode:overlay" filter="url(#filter4_f_213_36896)">
<path d="M174.027 294.517C241.502 294.517 296.201 181.166 296.201 41.3404C296.201 -98.485 241.502 -211.836 174.027 -211.836C106.553 -211.836 51.8535 -98.485 51.8535 41.3404C51.8535 181.166 106.553 294.517 174.027 294.517Z" fill="#EB8145"/>
</g>
<g style="mix-blend-mode:saturation">
<path d="M458 62H62V443H458V62Z" fill="#000AFF"/>
</g>
</g>
</g>
</g>
<defs>
<filter id="filter0_f_213_36896" x="0" y="0" width="520" height="505" filterUnits="userSpaceOnUse" color-interpolation-filters="sRGB">
<feFlood flood-opacity="0" result="BackgroundImageFix"/>
<feBlend mode="normal" in="SourceGraphic" in2="BackgroundImageFix" result="shape"/>
<feGaussianBlur stdDeviation="31" result="effect1_foregroundBlur_213_36896"/>
</filter>
<filter id="filter1_f_213_36896" x="-106.84" y="-39.2305" width="527.207" height="792.277" filterUnits="userSpaceOnUse" color-interpolation-filters="sRGB">
<feFlood flood-opacity="0" result="BackgroundImageFix"/>
<feBlend mode="normal" in="SourceGraphic" in2="BackgroundImageFix" result="shape"/>
<feGaussianBlur stdDeviation="70" result="effect1_foregroundBlur_213_36896"/>
</filter>
<filter id="filter2_f_213_36896" x="52.2148" y="-103.645" width="563.74" height="867.986" filterUnits="userSpaceOnUse" color-interpolation-filters="sRGB">
<feFlood flood-opacity="0" result="BackgroundImageFix"/>
<feBlend mode="normal" in="SourceGraphic" in2="BackgroundImageFix" result="shape"/>
<feGaussianBlur stdDeviation="70" result="effect1_foregroundBlur_213_36896"/>
</filter>
<filter id="filter3_f_213_36896" x="103.514" y="-374.74" width="534.145" height="806.652" filterUnits="userSpaceOnUse" color-interpolation-filters="sRGB">
<feFlood flood-opacity="0" result="BackgroundImageFix"/>
<feBlend mode="normal" in="SourceGraphic" in2="BackgroundImageFix" result="shape"/>
<feGaussianBlur stdDeviation="70" result="effect1_foregroundBlur_213_36896"/>
</filter>
<filter id="filter4_f_213_36896" x="-78.1465" y="-341.836" width="504.348" height="766.354" filterUnits="userSpaceOnUse" color-interpolation-filters="sRGB">
<feFlood flood-opacity="0" result="BackgroundImageFix"/>
<feBlend mode="normal" in="SourceGraphic" in2="BackgroundImageFix" result="shape"/>
<feGaussianBlur stdDeviation="65" result="effect1_foregroundBlur_213_36896"/>
</filter>
<clipPath id="clip0_213_36896">
<rect x="62" y="62" width="396" height="381" rx="190.5" fill="white"/>
</clipPath>
<clipPath id="clip1_213_36896">
<rect width="465" height="506" fill="white" transform="translate(33 -20)"/>
</clipPath>
</defs>
</svg>
