<svg width="272" height="384" viewBox="0 0 272 384" fill="none" xmlns="http://www.w3.org/2000/svg">
<path opacity="0.3" fill-rule="evenodd" clip-rule="evenodd" d="M26.2444 0C11.75 0 0 11.75 0 26.2444V208.312C0 222.806 11.75 234.556 26.2444 234.556H37V357.312C37 371.806 48.75 383.556 63.2444 383.556H245.312C259.806 383.556 271.556 371.806 271.556 357.312V175.244C271.556 160.75 259.806 149 245.312 149H234.556V26.2444C234.556 11.75 222.806 0 208.312 0H26.2444ZM232.556 149V26.2444C232.556 12.8546 221.701 2 208.312 2H26.2444C12.8546 2 2 12.8546 2 26.2444V208.312C2 221.701 12.8546 232.556 26.2444 232.556H37V175.244C37 160.75 48.75 149 63.2444 149H232.556ZM39 232.556V175.244C39 161.855 49.8546 151 63.2444 151H232.556V208.312C232.556 221.701 221.701 232.556 208.312 232.556H39ZM39 234.556H208.312C222.806 234.556 234.556 222.806 234.556 208.312V151H245.312C258.701 151 269.556 161.855 269.556 175.244V357.312C269.556 370.701 258.701 381.556 245.312 381.556H63.2444C49.8546 381.556 39 370.701 39 357.312V234.556Z" fill="url(#paint0_linear_178_35533)"/>
<defs>
<linearGradient id="paint0_linear_178_35533" x1="-10.5093" y1="9.16133e-07" x2="126.124" y2="267.313" gradientUnits="userSpaceOnUse">
<stop stop-color="#E9E8F6" stop-opacity="0.6"/>
<stop offset="1" stop-color="#E9E8F6" stop-opacity="0.1"/>
</linearGradient>
</defs>
</svg>
