<svg width="23" height="44" viewBox="0 0 23 44" fill="none" xmlns="http://www.w3.org/2000/svg">
<path fill-rule="evenodd" clip-rule="evenodd" d="M21.1365 12.4676C21.6361 12.703 22.2319 12.4889 22.4673 11.9893C22.7027 11.4898 22.4887 10.8941 21.9893 10.6586L21.989 10.6584L21.9858 10.6569L21.9656 10.6471C21.9466 10.6379 21.9166 10.6231 21.8767 10.603C21.7969 10.5628 21.6772 10.5012 21.5249 10.4186C21.2199 10.2534 20.7855 10.0053 20.2785 9.67922C19.2595 9.02375 17.9718 8.0688 16.8505 6.85609C15.3557 5.23945 13.9429 2.83383 13.1412 1.34932C12.4916 0.146328 10.7336 0.12841 10.0647 1.32697C9.23624 2.81152 7.77824 5.23032 6.275 6.85609C5.1537 8.06879 3.86604 9.02375 2.84697 9.67921C2.33997 10.0053 1.90562 10.2534 1.60061 10.4186C1.44825 10.5012 1.32859 10.5628 1.24876 10.603C1.20886 10.6231 1.17895 10.6378 1.15993 10.6471L1.13969 10.6569L1.13649 10.6584L1.13617 10.6586C0.6368 10.8941 0.422782 11.4898 0.658153 11.9893C0.893573 12.4889 1.48942 12.703 1.98902 12.4676L1.56505 11.5679C1.98902 12.4676 1.9892 12.4675 1.9894 12.4674L1.98985 12.4672L1.99096 12.4667L1.99403 12.4652L2.00347 12.4607L2.03529 12.4454C2.06214 12.4323 2.10013 12.4136 2.14835 12.3893C2.24477 12.3407 2.38222 12.2698 2.55337 12.1771C2.8954 11.9918 3.37363 11.7185 3.9289 11.3613C5.03438 10.6503 6.46996 9.5912 7.74347 8.21388C8.77592 7.09726 9.76209 5.68236 10.563 4.40959L10.563 42.563C10.563 43.1153 11.0107 43.563 11.563 43.563C12.1153 43.563 12.563 43.1153 12.563 42.563L12.563 4.35528C13.3512 5.64202 14.3343 7.08072 15.382 8.21388C16.6555 9.5912 18.0911 10.6503 19.1966 11.3613C19.7519 11.7185 20.2301 11.9918 20.5721 12.1771C20.7433 12.2698 20.8807 12.3408 20.9772 12.3893C21.0254 12.4136 21.0634 12.4323 21.0902 12.4454L21.122 12.4607L21.1315 12.4652L21.1345 12.4667L21.1357 12.4672L21.1361 12.4674C21.1363 12.4675 21.1365 12.4676 21.5628 11.563L21.1365 12.4676Z" fill="#211F3C"/>
</svg>
