<svg width="37" height="36" viewBox="0 0 37 36" fill="none" xmlns="http://www.w3.org/2000/svg">
<path d="M17.3985 22.4773C17.3985 23.7952 16.323 24.8636 14.9963 24.8636C13.6696 24.8636 12.5941 23.7952 12.5941 22.4773C12.5941 21.1593 13.6696 20.0909 14.9963 20.0909C16.323 20.0909 17.3985 21.1593 17.3985 22.4773Z" fill="white"/>
<path d="M21.4022 20.8864C22.2867 20.8864 23.0037 20.1741 23.0037 19.2955C23.0037 18.4168 22.2867 17.7045 21.4022 17.7045C20.5177 17.7045 19.8007 18.4168 19.8007 19.2955C19.8007 20.1741 20.5177 20.8864 21.4022 20.8864Z" fill="white"/>
<path d="M12.5941 4.18182V12.7269C12.5941 12.8613 12.5598 12.9935 12.4945 13.1112L2.40309 31.2811C1.22533 33.4017 2.76948 36 5.20753 36H32.7925C35.2305 36 36.7747 33.4017 35.5969 31.2811L25.5055 13.1112C25.4402 12.9935 25.4059 12.8613 25.4059 12.7269V4.18182H27.0074C27.4496 4.18182 27.8081 3.82568 27.8081 3.38636V1.79545C27.8081 1.35614 27.4496 1 27.0074 1H10.9926C10.5504 1 10.1919 1.35614 10.1919 1.79545V3.38636C10.1919 3.82568 10.5504 4.18182 10.9926 4.18182H12.5941ZM22.203 12.7269C22.203 13.3989 22.3743 14.0599 22.7011 14.6483L27.5868 23.4452C26.8216 23.34 25.9592 23.2727 25.0055 23.2727C22.6806 23.2727 20.9574 24.3268 19.5887 25.1641C19.5152 25.2091 19.4427 25.2534 19.3713 25.2969C17.9152 26.1831 16.7126 26.8523 14.9963 26.8523C13.2146 26.8523 11.512 26.1195 10.1857 25.3017C9.97585 25.1723 9.77877 25.0429 9.59586 24.9168L15.2989 14.6483C15.6257 14.0599 15.797 13.3989 15.797 12.7269V4.18182H22.203V12.7269ZM8.49654 28.0051C10.0729 28.9771 12.374 30.0341 14.9963 30.0341C17.6841 30.0341 19.5601 28.9135 21.0446 28.01C22.5823 27.074 23.6033 26.4545 25.0055 26.4545C26.7635 26.4545 28.1124 26.7266 29.0005 26.9864C29.2688 27.0648 29.4952 27.1422 29.6782 27.2107L32.7925 32.8182L5.20753 32.8182L8.04196 27.7147C8.18734 27.8108 8.33898 27.908 8.49654 28.0051Z" fill="white"/>
</svg>
