<svg width="68" height="68" viewBox="0 0 68 68" fill="none" xmlns="http://www.w3.org/2000/svg">
<g filter="url(#filter0_d_292_49810)">
<g filter="url(#filter1_b_292_49810)">
<rect x="4.5" y="4.5" width="43" height="43" rx="21.5" stroke="url(#paint0_linear_292_49810)"/>
</g>
</g>
<path fillRule="evenodd" clip-rule="evenodd" d="M27.9046 16.4265C28.1401 15.9269 27.9259 15.3311 27.4263 15.0956C26.9268 14.8603 26.3311 15.0743 26.0956 15.5737L26.0954 15.574L26.0939 15.5772L26.0841 15.5974C26.0749 15.6164 26.0602 15.6463 26.0401 15.6862C25.9999 15.7661 25.9382 15.8857 25.8556 16.0381C25.6904 16.3431 25.4423 16.7775 25.1162 17.2845C24.4608 18.3035 23.5058 19.5912 22.2931 20.7125C20.6765 22.2073 18.2708 23.6201 16.7863 24.4217C15.5833 25.0714 15.5654 26.8294 16.764 27.4982C18.2485 28.3267 20.6673 29.7848 22.2931 31.288C23.5058 32.4093 24.4608 33.6969 25.1162 34.716C25.4423 35.223 25.6904 35.6574 25.8556 35.9624C25.9382 36.1147 25.9998 36.2344 26.04 36.3142C26.0601 36.3541 26.0749 36.384 26.0841 36.4031L26.0939 36.4233L26.0954 36.4265L26.0956 36.4268C26.3311 36.9262 26.9268 37.1402 27.4263 36.9048C27.9259 36.6694 28.14 36.0736 27.9046 35.574L27.0049 35.9979C27.9046 35.574 27.9045 35.5738 27.9044 35.5736L27.9042 35.5731L27.9037 35.572L27.9023 35.569L27.8978 35.5595L27.8824 35.5277C27.8693 35.5009 27.8506 35.4629 27.8263 35.4146C27.7778 35.3182 27.7068 35.1808 27.6141 35.0096C27.4288 34.6676 27.1555 34.1894 26.7983 33.6341C26.0873 32.5286 25.0282 31.093 23.6509 29.8195C22.9645 29.1848 22.1653 28.5676 21.3558 28.0002H58C58.5523 28.0002 59 27.5525 59 27.0002C59 26.448 58.5523 26.0002 58 26.0002H18.1784C18.1604 25.9899 18.1425 25.9797 18.1247 25.9696C19.6577 25.1225 21.9846 23.7217 23.6509 22.181C25.0282 20.9074 26.0873 19.4719 26.7983 18.3664C27.1555 17.8111 27.4288 17.3329 27.6141 16.9909C27.7068 16.8197 27.7778 16.6823 27.8263 16.5858C27.8506 16.5376 27.8693 16.4996 27.8824 16.4728L27.8978 16.441L27.9023 16.4315L27.9037 16.4284L27.9042 16.4273L27.9045 16.4269C27.9045 16.4267 27.9046 16.4265 27 16.0002L27.9046 16.4265Z" fill="#211F3C"/>
<defs>
<filter id="filter0_d_292_49810" x="0" y="0" width="68" height="68" filterUnits="userSpaceOnUse" colorInterpolationFilters="sRGB">
<feFlood floodOpacity="0" result="BackgroundImageFix"/>
<feColorMatrix in="SourceAlpha" type="matrix" values="0 0 0 0 0 0 0 0 0 0 0 0 0 0 0 0 0 0 127 0" result="hardAlpha"/>
<feOffset dx="8" dy="8"/>
<feGaussianBlur stdDeviation="6"/>
<feComposite in2="hardAlpha" operator="out"/>
<feColorMatrix type="matrix" values="0 0 0 0 0 0 0 0 0 0 0 0 0 0 0 0 0 0 0.12 0"/>
<feBlend mode="normal" in2="BackgroundImageFix" result="effect1_dropShadow_292_49810"/>
<feBlend mode="normal" in="SourceGraphic" in2="effect1_dropShadow_292_49810" result="shape"/>
</filter>
<filter id="filter1_b_292_49810" x="-16" y="-16" width="84" height="84" filterUnits="userSpaceOnUse" colorInterpolationFilters="sRGB">
<feFlood floodOpacity="0" result="BackgroundImageFix"/>
<feGaussianBlur in="BackgroundImageFix" stdDeviation="10"/>
<feComposite in2="SourceAlpha" operator="in" result="effect1_backgroundBlur_292_49810"/>
<feBlend mode="normal" in="SourceGraphic" in2="effect1_backgroundBlur_292_49810" result="shape"/>
</filter>
<linearGradient id="paint0_linear_292_49810" x1="6.75" y1="6.89474" x2="47.7433" y2="8.04084" gradientUnits="userSpaceOnUse">
<stop stop-color="#A5A4E9"/>
<stop offset="1" stop-color="#9897E3"/>
</linearGradient>
</defs>
</svg>
