<svg width="48" height="48" viewBox="0 0 48 48" fill="none" xmlns="http://www.w3.org/2000/svg">
<path fill-rule="evenodd" clip-rule="evenodd" d="M24 2.47803C33.3889 2.47803 41 10.0892 41 19.478C41 26.014 37.5847 31.757 32.095 34.6V36.0903C32.095 36.9211 31.7757 37.7201 31.2032 38.322C30.6306 38.924 29.8486 39.2828 29.0189 39.3244L28.8569 39.3284H19.1427C18.3119 39.3284 17.5129 39.0091 16.911 38.4366C16.309 37.864 15.9502 37.082 15.9086 36.2522L15.9046 36.0903V34.5998C10.4151 31.7567 7 26.0139 7 19.478C7 10.0892 14.6111 2.47803 24 2.47803ZM28.9952 32.9907C28.9826 33.024 28.9711 33.0576 28.9607 33.0914C28.8922 33.2736 28.8569 33.4668 28.8569 33.6618V36.0903H19.1427V33.6618L19.1386 33.5403C19.1268 33.3728 19.0891 33.2097 19.0281 33.0563C19.0208 33.0343 19.013 33.0125 19.0048 32.9907C18.8546 32.595 18.5555 32.2739 18.1714 32.0961C13.3135 29.9727 10.2381 25.122 10.2381 19.478C10.2381 11.8774 16.3994 5.71612 24 5.71612C31.6006 5.71612 37.7619 11.8774 37.7619 19.478C37.7619 25.122 34.6857 29.9727 29.8286 32.0961C29.4445 32.2739 29.1454 32.595 28.9952 32.9907ZM28.0474 41.3692C28.4656 41.3702 28.8672 41.533 29.1681 41.8235C29.469 42.114 29.6458 42.5096 29.6615 42.9275C29.6772 43.3454 29.5306 43.7532 29.2523 44.0655C28.9741 44.3777 28.5858 44.5701 28.1689 44.6025L28.0474 44.6073H19.9522C19.5321 44.6092 19.1277 44.4477 18.8244 44.1569C18.5211 43.8662 18.3428 43.4689 18.327 43.0491C18.3113 42.6292 18.4593 42.2197 18.7399 41.907C19.0205 41.5943 19.4117 41.4029 19.8308 41.3733L19.9522 41.3692H28.0474ZM15.4998 19.9637C15.4998 14.8669 19.6316 10.7352 24.7284 10.7352C25.5332 10.7352 26.1856 10.0828 26.1856 9.27803C26.1856 8.47328 25.5332 7.82089 24.7284 7.82089C18.0221 7.82089 12.5856 13.2574 12.5856 19.9637C12.5856 20.7685 13.2379 21.4209 14.0427 21.4209C14.8475 21.4209 15.4998 20.7685 15.4998 19.9637Z" fill="#EEEFFE"/>
</svg>
