<svg width="48" height="48" viewBox="0 0 48 48" fill="none" xmlns="http://www.w3.org/2000/svg">
<path fill-rule="evenodd" clip-rule="evenodd" d="M22.9582 3.27763L6.04181 12.9913C5.72499 13.1732 5.46192 13.4349 5.27904 13.75C5.09616 14.0651 4.99992 14.4225 5 14.7864V34.2136C4.99992 34.5775 5.09616 34.9349 5.27904 35.25C5.46192 35.5651 5.72499 35.8268 6.04181 36.0087L22.9582 45.7224C23.2749 45.9043 23.6342 46 24 46C24.3658 46 24.7251 45.9043 25.0418 45.7224L41.9582 36.0087C42.275 35.8268 42.5381 35.5651 42.721 35.25C42.9038 34.9349 43.0001 34.5775 43 34.2136V14.7864C43.0001 14.4225 42.9038 14.0651 42.721 13.75C42.5381 13.4349 42.275 13.1732 41.9582 12.9913L25.0418 3.27763C24.7251 3.09575 24.3658 3 24 3C23.6342 3 23.2749 3.09575 22.9582 3.27763ZM24.0014 6.66394L39.4258 15.5813V33.4187L24.0014 42.3361L8.57422 33.4187V15.5813L24.0014 6.66394ZM34.8657 19.7894C34.9622 19.3088 34.8814 18.8094 34.6382 18.3838V18.3863C34.5061 18.1547 34.3296 17.9515 34.1189 17.7882C33.9082 17.6249 33.6674 17.5047 33.4102 17.4345C33.153 17.3643 32.8845 17.3455 32.62 17.3791C32.3556 17.4128 32.1003 17.4982 31.8689 17.6306L23.9998 22.1294L16.1331 17.6306L15.8846 17.5114C15.409 17.3238 14.8802 17.3227 14.4039 17.5083C13.9275 17.6939 13.5388 18.0525 13.3155 18.5123C13.0921 18.9722 13.0506 19.4994 13.1992 19.9885C13.3478 20.4777 13.6756 20.8927 14.117 21.1505L21.971 25.6392V33.8938L21.9862 34.1474C22.0494 34.6606 22.3061 35.1303 22.704 35.4605C23.1018 35.7908 23.6108 35.9567 24.1268 35.9243C24.6428 35.8919 25.1271 35.6637 25.4805 35.2864C25.834 34.909 26.03 34.4109 26.0286 33.8938V25.6417L33.8825 21.1505L34.1133 20.9984C34.5019 20.6995 34.7692 20.2701 34.8657 19.7894Z" fill="#EEEFFE"/>
</svg>
