<svg width="58" height="58" viewBox="0 0 58 58" fill="none" xmlns="http://www.w3.org/2000/svg">
<path d="M29.0129 6.27026C37.8618 6.27026 45.4161 11.8173 48.3808 19.618C53.9154 21.0774 58 26.1143 58 32.1004C58 39.236 52.2065 45.0155 45.06 45.0155H42.4643C42.1795 45.0155 41.9464 44.783 41.9464 44.4989V40.6244C41.9464 40.3402 42.1795 40.1078 42.4643 40.1078H45.06C47.2027 40.1078 49.2158 39.2747 50.7306 37.7637C52.2453 36.2526 53.0804 34.2379 53.0804 32.1004C53.0804 28.4713 50.627 25.2877 47.1185 24.3449L44.6716 23.6992L43.7783 21.3422C43.2216 19.8763 42.4449 18.4944 41.4674 17.2481C40.5029 16.0147 39.3636 14.9298 38.0754 14.0258C35.415 12.1595 32.2819 11.1715 29.0129 11.1715C25.744 11.1715 22.6109 12.1595 19.9504 14.0258C18.6688 14.9298 17.523 16.0082 16.5585 17.2481C15.581 18.4944 14.8042 19.8698 14.2475 21.3422L13.3478 23.7056L10.8944 24.3449C9.21138 24.7905 7.69665 25.7914 6.61562 27.1669C5.56049 28.5165 4.9779 30.118 4.91964 31.8227C4.84844 34.0054 5.65759 36.1106 7.17879 37.6733C8.70647 39.2425 10.7585 40.1078 12.94 40.1078H15.5357C15.8205 40.1078 16.0536 40.3402 16.0536 40.6244V44.4989C16.0536 44.783 15.8205 45.0155 15.5357 45.0155H12.94C5.79353 45.0155 0 39.236 0 32.1004C0 26.1078 4.09754 21.0645 9.64509 19.6115C12.6098 11.8108 20.1641 6.27026 29.0129 6.27026Z" fill="#5F647C"/>
<path d="M31.4533 41.5478H36.25C36.6837 41.5478 36.9232 42.045 36.6578 42.3808L29.4078 51.5312C29.2007 51.7959 28.7993 51.7959 28.5922 51.5312L21.3422 42.3808C21.0768 42.045 21.3163 41.5478 21.75 41.5478H26.5337V25.9012C26.5337 25.6171 26.7667 25.3846 27.0516 25.3846H30.9355C31.2203 25.3846 31.4533 25.6171 31.4533 25.9012V41.5478Z" fill="#5F647C"/>
</svg>
