<svg width="48" height="48" viewBox="0 0 48 48" fill="none" xmlns="http://www.w3.org/2000/svg">
<path fill-rule="evenodd" clip-rule="evenodd" d="M44.8832 8.90264C44.8832 10.3423 43.7124 11.513 42.2728 11.513C41.3109 11.513 40.4781 10.9844 40.0252 10.2078H34.0931C40.5591 13.805 44.8832 20.7277 44.8832 28.4806C44.8832 28.8267 44.7457 29.1587 44.5009 29.4035C44.2561 29.6483 43.9241 29.7858 43.578 29.7858C43.2318 29.7858 42.8998 29.6483 42.6551 29.4035C42.4103 29.1587 42.2728 28.8267 42.2728 28.4806C42.2728 19.8793 36.1906 12.4515 27.9156 10.6386V11.513C27.9156 11.8592 27.7781 12.1912 27.5334 12.4359C27.2886 12.6807 26.9566 12.8182 26.6104 12.8182H21.3897C21.0435 12.8182 20.7115 12.6807 20.4668 12.4359C20.222 12.1912 20.0845 11.8592 20.0845 11.513V10.6399C11.8122 12.4528 5.72733 19.8846 5.72733 28.4806C5.72733 28.8267 5.58982 29.1587 5.34505 29.4035C5.10028 29.6483 4.7683 29.7858 4.42214 29.7858C4.07598 29.7858 3.744 29.6483 3.49923 29.4035C3.25445 29.1587 3.11694 28.8267 3.11694 28.4806C3.11694 20.7329 7.44105 13.8063 13.907 10.2078H7.97488C7.52198 10.9844 6.68926 11.513 5.72733 11.513C4.2877 11.513 3.11694 10.3423 3.11694 8.90264C3.11694 7.46301 4.2877 6.29226 5.72733 6.29226C6.68926 6.29226 7.52198 6.82086 7.97488 7.59745H20.0845V6.29226C20.0845 5.9461 20.222 5.61411 20.4668 5.36934C20.7115 5.12457 21.0435 4.98706 21.3897 4.98706H26.6104C26.9566 4.98706 27.2886 5.12457 27.5334 5.36934C27.7781 5.61411 27.9156 5.9461 27.9156 6.29226V7.59745H40.0252C40.4781 6.82086 41.3109 6.29226 42.2728 6.29226C43.7124 6.29226 44.8832 7.46301 44.8832 8.90264ZM22.6949 10.2078H25.3053V7.59745H22.6949V10.2078ZM25.2616 16.1968L35.1286 34.4734C35.3837 34.9473 35.3048 35.5178 34.9284 35.9173L30.8083 40.2789H31.0479C31.4217 40.2789 31.7803 40.4164 32.0446 40.6613C32.309 40.9061 32.4575 41.2381 32.4575 41.5844C32.4575 41.9306 32.309 42.2626 32.0446 42.5075C31.7803 42.7523 31.4217 42.8898 31.0479 42.8898H16.9522C16.5784 42.8898 16.2198 42.7523 15.9555 42.5075C15.6911 42.2626 15.5426 41.9306 15.5426 41.5844C15.5426 41.2381 15.6911 40.9061 15.9555 40.6613C16.2198 40.4164 16.5784 40.2789 16.9522 40.2789H17.1918L13.0716 35.916C12.8875 35.721 12.7702 35.4798 12.7346 35.2229C12.6989 34.966 12.7466 34.7052 12.8715 34.4734L22.7385 16.1968C23.2177 15.3117 24.7824 15.3117 25.2616 16.1968ZM24.7753 26.5714C24.7753 26.121 24.4271 25.7555 24 25.7555C23.5729 25.7555 23.2248 26.121 23.2248 26.5714C23.2248 27.0218 23.5729 27.3873 24 27.3873C24.4271 27.3873 24.7753 27.0218 24.7753 26.5714ZM20.9399 40.2789H27.0588L32.184 34.8559L24.7048 21.0049V24.574C25.5633 24.8599 26.1849 25.6419 26.1849 26.5714C26.1849 27.7411 25.2038 28.6928 24 28.6928C22.7963 28.6928 21.8152 27.7411 21.8152 26.5714C21.8152 25.6432 22.4368 24.8599 23.2953 24.5727V21.0049L15.8161 34.8573L20.9399 40.2789Z" fill="white"/>
</svg>
