<svg width="131" height="106" viewBox="0 0 131 106" fill="none" xmlns="http://www.w3.org/2000/svg">
<g clip-path="url(#clip0_287_46265)">
<path d="M23.3759 61.0657C22.4937 61.0657 22.1398 62.228 22.8686 62.7252C29.1597 67.0175 46.387 79.1492 61.7052 93.3714C63.8219 95.3366 67.1126 95.3368 69.2303 93.3727C84.4463 79.2597 101.774 67.0356 108.077 62.7229C108.805 62.2252 108.45 61.0657 107.569 61.0657L23.3759 61.0657Z" fill="url(#paint0_linear_287_46265)"/>
<path d="M2.97445 8.46713C2.09224 8.46713 1.73748 9.62467 2.46799 10.1193C10.7065 15.6975 38.0757 34.7353 61.7188 57.0029C63.8214 58.9832 67.1127 58.9838 69.2162 57.0043C92.6825 34.9216 120.228 15.7198 128.48 10.1156C129.209 9.62043 128.852 8.46713 127.97 8.46713L2.97445 8.46713Z" fill="url(#paint1_linear_287_46265)" fill-opacity="0.8"/>
</g>
<defs>
<linearGradient id="paint0_linear_287_46265" x1="65.3821" y1="97.9542" x2="65.3821" y2="64.9619" gradientUnits="userSpaceOnUse">
<stop stop-color="#104CFF"/>
<stop offset="0.509236" stop-color="#104CFF" stop-opacity="0.25"/>
<stop offset="1" stop-color="#104CFF" stop-opacity="0"/>
</linearGradient>
<linearGradient id="paint1_linear_287_46265" x1="65.3436" y1="62.0553" x2="65.3436" y2="14.1272" gradientUnits="userSpaceOnUse">
<stop stop-color="#104CFF"/>
<stop offset="0.345942" stop-color="#104CFF" stop-opacity="0.453854"/>
<stop offset="1" stop-color="#104CFF" stop-opacity="0"/>
</linearGradient>
<clipPath id="clip0_287_46265">
<rect width="131" height="106" fill="white"/>
</clipPath>
</defs>
</svg>
