<svg width="40" height="39" viewBox="0 0 40 39" fill="none" xmlns="http://www.w3.org/2000/svg">
<path d="M34.25 3.5H20.5C18.9875 3.5 17.75 4.7375 17.75 6.25C17.75 7.7625 18.9875 9 20.5 9H27.65L20.6375 16.0125C18.9875 15.05 17.0625 14.5 15 14.5C8.95 14.5 4 19.45 4 25.5C4 31.55 8.95 36.5 15 36.5C21.05 36.5 26 31.55 26 25.5C26 23.4375 25.45 21.5125 24.4875 19.8625L31.5 12.85V20C31.5 21.5125 32.7375 22.75 34.25 22.75C35.7625 22.75 37 21.5125 37 20V6.25C37 4.7375 35.7625 3.5 34.25 3.5ZM15 31C11.975 31 9.5 28.525 9.5 25.5C9.5 22.475 11.975 20 15 20C18.025 20 20.5 22.475 20.5 25.5C20.5 28.525 18.025 31 15 31Z" fill="#B9D5FE"/>
</svg>
