<svg width="48" height="48" viewBox="0 0 48 48" fill="none" xmlns="http://www.w3.org/2000/svg">
<path fill-rule="evenodd" clip-rule="evenodd" d="M42.96 20.6575V38.4174H48V41.2975H0V38.4174H4.80001V12.0174C4.80081 11.7636 4.86871 11.5144 4.99684 11.2953C5.12496 11.0761 5.30876 10.8947 5.52958 10.7694L24.1248 0.209428C24.3436 0.0853691 24.591 0.0207467 24.8424 0.0219903C25.0939 0.0232339 25.3406 0.0903001 25.5581 0.216516C25.7755 0.342732 25.9562 0.523696 26.082 0.741404C26.2078 0.959112 26.2744 1.20597 26.2752 1.45742V9.30066L42.288 19.4382C42.4939 19.5681 42.6636 19.748 42.7811 19.9612C42.8986 20.1745 42.9602 20.414 42.96 20.6575ZM7.68001 12.8527V38.4174L23.4048 38.4079V3.92467L7.68001 12.8527ZM26.2848 12.7375V38.4174L40.0896 38.4366V21.4735L26.2848 12.7375ZM12.1536 18.2191H20.0352C20.4171 18.2191 20.7833 18.3708 21.0534 18.6408C21.3234 18.9109 21.4752 19.2772 21.4752 19.6591C21.4752 20.041 21.3234 20.4072 21.0534 20.6773C20.7833 20.9473 20.4171 21.099 20.0352 21.099H12.1536C11.7717 21.099 11.4054 20.9473 11.1354 20.6773C10.8653 20.4072 10.7136 20.041 10.7136 19.6591C10.7136 19.2772 10.8653 18.9109 11.1354 18.6408C11.4054 18.3708 11.7717 18.2191 12.1536 18.2191ZM12.1536 27.7423H20.0352C20.4171 27.7423 20.7834 27.894 21.0534 28.164C21.3235 28.4341 21.4752 28.8004 21.4752 29.1823C21.4752 29.5642 21.3235 29.9304 21.0534 30.2005C20.7834 30.4706 20.4171 30.6223 20.0352 30.6223H12.1536C11.7717 30.6223 11.4054 30.4706 11.1354 30.2005C10.8653 29.9304 10.7136 29.5642 10.7136 29.1823C10.7136 28.8004 10.8653 28.4341 11.1354 28.164C11.4054 27.894 11.7717 27.7423 12.1536 27.7423ZM31.0752 27.7423H36.5184C36.9003 27.7423 37.2666 27.894 37.5366 28.164C37.8067 28.4341 37.9584 28.8004 37.9584 29.1823C37.9584 29.5642 37.8067 29.9304 37.5366 30.2005C37.2666 30.4706 36.9003 30.6223 36.5184 30.6223H31.0752C30.6933 30.6223 30.327 30.4706 30.057 30.2005C29.7869 29.9304 29.6352 29.5642 29.6352 29.1823C29.6352 28.8004 29.7869 28.4341 30.057 28.164C30.327 27.894 30.6933 27.7423 31.0752 27.7423Z" fill="#EEEFFE"/>
</svg>
