<svg width="150" height="26" viewBox="0 0 150 26" fill="none" xmlns="http://www.w3.org/2000/svg">
<path fill-rule="evenodd" clip-rule="evenodd" d="M64.1948 2.2947C55.7024 1.97331 46.7524 3.44913 40.0983 4.55815C27.0661 6.73018 13.7905 10.3728 1.40871 15.0779C1.02151 15.225 0.588341 15.0304 0.441205 14.6432C0.294069 14.256 0.488679 13.8228 0.875879 13.6757C13.3467 8.9368 26.718 5.26751 39.8517 3.07856C46.4856 1.97291 55.5829 0.467712 64.2515 0.795778C69.5167 0.99504 74.6982 1.87304 79.0926 3.97775C80.7458 3.81059 82.4112 3.70813 84.0778 3.65246C88.6834 3.49862 93.3439 3.7023 97.7998 3.89704C99.3749 3.96587 100.924 4.03359 102.437 4.084C109.279 4.31207 116.21 5.78774 123.043 7.2425L123.893 7.42336C130.317 8.78904 136.65 10.0902 142.844 10.3364C142.836 9.9506 142.831 9.56787 142.827 9.18979V9.18961V9.18945C142.825 8.98116 142.823 8.77428 142.82 8.56907C142.814 8.1549 143.145 7.81444 143.559 7.80862C143.729 7.80625 143.886 7.86011 144.012 7.95291C144.135 7.8225 144.304 7.73527 144.497 7.71932C144.711 7.7016 144.911 7.77534 145.059 7.90788C145.188 7.91489 145.295 7.95082 145.37 7.98405C145.735 8.1462 146.028 8.4035 146.23 8.58125L146.261 8.60831C146.495 8.81384 146.637 8.92995 146.789 8.99734C147.085 9.12895 147.751 9.55272 148.287 9.95286C148.561 10.1569 148.843 10.3856 149.048 10.5987C149.144 10.6992 149.265 10.838 149.349 10.9998C149.358 11.0176 149.37 11.043 149.383 11.0748C149.507 11.1637 149.605 11.2911 149.657 11.4469C149.788 11.8398 149.576 12.2646 149.183 12.3955C147.787 12.861 146.424 13.5796 145.189 14.4276L145.131 14.4677C144.989 14.5653 144.836 14.6708 144.705 14.7438L144.702 14.7455C144.595 14.8048 144.249 14.9976 143.85 14.8655C143.409 14.72 143.266 14.3137 143.219 14.1695C143.158 13.9787 143.116 13.7388 143.079 13.4919C142.995 12.942 142.94 12.3899 142.905 11.8398C136.517 11.5992 130.025 10.2604 123.581 8.89057L122.779 8.71981C115.907 7.25707 109.093 5.8067 102.387 5.58317C100.842 5.53166 99.2715 5.46306 97.6842 5.39371C93.2447 5.19974 88.6706 4.99988 84.1279 5.15163C83.2354 5.18144 82.3458 5.22484 81.4607 5.28444C83.3207 6.46173 84.9897 7.91558 86.4008 9.69804C88.5624 12.4285 90.3133 15.9143 90.3075 18.9619C90.3045 20.5138 89.8436 21.9854 88.7154 23.1467C87.5965 24.2984 85.8994 25.0644 83.5769 25.3741C80.6086 25.7698 74.7458 25.9726 69.5412 24.9534C66.9412 24.4442 64.4417 23.6183 62.5464 22.309C60.6291 20.9846 59.2998 19.1384 59.1752 16.6477C59.0489 14.1207 59.712 12.1745 60.9727 10.6355C62.2134 9.121 63.9847 8.06025 65.9689 7.19217C69.19 5.78294 72.6047 4.89641 76.1056 4.35649C72.507 3.06139 68.4327 2.45509 64.1948 2.2947ZM78.8186 5.51465C74.5362 5.97805 70.3957 6.89274 66.5701 8.56641C64.6731 9.39636 63.1538 10.34 62.1331 11.586C61.1325 12.8074 60.5636 14.3777 60.6734 16.5728C60.7693 18.4903 61.7673 19.9477 63.3989 21.0748C65.0524 22.2171 67.3233 22.9906 69.8295 23.4814C74.8374 24.4621 80.5309 24.2669 83.3786 23.8872C85.4877 23.606 86.8278 22.937 87.6395 22.1015C88.442 21.2754 88.8051 20.2074 88.8075 18.9591C88.8124 16.4063 87.2991 13.2494 85.2247 10.6291C83.4882 8.43556 81.3093 6.76464 78.8186 5.51465ZM145.894 11.3916C145.914 11.4234 145.934 11.4522 145.954 11.4781L145.966 11.4732L146.063 11.4334C146.004 11.4186 145.948 11.4045 145.894 11.3916ZM145.663 8.88837C145.664 8.87034 145.666 8.87497 145.663 8.89514L145.663 8.88837Z" fill="#BEC2D1"/>
</svg>
