<svg width="44" height="54" viewBox="0 0 44 54" fill="none" xmlns="http://www.w3.org/2000/svg">
<g clip-path="url(#clip0_391_49851)">
<g filter="url(#filter0_d_391_49851)">
<g filter="url(#filter1_b_391_49851)">
<rect x="43.5" y="0.5" width="43" height="43" rx="21.5" transform="rotate(90 43.5 0.5)" stroke="#999EB0"/>
</g>
</g>
<path fill-rule="evenodd" clip-rule="evenodd" d="M31.5737 23.9041C32.0733 24.1396 32.6692 23.9254 32.9046 23.4258C33.14 22.9263 32.926 22.3306 32.4266 22.0951L32.4263 22.0949L32.4231 22.0934L32.4028 22.0836C32.3838 22.0744 32.3539 22.0597 32.314 22.0396C32.2342 21.9994 32.1145 21.9377 31.9621 21.8551C31.6571 21.6899 31.2228 21.4418 30.7158 21.1157C29.6967 20.4603 28.4091 19.5053 27.2878 18.2926C25.793 16.676 24.3802 14.2704 23.5785 12.7858C22.9289 11.5829 21.1709 11.5649 20.502 12.7635C19.6735 14.248 18.2155 16.6668 16.7123 18.2926C15.591 19.5053 14.3033 20.4603 13.2842 21.1157C12.7772 21.4418 12.3429 21.6899 12.0379 21.8551C11.8855 21.9377 11.7658 21.9994 11.686 22.0396C11.6461 22.0597 11.6162 22.0744 11.5972 22.0836L11.5769 22.0934L11.5737 22.0949L11.5734 22.0951C11.0741 22.3306 10.86 22.9263 11.0954 23.4258C11.3308 23.9254 11.9267 24.1396 12.4263 23.9041L12.0023 23.0044C12.4263 23.9041 12.4265 23.9041 12.4267 23.904L12.4271 23.9037L12.4282 23.9032L12.4313 23.9018L12.4407 23.8973L12.4725 23.8819C12.4994 23.8688 12.5374 23.8501 12.5856 23.8258C12.682 23.7773 12.8195 23.7064 12.9906 23.6136C13.3327 23.4283 13.8109 23.155 14.3662 22.7978C15.4716 22.0868 16.9072 21.0277 18.1807 19.6504C19.2131 18.5339 20.1992 17.1192 21 15.8465L21 53.9995C21 54.5518 21.4477 54.9995 22 54.9995C22.5523 54.9995 23 54.5518 23 53.9995L23 15.7914C23.7883 17.0783 24.7714 18.5171 25.8193 19.6504C27.0928 21.0277 28.5284 22.0868 29.6339 22.7978C30.1891 23.155 30.6674 23.4283 31.0094 23.6136C31.1805 23.7064 31.318 23.7773 31.4144 23.8258C31.4626 23.8501 31.5006 23.8688 31.5275 23.8819L31.5593 23.8973L31.5687 23.9018L31.5718 23.9032L31.5729 23.9038L31.5734 23.904C31.5736 23.9041 31.5737 23.9041 32 22.9995L31.5737 23.9041Z" fill="#353756"/>
</g>
<defs>
<filter id="filter0_d_391_49851" x="-4" y="-4" width="68" height="68" filterUnits="userSpaceOnUse" color-interpolation-filters="sRGB">
<feFlood flood-opacity="0" result="BackgroundImageFix"/>
<feColorMatrix in="SourceAlpha" type="matrix" values="0 0 0 0 0 0 0 0 0 0 0 0 0 0 0 0 0 0 127 0" result="hardAlpha"/>
<feOffset dx="8" dy="8"/>
<feGaussianBlur stdDeviation="6"/>
<feComposite in2="hardAlpha" operator="out"/>
<feColorMatrix type="matrix" values="0 0 0 0 0 0 0 0 0 0 0 0 0 0 0 0 0 0 0.12 0"/>
<feBlend mode="normal" in2="BackgroundImageFix" result="effect1_dropShadow_391_49851"/>
<feBlend mode="normal" in="SourceGraphic" in2="effect1_dropShadow_391_49851" result="shape"/>
</filter>
<filter id="filter1_b_391_49851" x="-20" y="-20" width="84" height="84" filterUnits="userSpaceOnUse" color-interpolation-filters="sRGB">
<feFlood flood-opacity="0" result="BackgroundImageFix"/>
<feGaussianBlur in="BackgroundImageFix" stdDeviation="10"/>
<feComposite in2="SourceAlpha" operator="in" result="effect1_backgroundBlur_391_49851"/>
<feBlend mode="normal" in="SourceGraphic" in2="effect1_backgroundBlur_391_49851" result="shape"/>
</filter>
<clipPath id="clip0_391_49851">
<rect width="54" height="44" fill="white" transform="translate(44) rotate(90)"/>
</clipPath>
</defs>
</svg>
