<svg width="70" height="68" viewBox="0 0 70 68" fill="none" xmlns="http://www.w3.org/2000/svg">
<g clip-path="url(#clip0_389_49844)">
<path fill-rule="evenodd" clip-rule="evenodd" d="M20.2551 34.3548C18.6806 34.3548 17.7354 36.103 18.5974 37.4205L37.9248 66.9582C38.7068 68.1533 40.4582 68.1533 41.2402 66.9582L60.5676 37.4205C61.4296 36.103 60.4844 34.3548 58.9099 34.3548L50.9333 34.3548C49.8392 34.3548 48.9523 33.4679 48.9523 32.3738L48.9523 1.98079C48.9523 0.886725 48.0654 -0.000193712 46.9713 -0.000193808L32.1937 -0.0001951C31.0996 -0.000195195 30.2127 0.886726 30.2127 1.9808L30.2127 32.3739C30.2127 33.4679 29.3258 34.3548 28.2317 34.3548L20.2551 34.3548Z" fill="#1EC89F"/>
<path fill-rule="evenodd" clip-rule="evenodd" d="M1.02675 24.6025C0.212035 24.6025 -0.277075 25.507 0.169009 26.1887L7.74224 37.7628C8.14687 38.3812 9.05308 38.3812 9.45772 37.7628L17.0309 26.1888C17.477 25.507 16.9879 24.6025 16.1732 24.6025L13.4841 24.6025C12.918 24.6025 12.459 24.1435 12.459 23.5774L12.459 11.4768C12.459 10.9107 12.0001 10.4518 11.434 10.4518L5.76614 10.4518C5.20002 10.4518 4.74109 10.9107 4.74109 11.4768L4.74109 23.5774C4.74109 24.1435 4.28216 24.6025 3.71604 24.6025L1.02675 24.6025Z" fill="#BCF1E4"/>
</g>
<defs>
<clipPath id="clip0_389_49844">
<rect width="70" height="68" fill="white"/>
</clipPath>
</defs>
</svg>
