<svg width="74" height="74" viewBox="0 0 74 74" fill="none" xmlns="http://www.w3.org/2000/svg">
<path d="M37 1C16.5571 1 0 17.3553 0 37.549C0 54.7255 11.9313 68.9812 28.0287 73C27.8429 72.5428 27.7516 71.902 27.7516 71.2643V65.0494H23.1258C20.6287 65.0494 18.3142 63.9545 17.2971 61.942C16.0942 59.749 15.9084 56.3679 12.8571 54.2651C11.9313 53.5342 12.6713 52.8032 13.6884 52.8934C15.6313 53.4408 17.2026 54.7224 18.6826 56.6385C20.1626 58.5577 20.8113 59.015 23.5855 59.015C24.8797 59.015 26.914 58.9247 28.7655 58.6479C29.7826 56.0879 31.5397 53.8048 33.6684 52.7099C21.2742 51.2479 15.3542 45.2165 15.3542 36.9922C15.3542 33.4275 16.9255 30.0464 19.5171 27.1224C18.6858 24.2887 17.5742 18.4409 19.8887 16.1577C25.4403 16.1577 28.7687 19.7224 29.6 20.6338C32.3742 19.7193 35.4287 19.1719 38.5713 19.1719C41.8084 19.1719 44.7684 19.7193 47.5426 20.6338C48.374 19.7193 51.7055 16.1577 57.254 16.1577C59.474 18.3507 58.4568 24.2887 57.5311 27.1224C60.1226 29.9562 61.6026 33.4275 61.6026 36.9922C61.6026 45.2165 55.774 51.2479 43.4742 52.5263C46.8971 54.262 49.3029 59.1954 49.3029 62.8503V71.1741C49.3029 71.4478 49.2116 71.7216 49.2116 71.9953C63.64 67.062 74 53.5404 74 37.549C74 17.3553 57.4429 1 37 1Z" fill="white"/>
</svg>
