<svg width="38" height="38" viewBox="0 0 38 38" fill="none" xmlns="http://www.w3.org/2000/svg">
<path d="M23.4781 12.5217H13.9564C13.2868 12.5217 12.739 11.9739 12.739 11.3044C12.739 10.6348 13.2868 10.087 13.9564 10.087H23.4781C24.1477 10.087 24.6955 10.6348 24.6955 11.3044C24.6955 11.9739 24.1477 12.5217 23.4781 12.5217Z" fill="#22233D"/>
<path d="M19.826 16.7826H13.9564C13.2868 16.7826 12.739 16.2348 12.739 15.5652C12.739 14.8957 13.2868 14.3478 13.9564 14.3478H19.826C20.4955 14.3478 21.0434 14.8957 21.0434 15.5652C21.0434 16.2348 20.4955 16.7826 19.826 16.7826Z" fill="#22233D"/>
<path fill-rule="evenodd" clip-rule="evenodd" d="M7.26074 27.7391C7.26074 30.113 9.1477 32 11.5216 32H28.9564C29.626 32 30.1738 31.4522 30.1738 30.7826V5.21739C30.1738 4.54783 29.626 4 28.9564 4H11.5216C9.1477 4 7.26074 5.88696 7.26074 8.26087V27.7391ZM9.69552 27.7391C9.69552 26.7043 10.4868 25.913 11.5216 25.913H27.739V29.5652H11.5216C10.4868 29.5652 9.69552 28.7739 9.69552 27.7391ZM9.69552 23.9043V8.26087C9.69552 7.22609 10.4868 6.43478 11.5216 6.43478H27.739V23.4783H11.5216C10.852 23.4783 10.2434 23.6 9.69552 23.9043Z" fill="#22233D"/>
</svg>
