<svg width="44" height="54" viewBox="0 0 44 54" fill="none" xmlns="http://www.w3.org/2000/svg">
<g clip-path="url(#clip0_115_57250)">
<g filter="url(#filter0_d_115_57250)">
<g filter="url(#filter1_b_115_57250)">
<rect x="43.5" y="0.5" width="43" height="43" rx="21.5" transform="rotate(90 43.5 0.5)" stroke="url(#paint0_linear_115_57250)"/>
</g>
</g>
<path d="M22 54L22 14" stroke="#D9DBE4" strokeWidth="2" stroke-linecap="round"/>
<path d="M32 23C32 23 28.9483 21.562 26.5535 18.972C24.9675 17.2566 23.5053 14.7553 22.6986 13.2615C22.4226 12.7504 21.6583 12.7441 21.3752 13.2513C20.5422 14.7439 19.0362 17.2527 17.4465 18.972C15.0517 21.562 12 23 12 23" stroke="#D9DBE4" strokeWidth="2" stroke-linecap="round"/>
</g>
<defs>
<filter id="filter0_d_115_57250" x="-4" y="-4" width="68" height="68" filterUnits="userSpaceOnUse" colorInterpolationFilters="sRGB">
<feFlood floodOpacity="0" result="BackgroundImageFix"/>
<feColorMatrix in="SourceAlpha" type="matrix" values="0 0 0 0 0 0 0 0 0 0 0 0 0 0 0 0 0 0 127 0" result="hardAlpha"/>
<feOffset dx="8" dy="8"/>
<feGaussianBlur stdDeviation="6"/>
<feComposite in2="hardAlpha" operator="out"/>
<feColorMatrix type="matrix" values="0 0 0 0 0 0 0 0 0 0 0 0 0 0 0 0 0 0 0.12 0"/>
<feBlend mode="normal" in2="BackgroundImageFix" result="effect1_dropShadow_115_57250"/>
<feBlend mode="normal" in="SourceGraphic" in2="effect1_dropShadow_115_57250" result="shape"/>
</filter>
<filter id="filter1_b_115_57250" x="-20" y="-20" width="84" height="84" filterUnits="userSpaceOnUse" colorInterpolationFilters="sRGB">
<feFlood floodOpacity="0" result="BackgroundImageFix"/>
<feGaussianBlur in="BackgroundImageFix" stdDeviation="10"/>
<feComposite in2="SourceAlpha" operator="in" result="effect1_backgroundBlur_115_57250"/>
<feBlend mode="normal" in="SourceGraphic" in2="effect1_backgroundBlur_115_57250" result="shape"/>
</filter>
<linearGradient id="paint0_linear_115_57250" x1="46.75" y1="2.89474" x2="87.7433" y2="4.04084" gradientUnits="userSpaceOnUse">
<stop stop-color="#A5A4E9"/>
<stop offset="1" stop-color="#9897E3"/>
</linearGradient>
<clipPath id="clip0_115_57250">
<rect width="54" height="44" fill="white" transform="translate(44) rotate(90)"/>
</clipPath>
</defs>
</svg>
