<svg width="74" height="74" viewBox="0 0 74 74" fill="none" xmlns="http://www.w3.org/2000/svg">
<path d="M74 13.0385C71.225 14.4462 68.45 14.9154 65.2125 15.3846C68.45 13.5077 70.7625 10.6923 71.6875 6.93846C68.9125 8.81538 65.675 9.75385 61.975 10.6923C59.2 7.87692 55.0375 6 50.875 6C41.1625 6 33.7625 15.3846 36.075 24.7692C23.5875 24.3 12.4875 18.2 4.625 8.81539C0.4625 15.8538 2.775 24.7692 9.25 29.4615C6.9375 29.4615 4.625 28.5231 2.3125 27.5846C2.3125 34.6231 7.4 41.1923 14.3375 43.0692C12.025 43.5385 9.7125 44.0077 7.4 43.5385C9.25 49.6385 14.8 54.3308 21.7375 54.3308C16.1875 58.5538 7.8625 60.9 0 59.9615C6.9375 64.1846 14.8 67 23.125 67C51.3375 67 67.0625 43.0692 66.1375 21.0154C69.375 19.1385 72.15 16.3231 74 13.0385Z" fill="white"/>
</svg>
