<svg width="22" height="44" viewBox="0 0 22 44" fill="none" xmlns="http://www.w3.org/2000/svg">
<path fill-rule="evenodd" clip-rule="evenodd" d="M20.574 12.4676C21.0736 12.703 21.6694 12.4889 21.9048 11.9893C22.1402 11.4898 21.9262 10.8941 21.4268 10.6586L21.4265 10.6584L21.4233 10.6569L21.4031 10.6471C21.3841 10.6379 21.3541 10.6231 21.3142 10.603C21.2344 10.5628 21.1147 10.5012 20.9624 10.4186C20.6574 10.2534 20.223 10.0053 19.716 9.67922C18.697 9.02375 17.4093 8.0688 16.288 6.85609C14.7932 5.23945 13.3804 2.83383 12.5787 1.34932C11.9291 0.146328 10.1711 0.12841 9.50224 1.32697C8.67374 2.81152 7.21574 5.23032 5.7125 6.85609C4.5912 8.06879 3.30354 9.02375 2.28448 9.67921C1.77748 10.0053 1.34312 10.2534 1.03811 10.4186C0.885753 10.5012 0.766088 10.5628 0.68626 10.603C0.64636 10.6231 0.616451 10.6378 0.597429 10.6471L0.577192 10.6569L0.573986 10.6584L0.573673 10.6586C0.0743006 10.8941 -0.139717 11.4898 0.0956533 11.9893C0.331074 12.4889 0.926922 12.703 1.42652 12.4676L1.00255 11.5679C1.42652 12.4676 1.4267 12.4675 1.4269 12.4674L1.42735 12.4672L1.42846 12.4667L1.43153 12.4652L1.44097 12.4607L1.47279 12.4454C1.49964 12.4323 1.53763 12.4136 1.58585 12.3893C1.68227 12.3407 1.81972 12.2698 1.99088 12.1771C2.3329 11.9918 2.81113 11.7185 3.3664 11.3613C4.47188 10.6503 5.90746 9.5912 7.18097 8.21388C8.21342 7.09726 9.19959 5.68236 10.0005 4.40959L10.0005 42.563C10.0005 43.1153 10.4482 43.563 11.0005 43.563C11.5528 43.563 12.0005 43.1153 12.0005 42.563L12.0005 4.35528C12.7887 5.64202 13.7718 7.08072 14.8195 8.21388C16.093 9.5912 17.5286 10.6503 18.6341 11.3613C19.1894 11.7185 19.6676 11.9918 20.0096 12.1771C20.1808 12.2698 20.3182 12.3408 20.4147 12.3893C20.4629 12.4136 20.5009 12.4323 20.5277 12.4454L20.5595 12.4607L20.569 12.4652L20.572 12.4667L20.5732 12.4672L20.5736 12.4674C20.5738 12.4675 20.574 12.4676 21.0003 11.563L20.574 12.4676Z" fill="#D5D4DD"/>
</svg>
