<svg width="76" height="76" viewBox="0 0 76 76" fill="none" xmlns="http://www.w3.org/2000/svg">
<g opacity="0.5">
<path fill-rule="evenodd" clip-rule="evenodd" d="M38.7544 45.5399C40.1794 43.1958 41 40.4437 41 37.5C41 34.5563 40.1794 31.8042 38.7544 29.4601C41.2955 26.1569 45.3678 24 50 24C57.7923 24 64 30.1035 64 37.5C64 44.8965 57.7923 51 50 51C45.3678 51 41.2955 48.8431 38.7544 45.5399ZM37.5556 27.7568C34.714 24.2452 30.3692 22 25.5 22C16.9396 22 10 28.9396 10 37.5C10 46.0604 16.9396 53 25.5 53C30.3692 53 34.714 50.7548 37.5556 47.2432C40.4888 50.7548 44.9738 53 50 53C58.8366 53 66 46.0604 66 37.5C66 28.9396 58.8366 22 50 22C44.9738 22 40.4888 24.2452 37.5556 27.7568Z" fill="url(#paint0_linear_72_1619)"/>
</g>
<defs>
<linearGradient id="paint0_linear_72_1619" x1="0.484097" y1="22.4943" x2="77" y2="22.4943" gradientUnits="userSpaceOnUse">
<stop stop-color="#DCE7FF"/>
<stop stop-color="#EAF1FF"/>
<stop offset="0.234375" stop-color="#B1CBFF"/>
<stop offset="1" stop-color="#8C45FF"/>
</linearGradient>
</defs>
</svg>
