<svg width="54" height="54" viewBox="0 0 54 54" fill="none" xmlns="http://www.w3.org/2000/svg">
<g filter="url(#filter0_b_133_29430)">
<path fillRule="evenodd" clip-rule="evenodd" d="M1 27C1 38.598 10.402 48 22 48C33.598 48 43 38.598 43 27C43 15.402 33.598 6 22 6C10.402 6 1 15.402 1 27ZM22 5C9.84974 5 0 14.8497 0 27C0 39.1503 9.84974 49 22 49C34.1503 49 44 39.1503 44 27C44 14.8497 34.1503 5 22 5Z" fill="url(#paint0_linear_133_29430)"/>
</g>
<path fillRule="evenodd" clip-rule="evenodd" d="M23.9046 17.4263C24.1401 16.9267 23.9259 16.3308 23.4263 16.0954C22.9268 15.86 22.3311 16.074 22.0956 16.5734L22.0954 16.5737L22.0939 16.5769L22.0841 16.5972C22.0749 16.6162 22.0602 16.6461 22.0401 16.686C21.9999 16.7658 21.9382 16.8855 21.8556 17.0379C21.6904 17.3429 21.4423 17.7772 21.1162 18.2842C20.4608 19.3033 19.5058 20.5909 18.2931 21.7122C16.6765 23.207 14.2708 24.6198 12.7863 25.4215C11.5833 26.0711 11.5654 27.8291 12.764 28.498C14.2485 29.3265 16.6673 30.7845 18.2931 32.2877C19.5058 33.409 20.4608 34.6967 21.1162 35.7158C21.4423 36.2228 21.6904 36.6571 21.8556 36.9621C21.9382 37.1145 21.9998 37.2342 22.04 37.314C22.0601 37.3539 22.0749 37.3838 22.0841 37.4028L22.0939 37.4231L22.0954 37.4263L22.0956 37.4266C22.3311 37.9259 22.9268 38.14 23.4263 37.9046C23.9259 37.6692 24.14 37.0733 23.9046 36.5737L23.0049 36.9977C23.9046 36.5737 23.9045 36.5735 23.9044 36.5733L23.9042 36.5729L23.9037 36.5718L23.9023 36.5687L23.8978 36.5593L23.8824 36.5275C23.8693 36.5006 23.8506 36.4626 23.8263 36.4144C23.7778 36.318 23.7068 36.1805 23.6141 36.0094C23.4288 35.6673 23.1555 35.1891 22.7983 34.6338C22.0873 33.5284 21.0282 32.0928 19.6509 30.8193C18.5344 29.7869 17.1197 28.8009 15.8471 28H52C52.5523 28 53 27.5523 53 27C53 26.4478 52.5523 26 52 26H15.7918C17.0787 25.2118 18.5176 24.2286 19.6509 23.1807C21.0282 21.9072 22.0873 20.4716 22.7983 19.3661C23.1555 18.8109 23.4288 18.3326 23.6141 17.9906C23.7068 17.8195 23.7778 17.682 23.8263 17.5856C23.8506 17.5374 23.8693 17.4994 23.8824 17.4725L23.8978 17.4407L23.9023 17.4313L23.9037 17.4282L23.9042 17.4271L23.9045 17.4266C23.9045 17.4264 23.9046 17.4263 23 17L23.9046 17.4263Z" fill="#F3F5F9"/>
<defs>
<filter id="filter0_b_133_29430" x="-20" y="-15" width="84" height="84" filterUnits="userSpaceOnUse" colorInterpolationFilters="sRGB">
<feFlood floodOpacity="0" result="BackgroundImageFix"/>
<feGaussianBlur in="BackgroundImageFix" stdDeviation="10"/>
<feComposite in2="SourceAlpha" operator="in" result="effect1_backgroundBlur_133_29430"/>
<feBlend mode="normal" in="SourceGraphic" in2="effect1_backgroundBlur_133_29430" result="shape"/>
</filter>
<linearGradient id="paint0_linear_133_29430" x1="2.75" y1="7.89474" x2="43.7433" y2="9.04084" gradientUnits="userSpaceOnUse">
<stop stop-color="#A5A4E9"/>
<stop offset="1" stop-color="#9897E3"/>
</linearGradient>
</defs>
</svg>
