<svg width="93" height="52" viewBox="0 0 93 52" fill="none" xmlns="http://www.w3.org/2000/svg">
<mask id="path-1-inside-1_140_29438" fill="white">
<path fill-rule="evenodd" clip-rule="evenodd" d="M87.0001 12C90.3138 12 93.0001 9.31371 93.0001 6C93.0001 2.68629 90.3138 0 87.0001 0C85.8989 0 84.867 0.296642 83.98 0.814375L83.9698 0.810863L83.9657 0.822739C82.1913 1.86497 81.0001 3.79338 81.0001 6C81.0001 6.5107 81.0639 7.0065 81.184 7.47985L11.0083 41.6959C9.93454 40.0722 8.09234 39.0013 6 39.0013C2.68629 39.0013 0 41.6875 0 45.0013C0 48.315 2.68629 51.0013 6 51.0013C9.31371 51.0013 12 48.315 12 45.0013C12 44.4924 11.9367 43.9983 11.8174 43.5265L81.9947 9.30964C83.0688 10.9309 84.9096 12 87.0001 12Z"/>
</mask>
<path fill-rule="evenodd" clip-rule="evenodd" d="M87.0001 12C90.3138 12 93.0001 9.31371 93.0001 6C93.0001 2.68629 90.3138 0 87.0001 0C85.8989 0 84.867 0.296642 83.98 0.814375L83.9698 0.810863L83.9657 0.822739C82.1913 1.86497 81.0001 3.79338 81.0001 6C81.0001 6.5107 81.0639 7.0065 81.184 7.47985L11.0083 41.6959C9.93454 40.0722 8.09234 39.0013 6 39.0013C2.68629 39.0013 0 41.6875 0 45.0013C0 48.315 2.68629 51.0013 6 51.0013C9.31371 51.0013 12 48.315 12 45.0013C12 44.4924 11.9367 43.9983 11.8174 43.5265L81.9947 9.30964C83.0688 10.9309 84.9096 12 87.0001 12Z" fill="white"/>
<path d="M83.98 0.814375L83.3285 2.7053L84.1959 3.00411L84.9881 2.54169L83.98 0.814375ZM83.9698 0.810863L84.6212 -1.08006L82.73 -1.73162L82.0788 0.159688L83.9698 0.810863ZM83.9657 0.822739L84.9786 2.54726L85.616 2.17287L85.8567 1.47391L83.9657 0.822739ZM81.184 7.47985L82.0605 9.27755L83.5225 8.56471L83.1226 6.98811L81.184 7.47985ZM11.0083 41.6959L9.34006 42.7991L10.3078 44.2626L11.8848 43.4936L11.0083 41.6959ZM11.8174 43.5265L10.9409 41.7288L9.48021 42.441L9.87838 44.0165L11.8174 43.5265ZM81.9947 9.30964L83.6619 8.205L82.6938 6.74371L81.1182 7.51194L81.9947 9.30964ZM91.0001 6C91.0001 8.20914 89.2092 10 87.0001 10V14C91.4184 14 95.0001 10.4183 95.0001 6H91.0001ZM87.0001 2C89.2092 2 91.0001 3.79086 91.0001 6H95.0001C95.0001 1.58172 91.4184 -2 87.0001 -2V2ZM84.9881 2.54169C85.5775 2.1977 86.2627 2 87.0001 2V-2C85.5352 -2 84.1565 -1.60441 82.9718 -0.912939L84.9881 2.54169ZM84.6314 -1.07655L84.6212 -1.08006L83.3183 2.70179L83.3285 2.7053L84.6314 -1.07655ZM82.0788 0.159688L82.0747 0.171564L85.8567 1.47391L85.8608 1.46204L82.0788 0.159688ZM83.0001 6C83.0001 4.53138 83.7905 3.24516 84.9786 2.54726L82.9528 -0.901785C80.5921 0.484789 79.0001 3.05537 79.0001 6H83.0001ZM83.1226 6.98811C83.0429 6.67417 83.0001 6.34352 83.0001 6H79.0001C79.0001 6.67788 79.0849 7.33883 79.2454 7.9716L83.1226 6.98811ZM80.3074 5.68216L10.1318 39.8983L11.8848 43.4936L82.0605 9.27755L80.3074 5.68216ZM12.6765 40.5928C11.2482 38.4329 8.79176 37.0012 6 37.0012V41.0013C7.39293 41.0013 8.62088 41.7116 9.34006 42.7991L12.6765 40.5928ZM6 37.0012C1.58172 37.0012 -2 40.583 -2 45.0013H2C2 42.7921 3.79086 41.0013 6 41.0013V37.0012ZM-2 45.0013C-2 49.4195 1.58172 53.0013 6 53.0013V49.0012C3.79086 49.0012 2 47.2104 2 45.0013H-2ZM6 53.0013C10.4183 53.0013 14 49.4195 14 45.0013H10C10 47.2104 8.20914 49.0012 6 49.0012V53.0013ZM14 45.0013C14 44.3258 13.9158 43.6672 13.7565 43.0365L9.87838 44.0165C9.95746 44.3295 10 44.659 10 45.0013H14ZM12.6939 45.3242L82.8712 11.1073L81.1182 7.51194L10.9409 41.7288L12.6939 45.3242ZM87.0001 10C85.6084 10 84.3814 9.29092 83.6619 8.205L80.3274 10.4143C81.7563 12.5709 84.2108 14 87.0001 14V10Z" fill="#22C5B8" mask="url(#path-1-inside-1_140_29438)"/>
</svg>
