<svg width="277" height="82" viewBox="0 0 277 82" fill="none" xmlns="http://www.w3.org/2000/svg">
<g filter="url(#filter0_b_154_29429)">
<mask id="path-1-inside-1_154_29429" fill="white">
<path fill-rule="evenodd" clip-rule="evenodd" d="M10 0C4.47715 0 0 4.47715 0 10V56C0 61.5228 4.47716 66 10 66H99.4723L99.0948 79.5897C99.0585 80.8946 100.591 81.6199 101.577 80.7645L118.597 66H267C272.523 66 277 61.5229 277 56V10C277 4.47715 272.523 0 267 0H10Z"/>
</mask>
<path fill-rule="evenodd" clip-rule="evenodd" d="M10 0C4.47715 0 0 4.47715 0 10V56C0 61.5228 4.47716 66 10 66H99.4723L99.0948 79.5897C99.0585 80.8946 100.591 81.6199 101.577 80.7645L118.597 66H267C272.523 66 277 61.5229 277 56V10C277 4.47715 272.523 0 267 0H10Z" fill="#EFEEFF" fill-opacity="0.7"/>
<path d="M99.4723 66L102.471 66.0833L102.557 63H99.4723V66ZM99.0948 79.5897L96.0959 79.5064L96.0959 79.5064L99.0948 79.5897ZM101.577 80.7645L103.543 83.0306L103.543 83.0306L101.577 80.7645ZM118.597 66V63H117.477L116.631 63.7338L118.597 66ZM3 10C3 6.13401 6.13401 3 10 3V-3C2.8203 -3 -3 2.8203 -3 10H3ZM3 56V10H-3V56H3ZM10 63C6.13401 63 3 59.866 3 56H-3C-3 63.1797 2.82031 69 10 69V63ZM99.4723 63H10V69H99.4723V63ZM102.094 79.673L102.471 66.0833L96.4734 65.9167L96.0959 79.5064L102.094 79.673ZM99.6113 78.4983C100.597 77.6429 102.13 78.3681 102.094 79.673L96.0959 79.5064C95.9872 83.4212 100.585 85.5969 103.543 83.0306L99.6113 78.4983ZM116.631 63.7338L99.6113 78.4983L103.543 83.0306L120.563 68.2662L116.631 63.7338ZM267 63H118.597V69H267V63ZM274 56C274 59.866 270.866 63 267 63V69C274.18 69 280 63.1797 280 56H274ZM274 10V56H280V10H274ZM267 3C270.866 3 274 6.13401 274 10H280C280 2.82029 274.18 -3 267 -3V3ZM10 3H267V-3H10V3Z" fill="#170840" mask="url(#path-1-inside-1_154_29429)"/>
</g>
<defs>
<filter id="filter0_b_154_29429" x="-4" y="-4" width="285" height="89.1348" filterUnits="userSpaceOnUse" color-interpolation-filters="sRGB">
<feFlood flood-opacity="0" result="BackgroundImageFix"/>
<feGaussianBlur in="BackgroundImageFix" stdDeviation="2"/>
<feComposite in2="SourceAlpha" operator="in" result="effect1_backgroundBlur_154_29429"/>
<feBlend mode="normal" in="SourceGraphic" in2="effect1_backgroundBlur_154_29429" result="shape"/>
</filter>
</defs>
</svg>
