<svg width="309" height="69" viewBox="0 0 309 69" fill="none" xmlns="http://www.w3.org/2000/svg">
<mask id="path-1-inside-1_154_29434" fill="white">
<path fill-rule="evenodd" clip-rule="evenodd" d="M26.9998 0.000488281C21.477 0.000488281 16.9998 4.47764 16.9998 10.0005V27.7391L0.526236 42.7802C-0.557939 43.7701 0.278468 45.5672 1.73395 45.3751L16.9998 43.3599V59.0005C16.9998 64.5233 21.477 69.0005 26.9998 69.0005H299C304.523 69.0005 309 64.5233 309 59.0005V10.0005C309 4.47764 304.523 0.000488281 299 0.000488281H26.9998Z"/>
</mask>
<path fill-rule="evenodd" clip-rule="evenodd" d="M26.9998 0.000488281C21.477 0.000488281 16.9998 4.47764 16.9998 10.0005V27.7391L0.526236 42.7802C-0.557939 43.7701 0.278468 45.5672 1.73395 45.3751L16.9998 43.3599V59.0005C16.9998 64.5233 21.477 69.0005 26.9998 69.0005H299C304.523 69.0005 309 64.5233 309 59.0005V10.0005C309 4.47764 304.523 0.000488281 299 0.000488281H26.9998Z" fill="#170840" fill-opacity="0.8"/>
<path d="M16.9998 27.7391L19.0226 29.9546L19.9998 29.0624V27.7391H16.9998ZM0.526236 42.7802L2.54904 44.9957L2.54904 44.9957L0.526236 42.7802ZM1.73395 45.3751L2.12656 48.3493L2.12656 48.3493L1.73395 45.3751ZM16.9998 43.3599H19.9998V39.9378L16.6072 40.3857L16.9998 43.3599ZM19.9998 10.0005C19.9998 6.1345 23.1338 3.00049 26.9998 3.00049V-2.99951C19.8201 -2.99951 13.9998 2.82079 13.9998 10.0005H19.9998ZM19.9998 27.7391V10.0005H13.9998V27.7391H19.9998ZM14.977 25.5237L-1.49657 40.5648L2.54904 44.9957L19.0226 29.9546L14.977 25.5237ZM-1.49657 40.5648C-4.7491 43.5345 -2.23987 48.9257 2.12656 48.3493L1.34134 42.4009C2.79681 42.2087 3.63322 44.0058 2.54904 44.9957L-1.49657 40.5648ZM2.12656 48.3493L17.3924 46.3341L16.6072 40.3857L1.34133 42.4009L2.12656 48.3493ZM19.9998 59.0005V43.3599H13.9998V59.0005H19.9998ZM26.9998 66.0005C23.1338 66.0005 19.9998 62.8665 19.9998 59.0005H13.9998C13.9998 66.1802 19.8201 72.0005 26.9998 72.0005V66.0005ZM299 66.0005H26.9998V72.0005H299V66.0005ZM306 59.0005C306 62.8665 302.866 66.0005 299 66.0005V72.0005C306.18 72.0005 312 66.1802 312 59.0005H306ZM306 10.0005V59.0005H312V10.0005H306ZM299 3.00049C302.866 3.00049 306 6.13449 306 10.0005H312C312 2.82079 306.18 -2.99951 299 -2.99951V3.00049ZM26.9998 3.00049H299V-2.99951H26.9998V3.00049Z" fill="#999EB0" mask="url(#path-1-inside-1_154_29434)"/>
</svg>
