<svg width="300" height="76" viewBox="0 0 300 76" fill="none" xmlns="http://www.w3.org/2000/svg">
<g filter="url(#filter0_b_150_29562)">
<mask id="path-1-inside-1_150_29562" fill="white">
<path fill-rule="evenodd" clip-rule="evenodd" d="M10 0C4.47715 0 0 4.47715 0 10V66C0 71.5229 4.47715 76 10 76H274C279.523 76 284 71.5229 284 66V47.0481L298.073 49.2132C299.483 49.4301 300.371 47.7427 299.394 46.7034L284 30.3222V10C284 4.47715 279.523 0 274 0H10Z"/>
</mask>
<path fill-rule="evenodd" clip-rule="evenodd" d="M10 0C4.47715 0 0 4.47715 0 10V66C0 71.5229 4.47715 76 10 76H274C279.523 76 284 71.5229 284 66V47.0481L298.073 49.2132C299.483 49.4301 300.371 47.7427 299.394 46.7034L284 30.3222V10C284 4.47715 279.523 0 274 0H10Z" fill="#EFEEFF" fillOpacity="0.7"/>
<path d="M284 47.0481L284.456 44.083L281 43.5513V47.0481H284ZM298.073 49.2132L298.529 46.2481L298.529 46.2481L298.073 49.2132ZM299.394 46.7034L301.58 44.649L301.58 44.649L299.394 46.7034ZM284 30.3222H281V31.5107L281.814 32.3767L284 30.3222ZM3 10C3 6.13401 6.13401 3 10 3V-3C2.8203 -3 -3 2.8203 -3 10H3ZM3 66V10H-3V66H3ZM10 73C6.13401 73 3 69.866 3 66H-3C-3 73.1797 2.8203 79 10 79V73ZM274 73H10V79H274V73ZM281 66C281 69.866 277.866 73 274 73V79C281.18 79 287 73.1797 287 66H281ZM281 47.0481V66H287V47.0481H281ZM298.529 46.2481L284.456 44.083L283.544 50.0132L297.617 52.1783L298.529 46.2481ZM297.208 48.7579C296.232 47.7187 297.12 46.0312 298.529 46.2481L297.617 52.1783C301.846 52.8289 304.51 47.7667 301.58 44.649L297.208 48.7579ZM281.814 32.3767L297.208 48.7579L301.58 44.649L286.186 28.2678L281.814 32.3767ZM281 10V30.3222H287V10H281ZM274 3C277.866 3 281 6.13401 281 10H287C287 2.8203 281.18 -3 274 -3V3ZM10 3H274V-3H10V3Z" fill="#170840" mask="url(#path-1-inside-1_150_29562)"/>
</g>
<defs>
<filter id="filter0_b_150_29562" x="-4" y="-4" width="307.806" height="84" filterUnits="userSpaceOnUse" colorInterpolationFilters="sRGB">
<feFlood floodOpacity="0" result="BackgroundImageFix"/>
<feGaussianBlur in="BackgroundImageFix" stdDeviation="2"/>
<feComposite in2="SourceAlpha" operator="in" result="effect1_backgroundBlur_150_29562"/>
<feBlend mode="normal" in="SourceGraphic" in2="effect1_backgroundBlur_150_29562" result="shape"/>
</filter>
</defs>
</svg>
