<svg width="311" height="69" viewBox="0 0 311 69" fill="none" xmlns="http://www.w3.org/2000/svg">
<mask id="path-1-inside-1_151_29565" fill="white">
<path fill-rule="evenodd" clip-rule="evenodd" d="M284 69C289.523 69 294 64.5228 294 59L294 40.2605L310.474 25.2193C311.558 24.2294 310.722 22.4323 309.266 22.6244L294 24.6397L294 10C294 4.47717 289.523 2.10135e-05 284 2.05306e-05L10.0001 -3.42321e-06C4.47724 -3.90603e-06 6.66759e-05 4.47715 6.61931e-05 10L6.19094e-05 59C6.14266e-05 64.5228 4.47723 69 10.0001 69L284 69Z"/>
</mask>
<path fill-rule="evenodd" clip-rule="evenodd" d="M284 69C289.523 69 294 64.5228 294 59L294 40.2605L310.474 25.2193C311.558 24.2294 310.722 22.4323 309.266 22.6244L294 24.6397L294 10C294 4.47717 289.523 2.10135e-05 284 2.05306e-05L10.0001 -3.42321e-06C4.47724 -3.90603e-06 6.66759e-05 4.47715 6.61931e-05 10L6.19094e-05 59C6.14266e-05 64.5228 4.47723 69 10.0001 69L284 69Z" fill="#170840" fillOpacity="0.8"/>
<path d="M294 40.2605L291.977 38.045L291 38.9372L291 40.2605L294 40.2605ZM310.474 25.2193L308.451 23.0038L308.451 23.0038L310.474 25.2193ZM309.266 22.6244L308.873 19.6502L308.873 19.6502L309.266 22.6244ZM294 24.6397L291 24.6397L291 28.0617L294.393 27.6138L294 24.6397ZM291 59C291 62.866 287.866 66 284 66L284 72C291.18 72 297 66.1797 297 59L291 59ZM291 40.2605L291 59L297 59L297 40.2605L291 40.2605ZM296.023 42.4759L312.497 27.4347L308.451 23.0038L291.977 38.045L296.023 42.4759ZM312.497 27.4347C315.749 24.465 313.24 19.0739 308.873 19.6502L309.659 25.5986C308.203 25.7908 307.367 23.9937 308.451 23.0038L312.497 27.4347ZM308.873 19.6502L293.607 21.6655L294.393 27.6138L309.659 25.5986L308.873 19.6502ZM291 10L291 24.6397L297 24.6397L297 10L291 10ZM284 3.00002C287.866 3.00002 291 6.13403 291 10L297 10C297 2.82031 291.18 -2.99998 284 -2.99998L284 3.00002ZM10.0001 3L284 3.00002L284 -2.99998L10.0001 -3L10.0001 3ZM3.00007 10C3.00007 6.134 6.13409 3 10.0001 3L10.0001 -3C2.82039 -3 -2.99993 2.82029 -2.99993 10L3.00007 10ZM3.00006 59L3.00007 10L-2.99993 10L-2.99994 59L3.00006 59ZM10.0001 66C6.13408 66 3.00006 62.866 3.00006 59L-2.99994 59C-2.99994 66.1797 2.82039 72 10.0001 72L10.0001 66ZM284 66L10.0001 66L10.0001 72L284 72L284 66Z" fill="#999EB0" mask="url(#path-1-inside-1_151_29565)"/>
</svg>
