<svg width="1352" height="382" viewBox="0 0 1352 382" fill="none" xmlns="http://www.w3.org/2000/svg">
<g clip-path="url(#clip0_186_35977)">
<g filter="url(#filter0_b_186_35977)">
<path d="M0 189.85C0 84.9987 84.9987 0 189.85 0H1162.15C1267 0 1352 84.9987 1352 189.85V189.85C1352 294.701 1267 379.7 1162.15 379.7H189.85C84.9987 379.7 0 294.701 0 189.85V189.85Z" fill="url(#paint0_linear_186_35977)"/>
</g>
<g filter="url(#filter1_b_186_35977)">
<path d="M1352 191.463C1352 296.314 1267 381.312 1162.15 381.312L189.85 381.312C84.9987 381.312 -3.51539e-06 296.314 6.26518e-06 191.463V191.463C1.60457e-05 86.6113 84.9987 1.61264 189.85 1.61265L1162.15 1.61273C1267 1.61274 1352 86.6114 1352 191.463V191.463Z" fill="url(#paint1_linear_186_35977)"/>
</g>
</g>
<defs>
<filter id="filter0_b_186_35977" x="-40.2254" y="-40.2254" width="1432.45" height="460.151" filterUnits="userSpaceOnUse" colorInterpolationFilters="sRGB">
<feFlood floodOpacity="0" result="BackgroundImageFix"/>
<feGaussianBlur in="BackgroundImageFix" stdDeviation="20.1127"/>
<feComposite in2="SourceAlpha" operator="in" result="effect1_backgroundBlur_186_35977"/>
<feBlend mode="normal" in="SourceGraphic" in2="effect1_backgroundBlur_186_35977" result="shape"/>
</filter>
<filter id="filter1_b_186_35977" x="-40.2254" y="-38.6131" width="1432.45" height="460.151" filterUnits="userSpaceOnUse" colorInterpolationFilters="sRGB">
<feFlood floodOpacity="0" result="BackgroundImageFix"/>
<feGaussianBlur in="BackgroundImageFix" stdDeviation="20.1127"/>
<feComposite in2="SourceAlpha" operator="in" result="effect1_backgroundBlur_186_35977"/>
<feBlend mode="normal" in="SourceGraphic" in2="effect1_backgroundBlur_186_35977" result="shape"/>
</filter>
<linearGradient id="paint0_linear_186_35977" x1="58" y1="307.5" x2="430.208" y2="328.484" gradientUnits="userSpaceOnUse">
<stop stop-color="#D4D1FD" stop-opacity="0.5"/>
<stop offset="0.555361" stop-color="#DEDCFF" stop-opacity="0.1"/>
<stop offset="1" stop-color="#D7D5F7" stop-opacity="0"/>
</linearGradient>
<linearGradient id="paint1_linear_186_35977" x1="1352" y1="191.463" x2="915.733" y2="-25.2194" gradientUnits="userSpaceOnUse">
<stop stop-color="#D1DDFD" stop-opacity="0.5"/>
<stop offset="0.555361" stop-color="#C5D1FF" stop-opacity="0.1"/>
<stop offset="1" stop-color="#C6D9FF" stop-opacity="0"/>
</linearGradient>
<clipPath id="clip0_186_35977">
<rect width="1352" height="381.313" fill="white"/>
</clipPath>
</defs>
</svg>
