<svg width="38" height="38" viewBox="0 0 38 38" fill="none" xmlns="http://www.w3.org/2000/svg">
<path fill-rule="evenodd" clip-rule="evenodd" d="M17.7666 3.57914C18.9648 3.21136 20.2142 3.0249 21.4798 3.0249C28.3837 3.0249 34.0001 8.58252 34.0001 15.414C34.0001 19.0496 32.3946 22.4887 29.5952 24.8488C29.3992 25.0141 29.1601 25.0948 28.9223 25.0948C28.6246 25.0948 28.3293 24.9685 28.1224 24.7232C27.7505 24.2819 27.8067 23.6226 28.2479 23.2504C30.5751 21.2883 31.9098 18.4321 31.9098 15.4139C31.9098 9.7352 27.231 5.11528 21.4798 5.11528C20.4224 5.11528 19.3792 5.27074 18.3803 5.57763C17.8261 5.74704 17.2437 5.43641 17.0742 4.88526C16.9048 4.33342 17.2151 3.74857 17.7666 3.57914ZM23.6168 21.8255C22.1024 20.647 20.3928 19.9709 18.9261 19.9709C18.1833 19.9709 17.3872 20.3482 16.6588 20.766C16.194 20.1509 15.5129 19.1918 15.1734 18.5991C14.858 18.0466 14.4847 17.2028 14.2119 16.4519C14.7436 16.2335 15.2284 15.9627 15.5588 15.5823C16.671 14.3034 17.1354 12.2243 16.8333 9.87806C16.3988 6.50642 14.2237 3.72097 11.8816 3.53726C10.5391 3.43384 8.94887 3.77066 7.83225 4.40109C6.19643 5.32515 5.02708 6.92047 4.45075 9.01423C3.37971 12.9064 4.42014 18.1673 7.23381 23.0874C10.6208 29.0083 15.8906 32.9866 20.3472 32.9866C21.5675 32.9866 22.6923 32.7005 23.6902 32.1367C24.2383 31.8278 26.0637 30.6894 26.539 29.0264C27.0956 27.0786 26.6206 24.1639 23.6168 21.8255ZM24.5289 28.4521C24.338 29.1203 23.4541 29.8698 22.6624 30.3165C21.9816 30.7013 21.2028 30.8963 20.3472 30.8963C16.6741 30.8963 12.0279 27.2582 9.04859 22.0497C6.54281 17.6683 5.55309 12.8861 6.46627 9.56918C6.89767 8.0014 7.70333 6.87492 8.86011 6.22135C9.52694 5.84504 10.5208 5.60859 11.3829 5.60859C11.4972 5.60859 11.6095 5.61301 11.718 5.62153C12.7332 5.70115 14.4007 7.35807 14.76 10.1455C14.9794 11.8484 14.681 13.4063 13.9826 14.2099C13.9111 14.2868 13.6621 14.4583 12.7969 14.7423C11.7643 15.0812 11.8265 15.7882 11.9014 16.0777C12.1719 17.1168 12.8118 18.6798 13.3589 19.6369C13.7576 20.3337 14.4667 21.3155 14.6746 21.6C15.5717 22.8279 15.8307 23.149 16.4196 23.149C16.7469 23.149 16.9538 23.0242 17.329 22.7976L17.3307 22.7966C17.6342 22.6135 18.5498 22.0614 18.926 22.0614C19.9219 22.0614 21.1953 22.5897 22.3327 23.475C24.5153 25.174 24.8984 27.1599 24.5289 28.4521ZM19.9675 10.317C19.3901 10.317 18.9223 10.7848 18.9223 11.3622V12.3819C18.9223 12.9592 19.3901 13.427 19.9675 13.427C20.5448 13.427 21.0126 12.9592 21.0126 12.3819V11.3622C21.0126 10.7848 20.5448 10.317 19.9675 10.317ZM27.0799 11.3622C27.0799 10.7848 27.5477 10.317 28.1251 10.317C28.7025 10.317 29.1703 10.7848 29.1703 11.3622V12.3819C29.1703 12.9592 28.7025 13.427 28.1251 13.427C27.5477 13.427 27.0799 12.9592 27.0799 12.3819V11.3622ZM26.6237 15.0502C26.145 14.7358 25.4996 14.8695 25.1795 15.3435C25.1751 15.3499 24.7239 16.0045 24.036 16.0045C23.3671 16.0045 22.9507 15.3983 22.9227 15.3561C22.6155 14.8739 21.9759 14.7263 21.4894 15.0298C20.9991 15.3343 20.8484 15.9787 21.1532 16.4689C21.5285 17.0728 22.5577 18.0949 24.036 18.0949C25.5071 18.0949 26.5492 17.0803 26.933 16.4812C27.2416 15.9994 27.1014 15.3649 26.6237 15.0502Z" fill="#22233D"/>
</svg>
