<svg width="36" height="36" viewBox="0 0 36 36" fill="none" xmlns="http://www.w3.org/2000/svg">
<path fill-rule="evenodd" clip-rule="evenodd" d="M1.52515 17.8712C1.23512 17.8712 0.999999 18.1063 0.999999 18.3963C0.999999 18.6863 1.23512 18.9215 1.52515 18.9215L34.1503 18.9215C32.4508 19.8809 29.5288 21.6618 27.5136 23.6144C26.0003 25.0806 24.8301 26.7406 24.0402 28.0274C23.6444 28.6722 23.3421 29.2268 23.138 29.6214C23.0359 29.8188 22.9583 29.9764 22.9059 30.0856C22.8796 30.1402 22.8597 30.1827 22.8461 30.212L22.8304 30.246L22.8262 30.2553L22.8249 30.258L22.8245 30.2588L22.8244 30.2591C22.8244 30.2592 22.8243 30.2593 23.3033 30.4747L22.8243 30.2593C22.7054 30.5239 22.8234 30.8347 23.0879 30.9537C23.3524 31.0726 23.6632 30.9547 23.7822 30.6902L23.7822 30.6902L23.7822 30.6901L23.7828 30.6889L23.7857 30.6825L23.7986 30.6545C23.8104 30.6292 23.8284 30.5909 23.8525 30.5406C23.9009 30.4399 23.9739 30.2915 24.071 30.1038C24.2651 29.7283 24.555 29.1965 24.9354 28.5768C25.6979 27.3347 26.8155 25.7531 28.2444 24.3687C30.2352 22.4399 33.2086 20.6498 34.8619 19.7265C35.7131 19.2511 35.7254 18.0006 34.879 17.5115C33.2273 16.5573 30.2423 14.7095 28.2444 12.7738C26.8155 11.3893 25.6979 9.8078 24.9354 8.56562C24.555 7.94597 24.2651 7.4142 24.071 7.03866C23.9739 6.85097 23.9009 6.70253 23.8525 6.60191C23.8382 6.57202 23.826 6.54636 23.816 6.52515C23.8092 6.51066 23.8034 6.49824 23.7986 6.48798L23.7857 6.45997L23.7828 6.45356L23.7822 6.45235L23.7822 6.4523L23.7822 6.45222L23.7821 6.45218C23.6631 6.18778 23.3524 6.06986 23.0879 6.18878C22.8234 6.30774 22.7054 6.6186 22.8243 6.88312L23.3024 6.66814C22.8243 6.88312 22.8244 6.88322 22.8244 6.88334L22.8246 6.88364L22.8249 6.8845L22.8262 6.8872L22.8304 6.89652L22.8461 6.93048C22.8597 6.95979 22.8796 7.00229 22.9059 7.05688C22.9584 7.16604 23.0359 7.32366 23.138 7.52107C23.3421 7.91572 23.6445 8.47026 24.0403 9.11507C24.8301 10.4018 26.0003 12.0619 27.5136 13.5281C29.2642 15.2243 31.7009 16.8293 33.4236 17.8712L1.52515 17.8712Z" fill="#E3E4FF"/>
</svg>
