<svg width="458" height="456" viewBox="0 0 458 456" fill="none" xmlns="http://www.w3.org/2000/svg">
<g opacity="0.2" clip-path="url(#clip0_229_44162)">
<path opacity="0.8" fill-rule="evenodd" clip-rule="evenodd" d="M228.236 3.11913C352.078 3.11914 452.473 103.565 452.473 227.472C452.473 351.379 352.078 451.825 228.236 451.825C104.394 451.825 3.99994 351.379 3.99995 227.472C3.99995 103.565 104.394 3.11913 228.236 3.11913ZM454.473 227.472C454.473 102.461 353.184 1.11914 228.236 1.11913C103.289 1.11913 1.99995 102.461 1.99995 227.472C1.99994 352.483 103.289 453.825 228.236 453.825C353.184 453.825 454.473 352.483 454.473 227.472ZM228.236 60.873C320.198 60.873 394.749 135.461 394.749 227.472C394.749 319.483 320.198 394.071 228.236 394.071C136.275 394.071 61.7239 319.483 61.7239 227.472C61.724 135.461 136.275 60.873 228.236 60.873ZM396.749 227.472C396.749 134.358 321.304 58.873 228.236 58.873C135.169 58.873 59.724 134.358 59.7239 227.472C59.7239 320.586 135.169 396.071 228.236 396.071C321.304 396.071 396.749 320.586 396.749 227.472ZM341.552 227.471C341.552 164.855 290.819 114.096 228.236 114.096C165.654 114.096 114.92 164.855 114.92 227.471C114.92 290.086 165.654 340.846 228.236 340.846C290.819 340.846 341.552 290.086 341.552 227.471ZM228.236 112.096C291.924 112.096 343.552 163.751 343.552 227.471C343.552 291.19 291.924 342.846 228.236 342.846C164.549 342.846 112.92 291.19 112.92 227.471C112.92 163.751 164.549 112.096 228.236 112.096ZM228.236 168.453C260.814 168.453 287.224 194.876 287.224 227.472C287.224 260.067 260.814 286.49 228.236 286.49C195.659 286.49 169.249 260.067 169.249 227.472C169.249 194.876 195.659 168.453 228.236 168.453ZM289.224 227.472C289.224 193.773 261.919 166.453 228.236 166.453C194.553 166.453 167.249 193.773 167.249 227.472C167.249 261.171 194.553 288.49 228.236 288.49C261.919 288.49 289.224 261.171 289.224 227.472Z" fill="url(#paint0_linear_229_44162)"/>
</g>
<defs>
<linearGradient id="paint0_linear_229_44162" x1="454.473" y1="-16.4007" x2="1.89526" y2="227.277" gradientUnits="userSpaceOnUse">
<stop stop-color="#E9E8F6" stop-opacity="0.6"/>
<stop offset="1" stop-color="#E9E8F6" stop-opacity="0.4"/>
</linearGradient>
<clipPath id="clip0_229_44162">
<rect width="453" height="453" fill="white" transform="translate(455 1) rotate(90)"/>
</clipPath>
</defs>
</svg>
