<svg width="73" height="72" viewBox="0 0 73 72" fill="none" xmlns="http://www.w3.org/2000/svg">
<g clip-path="url(#clip0_663_86511)">
<path fill-rule="evenodd" clip-rule="evenodd" d="M0 0.568373V36.5125V72.4536C0 72.7117 0 72.8413 0.0648323 72.9065C0.130295 72.9723 0.261859 72.9723 0.526266 72.9723H0.526357H6.61529H6.61538C6.88653 72.9723 7.02199 72.9723 7.08966 72.9045C7.15722 72.8369 7.15722 72.7018 7.15722 72.4319L7.15739 69.0106V69.0105V69.0103C7.15782 63.3094 7.15825 57.6099 7.14787 51.9083C7.14787 51.5263 7.25688 51.4331 7.63063 51.4362C9.518 51.4502 11.4036 51.4485 13.2901 51.4467C13.919 51.4461 14.548 51.4455 15.1772 51.4455C15.6911 51.4455 15.6911 51.4455 15.6911 51.9456L15.6912 55.3721V55.3723V55.3725C15.6917 61.084 15.6921 66.7942 15.6817 72.5064C15.6817 72.876 15.7689 72.9878 16.1551 72.9847C18.2356 72.963 20.313 72.9661 22.3936 72.9816C22.7455 72.9847 22.8545 72.8977 22.8545 72.5313C22.8452 49.141 22.8452 25.7476 22.8452 2.35735C22.8452 2.18342 22.842 2.00639 22.8078 1.83867C22.5586 0.649126 21.7021 0 20.3691 0H0.573076C0 0 0 0.00310586 0 0.568373ZM7.15799 16.4279V16.4276V16.4273C7.1576 15.8348 7.15722 15.2425 7.15722 14.6504C7.15722 14.1292 7.15752 13.6081 7.15783 13.087C7.15891 11.2632 7.15998 9.43939 7.14787 7.61558C7.14787 7.27393 7.24131 7.16834 7.58702 7.17144C10.1378 7.18386 12.6918 7.18076 15.2426 7.17144C15.5665 7.16834 15.6973 7.23356 15.6973 7.60005C15.6848 12.3303 15.6848 17.0574 15.6942 21.7876C15.6942 22.0951 15.607 22.1883 15.2955 22.1883C12.7198 22.1759 10.1409 22.1759 7.56522 22.1883C7.22885 22.1914 7.14787 22.0827 7.15099 21.7628C7.16033 19.9854 7.15916 18.2062 7.15799 16.4279ZM15.6872 35.0521C15.6876 35.6383 15.6879 36.2245 15.6879 36.8107C15.6879 37.3346 15.6876 37.8584 15.6873 38.3823V38.3824V38.3825C15.6863 40.2158 15.6852 42.0487 15.6973 43.8797C15.6973 44.2306 15.5883 44.3176 15.2519 44.3145C12.7011 44.302 10.1503 44.302 7.59948 44.3145C7.27557 44.3176 7.14787 44.2524 7.14787 43.889C7.16033 39.1743 7.16033 34.4596 7.14787 29.7449C7.14476 29.3939 7.25065 29.3069 7.59014 29.31C10.1409 29.3256 12.6918 29.3256 15.2426 29.31C15.6163 29.3069 15.6973 29.4281 15.6942 29.7759C15.6848 31.5346 15.686 33.2934 15.6872 35.0521ZM59.0929 53.5466C61.965 59.0252 64.8391 64.5075 67.7163 69.9971C67.75 69.9847 67.778 69.9748 67.8019 69.9667C67.8168 69.9617 67.83 69.9573 67.8421 69.9532C67.8736 69.9428 67.8969 69.935 67.9187 69.9257L68.7064 69.5153L69.1821 69.2673L69.1846 69.266C70.7241 68.4635 72.2633 67.6611 73.8083 66.8664C74.0872 66.723 74.0064 66.5713 73.9101 66.3905L73.8924 66.3571C72.529 63.7571 71.1663 61.1565 69.8036 58.5558L69.7968 58.5427L69.7899 58.5296C68.4273 55.9289 67.0646 53.3283 65.7012 50.7283C64.8313 49.0702 63.9616 47.4115 63.092 45.7527C61.1499 42.0484 59.2076 38.3435 57.2608 34.6431C57.1144 34.3667 57.1144 34.2145 57.3729 34.0002C60.5465 31.3611 63.7095 28.7135 66.8741 26.0644L66.8756 26.0632L66.8778 26.0614L68.8219 24.4341C69.3607 23.9806 69.8996 23.5272 70.4726 23.0458C69.7013 22.1275 68.9363 21.2185 68.1712 20.3095L68.1672 20.3047L68.1621 20.2986C67.401 19.3943 66.6398 18.4899 65.8725 17.5764C64.5514 18.6808 63.2349 19.7818 61.9206 20.8809L61.906 20.8931L61.8994 20.8986C59.1553 23.1934 56.4204 25.4805 53.6728 27.776C53.6038 27.6453 53.5395 27.5194 53.4773 27.3974L53.4773 27.3973L53.4772 27.3971C53.3459 27.1397 53.2236 26.9 53.0842 26.6703C52.863 26.3038 52.7945 25.9249 52.7945 25.5025C52.8038 22.9339 52.8027 20.3636 52.8015 17.7941V17.7916V17.7913V17.791C52.8011 16.9346 52.8007 16.0783 52.8007 15.2221C52.8007 13.6443 51.9224 12.7467 50.334 12.7436C46.9858 12.7385 43.6377 12.7381 40.2895 12.7377H40.2864C37.6089 12.7374 34.9315 12.7371 32.2541 12.7343C31.9115 12.7343 31.8087 12.8368 31.8118 13.1816C31.8232 14.6813 31.8213 16.1794 31.8195 17.6783C31.8188 18.2405 31.8181 18.8028 31.8181 19.3653V19.3654C31.8181 19.6405 31.8181 19.7779 31.8868 19.8465C31.9554 19.9151 32.0924 19.9151 32.3662 19.9151H45.03C45.0673 19.9151 45.1047 19.9158 45.1421 19.9165C45.2168 19.9178 45.2916 19.9192 45.3663 19.9151C45.5781 19.9058 45.6591 20.0082 45.6435 20.2101C45.6394 20.2847 45.6407 20.3592 45.6421 20.4338C45.6428 20.471 45.6435 20.5083 45.6435 20.5456V72.4694C45.6435 72.9757 45.6466 72.9757 46.145 72.9757C46.822 72.9757 47.4986 72.976 48.1752 72.9763C49.5279 72.977 50.8802 72.9777 52.2339 72.9757C52.3028 72.9757 52.3634 72.9766 52.4167 72.9775C52.6053 72.9804 52.7022 72.982 52.7516 72.9343C52.8037 72.884 52.803 72.7788 52.8014 72.5626C52.8011 72.5212 52.8007 72.4758 52.8007 72.4259V42.0319V41.6623H52.863C54.939 45.6227 57.0154 49.5837 59.0929 53.5466ZM35.4529 32.652H34.9888H27.6322C27.1215 32.652 27.1215 32.6489 27.1215 32.1364C27.1215 31.624 27.1218 31.1117 27.1222 30.5995V30.5992C27.1234 29.0628 27.1246 27.5272 27.1152 25.9899C27.1121 25.6452 27.1837 25.5241 27.5606 25.5241C30.7562 25.5323 33.9519 25.5323 37.1475 25.5323C38.7451 25.5323 40.3428 25.5323 41.9404 25.5334C43.261 25.5334 44.3075 26.7757 43.9992 28.0491C43.5498 29.9121 43.0736 31.7697 42.5977 33.626C42.4468 34.2146 42.296 34.803 42.146 35.3914C40.1513 43.2009 38.1545 51.0082 36.1573 58.8169L34.9358 63.5926C34.4126 65.6425 33.8862 67.6924 33.3599 69.7422C33.2322 70.2454 33.2291 70.2454 32.7463 70.1243C31.7454 69.8771 30.7445 69.6291 29.7436 69.3811C28.7449 69.1337 27.7463 68.8863 26.7477 68.6397L26.7434 68.6386C26.2774 68.5216 26.2716 68.5202 26.3958 68.0464C26.9222 65.9964 27.4501 63.9472 27.9781 61.898C28.5059 59.849 29.0338 57.8001 29.5601 55.7503C30.5302 51.9812 31.5003 48.2128 32.4704 44.4445L32.4847 44.3891L32.4992 44.3326C33.4692 40.5646 34.4392 36.7966 35.4092 33.0278C35.4168 32.9764 35.4222 32.9243 35.4282 32.8657L35.4283 32.8653L35.4283 32.8652C35.4346 32.8035 35.4417 32.7347 35.4529 32.652ZM37.1066 7.09111H49.353C53.4611 7.09111 57.5692 7.09111 61.6772 7.09421C62.1756 7.09421 62.1818 7.088 62.1818 6.60038C62.1818 6.18852 62.1823 5.77667 62.1828 5.36488C62.1841 4.3358 62.1854 3.30717 62.1787 2.28013C62.1693 0.994297 61.2692 0.0904909 59.9923 0.0904909C57.4414 0.0894556 54.8902 0.0891105 52.3389 0.0887654C47.2364 0.0880752 42.1334 0.087385 37.0319 0.0811733C36.6488 0.0811733 36.5398 0.205408 36.5429 0.575006C36.5522 2.06359 36.5511 3.55392 36.5499 5.04337C36.5495 5.53973 36.5491 6.03599 36.5491 6.53205C36.5491 7.09111 36.5522 7.09111 37.1066 7.09111Z" fill="white"/>
</g>
<defs>
<clipPath id="clip0_663_86511">
<rect width="73" height="72" fill="white"/>
</clipPath>
</defs>
</svg>
