<svg width="49" height="48" viewBox="0 0 49 48" fill="none" xmlns="http://www.w3.org/2000/svg">
<g clip-path="url(#clip0_70_1604)">
<path fill-rule="evenodd" clip-rule="evenodd" d="M36.945 1.64399H12.6185C6.98918 1.64399 2.42573 6.20744 2.42573 11.8367V36.1633C2.42573 41.7926 6.98918 46.356 12.6185 46.356H36.945C42.5743 46.356 47.1377 41.7926 47.1377 36.1633V11.8367C47.1377 6.20744 42.5743 1.64399 36.945 1.64399ZM12.6185 0C6.08123 0 0.781738 5.29949 0.781738 11.8367V36.1633C0.781738 42.7005 6.08123 48 12.6185 48H36.945C43.4823 48 48.7817 42.7005 48.7817 36.1633V11.8367C48.7817 5.29949 43.4823 0 36.945 0H12.6185Z" fill="white"/>
<path fill-rule="evenodd" clip-rule="evenodd" d="M24.7817 1.64399C25.2399 1.64399 25.9146 1.90813 26.7517 2.92865C27.5791 3.93739 28.3975 5.49651 29.1163 7.56829C30.5485 11.6963 31.4643 17.5058 31.4643 24C31.4643 30.4942 30.5485 36.3037 29.1163 40.4317C28.3975 42.5035 27.5791 44.0626 26.7517 45.0713C25.9146 46.0919 25.2399 46.356 24.7817 46.356C24.3236 46.356 23.6488 46.0919 22.8118 45.0713C21.9843 44.0626 21.1659 42.5035 20.4472 40.4317C19.015 36.3037 18.0992 30.4942 18.0992 24C18.0992 17.5058 19.015 11.6963 20.4472 7.56829C21.1659 5.49651 21.9843 3.93739 22.8118 2.92865C23.6488 1.90813 24.3236 1.64399 24.7817 1.64399ZM32.8287 17.8099C33.0111 19.7847 33.1083 21.8596 33.1083 24C33.1083 26.1404 33.0111 28.2153 32.8287 30.1901C32.9499 30.1747 33.0706 30.159 33.1908 30.1429L33.4086 31.7724C33.1579 31.8059 32.9051 31.838 32.6504 31.8687C31.5203 41.2588 28.4242 48 24.7817 48C21.1393 48 18.0431 41.2588 16.913 31.8687C16.6583 31.838 16.4056 31.8059 16.1549 31.7724L16.3727 30.1429C16.4929 30.159 16.6136 30.1747 16.7348 30.1901C16.5524 28.2153 16.4552 26.1404 16.4552 24C16.4552 21.8596 16.5524 19.7847 16.7348 17.8099C16.6136 17.8253 16.4929 17.841 16.3727 17.8571L16.1549 16.2276C16.4056 16.1941 16.6583 16.162 16.913 16.1313C18.0431 6.74124 21.1393 0 24.7817 0C28.4242 0 31.5203 6.74124 32.6504 16.1313C32.9051 16.162 33.1579 16.1941 33.4086 16.2276L33.1908 17.8571C33.0706 17.841 32.9499 17.8253 32.8287 17.8099ZM47.0658 24.4356L48.6291 24.9443C48.7299 24.6343 48.7817 24.3193 48.7817 24C48.7817 23.6807 48.7299 23.3656 48.6291 23.0557L47.0658 23.5643C47.1157 23.7178 47.1377 23.8614 47.1377 24C47.1377 24.1385 47.1157 24.2822 47.0658 24.4356ZM46.1529 20.2071C46.7332 20.5999 47.2262 21.0108 47.623 21.4367L46.4202 22.5573C46.1246 22.2401 45.7318 21.9073 45.2314 21.5686L46.1529 20.2071ZM43.756 20.718L44.489 19.2465C43.9464 18.9762 43.3588 18.7177 42.73 18.4721L42.132 20.0035C42.7203 20.2332 43.2624 20.4721 43.756 20.718ZM40.4199 19.403L40.914 17.835C40.3244 17.6492 39.7079 17.4734 39.067 17.3084L38.6572 18.9005C39.2717 19.0587 39.8599 19.2265 40.4199 19.403ZM36.8568 18.4811L37.1948 16.8722C36.583 16.7437 35.9534 16.6244 35.3074 16.5149L35.0326 18.1357C35.6582 18.2418 36.2668 18.3571 36.8568 18.4811ZM29.4673 17.48L29.5828 15.8401C28.9524 15.7957 28.313 15.7599 27.6657 15.733L27.5975 17.3755C28.2291 17.4018 28.8527 17.4367 29.4673 17.48ZM25.7215 17.3239L25.744 15.68C25.4248 15.6757 25.104 15.6735 24.7817 15.6735C24.4595 15.6735 24.1387 15.6757 23.8195 15.68L23.842 17.3239C24.1537 17.3196 24.467 17.3175 24.7817 17.3175C25.0965 17.3175 25.4098 17.3196 25.7215 17.3239ZM21.966 17.3755L21.8978 15.733C21.2505 15.7599 20.6111 15.7957 19.9807 15.8401L20.0962 17.48C20.7108 17.4367 21.3344 17.4018 21.966 17.3755ZM14.5309 18.1357L14.256 16.5149C13.6101 16.6244 12.9805 16.7437 12.3687 16.8722L12.7067 18.4811C13.2967 18.3571 13.9053 18.2418 14.5309 18.1357ZM10.9063 18.9005L10.4965 17.3084C9.85553 17.4734 9.2391 17.6492 8.64943 17.835L9.14359 19.403C9.70358 19.2265 10.2918 19.0587 10.9063 18.9005ZM7.43149 20.0035L6.83345 18.4721C6.20464 18.7177 5.61707 18.9762 5.0745 19.2465L5.80745 20.718C6.30112 20.4721 6.84319 20.2332 7.43149 20.0035ZM1.94047 21.4367C2.33725 21.0108 2.83025 20.5999 3.41058 20.2071L4.33208 21.5686C3.83165 21.9073 3.43889 22.2401 3.14333 22.5573L1.94047 21.4367ZM0.781738 24C0.781738 23.6807 0.833534 23.3656 0.93437 23.0557L2.4977 23.5643C2.44777 23.7178 2.42573 23.8614 2.42573 24C2.42573 24.1385 2.44777 24.2822 2.4977 24.4356L0.93437 24.9443C0.833534 24.6343 0.781738 24.3193 0.781738 24ZM3.14333 25.4426L1.94047 26.5633C2.33725 26.9892 2.83025 27.4001 3.41057 27.7929L4.33208 26.4314C3.83165 26.0927 3.43889 25.7599 3.14333 25.4426ZM5.80745 27.282L5.0745 28.7535C5.61707 29.0238 6.20465 29.2823 6.83345 29.5279L7.43149 27.9965C6.84319 27.7668 6.30112 27.5278 5.80745 27.282ZM9.14359 28.597L8.64943 30.1649C9.23909 30.3508 9.85553 30.5266 10.4965 30.6915L10.9063 29.0994C10.2918 28.9413 9.70358 28.7735 9.14359 28.597ZM14.256 31.4851C13.6101 31.3756 12.9805 31.2563 12.3687 31.1278L12.7067 29.5189C13.2967 29.6428 13.9053 29.7582 14.5309 29.8643L14.256 31.4851ZM20.0962 30.52L19.9807 32.1599C20.6111 32.2043 21.2505 32.2401 21.8978 32.267L21.966 30.6245C21.3344 30.5982 20.7108 30.5632 20.0962 30.52ZM23.842 30.6761L23.8195 32.32C24.1387 32.3243 24.4595 32.3265 24.7817 32.3265C25.104 32.3265 25.4248 32.3243 25.744 32.32L25.7215 30.6761C25.4098 30.6804 25.0965 30.6825 24.7817 30.6825C24.467 30.6825 24.1537 30.6804 23.842 30.6761ZM27.5975 30.6245L27.6657 32.267C28.313 32.2401 28.9524 32.2043 29.5828 32.1599L29.4672 30.52C28.8527 30.5632 28.2291 30.5982 27.5975 30.6245ZM35.0326 29.8643L35.3074 31.4851C35.9534 31.3756 36.583 31.2563 37.1948 31.1278L36.8568 29.5189C36.2668 29.6428 35.6582 29.7582 35.0326 29.8643ZM38.6572 29.0994L39.067 30.6915C39.7079 30.5266 40.3244 30.3508 40.914 30.1649L40.4199 28.597C39.8599 28.7735 39.2717 28.9413 38.6572 29.0994ZM42.132 27.9965L42.73 29.5279C43.3588 29.2823 43.9464 29.0238 44.489 28.7535L43.756 27.282C43.2624 27.5278 42.7203 27.7668 42.132 27.9965ZM47.623 26.5633C47.2262 26.9892 46.7332 27.4001 46.1529 27.7929L45.2314 26.4314C45.7318 26.0927 46.1246 25.7599 46.4202 25.4426L47.623 26.5633Z" fill="white"/>
</g>
<defs>
<clipPath id="clip0_70_1604">
<rect width="48" height="48" fill="white" transform="translate(0.781738)"/>
</clipPath>
</defs>
</svg>
