<svg width="145" height="153" viewBox="0 0 145 153" fill="none" xmlns="http://www.w3.org/2000/svg">
<path fill-rule="evenodd" clip-rule="evenodd" d="M71 46L71 117.981C39.3846 117.185 14 91.3072 14 59.5C14 27.1913 40.1913 1 72.5 1C104.809 1 131 27.1913 131 59.5C131 91.6418 105.078 117.729 73 117.998L73 46C73 45.4477 72.5523 45 72 45C71.4477 45 71 45.4477 71 46ZM13 59.5C13 91.8595 38.8322 118.186 71 118.981V148.267C69.3835 145.49 66.8335 141.492 64.0675 138.629C61.7147 136.194 59.0528 134.313 56.992 133.044C55.9589 132.408 55.0702 131.922 54.4374 131.594C54.1208 131.43 53.8677 131.305 53.6922 131.221C53.6425 131.197 53.599 131.176 53.562 131.159C53.5336 131.145 53.5091 131.134 53.4885 131.124L53.4333 131.099L53.418 131.092L53.4135 131.089L53.412 131.089L53.4115 131.089C53.4113 131.088 53.4111 131.088 53 132L53.4111 131.088C52.9076 130.861 52.3154 131.085 52.0884 131.589C51.8614 132.092 52.0854 132.684 52.5887 132.911L52.5889 132.912L52.5904 132.912L52.6002 132.917L52.644 132.937C52.6837 132.956 52.7443 132.984 52.8239 133.022C52.9832 133.099 53.2187 133.215 53.5168 133.37C54.1132 133.679 54.9585 134.141 55.9437 134.748C57.9195 135.964 60.4318 137.744 62.6292 140.019C65.9949 143.502 69.0972 148.878 70.3999 151.278C71.0459 152.468 72.7699 152.485 73.4358 151.302C74.784 148.907 77.9944 143.513 81.3708 140.019C83.5682 137.744 86.0805 135.964 88.0563 134.748C89.0415 134.141 89.8868 133.679 90.4832 133.37C90.7813 133.215 91.0168 133.099 91.1761 133.022C91.2557 132.984 91.3163 132.956 91.356 132.937L91.3998 132.917L91.4096 132.912L91.4111 132.912L91.4113 132.911C91.9146 132.684 92.1386 132.092 91.9116 131.589C91.6846 131.085 91.0924 130.861 90.5889 131.088L91 132C90.5889 131.088 90.5887 131.088 90.5885 131.089L90.588 131.089L90.5865 131.089L90.582 131.092L90.5667 131.099L90.5115 131.124C90.4641 131.146 90.3956 131.178 90.3078 131.221C90.1323 131.305 89.8792 131.43 89.5627 131.594C88.9298 131.922 88.0411 132.408 87.008 133.044C84.9472 134.313 82.2853 136.194 79.9325 138.629C77.2281 141.428 74.6695 145.316 73 148.081V118.998C105.631 118.729 132 92.1941 132 59.5C132 26.6391 105.361 0 72.5 0C39.6391 0 13 26.6391 13 59.5Z" fill="#F3F5F9"/>
</svg>
