<svg width="56" height="62" viewBox="0 0 56 62" fill="none" xmlns="http://www.w3.org/2000/svg">
<g clip-path="url(#clip0_190_36143)">
<path fillRule="evenodd" clip-rule="evenodd" d="M18.4078 31.3234C17.0991 31.3234 16.3134 32.7764 17.03 33.8715L34.9459 61.2521C35.5959 62.2454 37.0515 62.2454 37.7015 61.2521L55.6174 33.8715C56.334 32.7764 55.5483 31.3234 54.2396 31.3234L46.5119 31.3234C45.6025 31.3234 44.8653 30.5862 44.8653 29.6768L44.8654 1.64652C44.8654 0.737154 44.1282 -3.15174e-05 43.2188 -3.15969e-05L29.4269 -3.28026e-05C28.5176 -3.28821e-05 27.7804 0.737153 27.7804 1.64652L27.7804 29.6768C27.7804 30.5862 27.0432 31.3234 26.1338 31.3234L18.4078 31.3234Z" fill="#5F647C"/>
<path fillRule="evenodd" clip-rule="evenodd" d="M0.853356 20.5265C0.176183 20.5265 -0.230354 21.2784 0.14042 21.845L6.43511 31.4651C6.77144 31.9791 7.52465 31.9791 7.86098 31.4651L14.1557 21.845C14.5264 21.2784 14.1199 20.5265 13.4427 20.5265L11.2073 20.5265C10.7368 20.5265 10.3553 20.1451 10.3553 19.6746L10.3553 9.61689C10.3553 9.14634 9.97386 8.76489 9.50331 8.76489L4.79231 8.76489C4.32177 8.76489 3.94032 9.14634 3.94032 9.61689L3.94032 19.6746C3.94032 20.1451 3.55887 20.5265 3.08832 20.5265L0.853356 20.5265Z" fill="#D8DAE6"/>
</g>
<defs>
<clipPath id="clip0_190_36143">
<rect width="55.8889" height="61.9971" fill="white" transform="translate(55.8889 61.9971) rotate(-180)"/>
</clipPath>
</defs>
</svg>
