<svg width="74" height="74" viewBox="0 0 74 74" fill="none" xmlns="http://www.w3.org/2000/svg">
<g clip-path="url(#clip0_12_877)">
<path d="M74 37C74 16.65 57.35 0 37 0C16.65 0 0 16.65 0 37C0 55.5 13.4125 70.7625 30.9875 73.5375V47.6375H21.7375V37H30.9875V28.675C30.9875 19.425 36.5375 14.3375 44.8625 14.3375C49.025 14.3375 53.1875 15.2625 53.1875 15.2625V24.5125H48.5625C43.9375 24.5125 42.55 27.2875 42.55 30.0625V37H52.725L50.875 47.6375H42.0875V74C60.5875 71.225 74 55.5 74 37Z" fill="white"/>
</g>
<defs>
<clipPath id="clip0_12_877">
<rect width="74" height="74" fill="white"/>
</clipPath>
</defs>
</svg>
