<svg width="34" height="35" viewBox="0 0 34 35" fill="none" xmlns="http://www.w3.org/2000/svg">
<path d="M17 3.50049C9.26801 3.50049 3 9.7685 3 17.5005C3 25.2325 9.26801 31.5005 17 31.5005C24.732 31.5005 31 25.2325 31 17.5005C31 9.7685 24.732 3.50049 17 3.50049ZM11.75 16.6255C10.7835 16.6255 10 15.842 10 14.8755C10 13.909 10.7835 13.1255 11.75 13.1255C12.7165 13.1255 13.5 13.909 13.5 14.8755C13.5 15.842 12.7165 16.6255 11.75 16.6255ZM22.25 16.6255C21.2835 16.6255 20.5 15.842 20.5 14.8755C20.5 13.909 21.2835 13.1255 22.25 13.1255C23.2165 13.1255 24 13.909 24 14.8755C24 15.842 23.2165 16.6255 22.25 16.6255ZM13.223 20.5411C13.3821 20.2698 13.6847 20.1255 13.9992 20.1255H20.0008C20.3153 20.1255 20.6179 20.2698 20.777 20.5411C21.1571 21.1895 21.375 21.9446 21.375 22.7505C21.375 25.1667 19.4162 27.1255 17 27.1255C14.5838 27.1255 12.625 25.1667 12.625 22.7505C12.625 21.9446 12.8429 21.1895 13.223 20.5411Z" fill="#22233D"/>
</svg>
