<svg width="370" height="385" viewBox="0 0 370 385" fill="none" xmlns="http://www.w3.org/2000/svg">
<g clip-path="url(#clip0_71_1618)">
<path opacity="0.3" fill-rule="evenodd" clip-rule="evenodd" d="M262.775 40.9043C245.083 57.7656 215.741 48.2318 211.339 24.1916C205.987 -5.03393 164.096 -5.03394 158.744 24.1916C154.341 48.2318 124.999 57.7656 107.307 40.9043C85.7992 20.4062 51.9084 45.0293 64.7569 71.819C75.3258 93.8556 57.1914 118.815 32.9675 115.573C3.51849 111.632 -9.42664 151.473 16.7147 165.595C38.2178 177.21 38.2178 208.062 16.7147 219.678C-9.4267 233.799 3.51846 273.64 32.9675 269.699C57.1914 266.457 75.3258 291.417 64.7569 313.453C51.9084 340.243 85.7992 364.866 107.307 344.368C124.999 327.507 154.341 337.041 158.744 361.081C164.096 390.306 205.987 390.306 211.339 361.081C215.741 337.041 245.083 327.507 262.775 344.368C284.284 364.866 318.174 340.243 305.326 313.453C294.757 291.417 312.891 266.457 337.115 269.699C366.564 273.64 379.509 233.799 353.368 219.678C331.865 208.062 331.865 177.21 353.368 165.595C379.509 151.473 366.564 111.632 337.115 115.573C312.891 118.815 294.757 93.8556 305.326 71.819C318.174 45.0293 284.284 20.4062 262.775 40.9043ZM213.306 23.8314C207.554 -7.58051 162.529 -7.58051 156.776 23.8314C152.661 46.3072 125.228 55.2206 108.687 39.4566C85.57 17.4249 49.1439 43.8901 62.9536 72.6839C72.8347 93.2865 55.8804 116.622 33.2328 113.591C1.58075 109.355 -12.3328 152.177 15.7641 167.354C35.868 178.214 35.868 207.058 15.7641 217.918C-12.3328 233.096 1.58075 275.917 33.2328 271.681C55.8804 268.65 72.8347 291.986 62.9536 312.589C49.1439 341.382 85.57 367.848 108.687 345.816C125.228 330.052 152.661 338.965 156.776 361.441C162.529 392.853 207.554 392.853 213.306 361.441C217.422 338.965 244.855 330.052 261.396 345.816C284.513 367.848 320.939 341.382 307.129 312.589C297.248 291.986 314.202 268.65 336.85 271.681C368.502 275.917 382.416 233.096 354.319 217.918C334.215 207.058 334.215 178.214 354.319 167.354C382.416 152.177 368.502 109.355 336.85 113.591C314.202 116.622 297.248 93.2865 307.129 72.6839C320.939 43.8901 284.513 17.4249 261.396 39.4566C244.855 55.2206 217.422 46.3072 213.306 23.8314ZM230.204 192.636C230.204 217.579 209.984 237.799 185.041 237.799C160.098 237.799 139.878 217.579 139.878 192.636C139.878 167.693 160.098 147.473 185.041 147.473C209.984 147.473 230.204 167.693 230.204 192.636ZM232.204 192.636C232.204 218.684 211.088 239.799 185.041 239.799C158.994 239.799 137.878 218.684 137.878 192.636C137.878 166.589 158.994 145.473 185.041 145.473C211.088 145.473 232.204 166.589 232.204 192.636Z" fill="white"/>
</g>
<defs>
<clipPath id="clip0_71_1618">
<rect width="368.886" height="384.728" fill="white" transform="translate(0.598267 0.272461)"/>
</clipPath>
</defs>
</svg>
