<svg width="74" height="74" viewBox="0 0 74 74" fill="none" xmlns="http://www.w3.org/2000/svg">
<g clip-path="url(#clip0_12_875)">
<path fill-rule="evenodd" clip-rule="evenodd" d="M63.325 10.7094C56.3407 3.725 47.0281 0 37.25 0C16.7625 0 0 16.7625 0 37.25C0 43.7687 1.86253 50.2875 5.1219 55.875L0 74.5L19.5563 69.3781C25.1438 72.1719 31.1969 74.0344 37.25 74.0344C57.7375 74.0344 74.5 57.2719 74.5 36.7844C74.5 27.0062 70.3094 17.6938 63.325 10.7094ZM37.25 67.9813C31.6625 67.9813 26.075 66.5844 21.4188 63.7906L20.4875 63.325L8.84685 66.5844L12.1063 55.4094L11.175 54.0125C7.9156 48.8906 6.51872 43.3031 6.51872 37.7156C6.51872 20.9531 20.4875 6.98438 37.25 6.98438C45.6312 6.98438 53.0813 10.2437 59.1344 15.8312C65.1876 21.8844 67.9813 29.3344 67.9813 37.7156C67.9813 54.0125 54.4781 67.9813 37.25 67.9813ZM54.0125 44.7C53.0813 44.2344 48.4251 41.9062 47.4938 41.9062C46.5626 41.4406 46.0968 41.4406 45.6312 42.3719C45.1656 43.3031 43.3032 45.1656 42.8376 46.0969C42.3719 46.5625 41.9062 46.5625 40.9749 46.5625C40.0437 46.0969 37.2501 45.1656 33.5251 41.9062C30.7313 39.5781 28.8688 36.3188 28.4032 35.3875C27.9375 34.4563 28.4032 33.9906 28.8688 33.525C29.3344 33.0594 29.8 32.5937 30.2656 32.1281C30.7313 31.6625 30.7313 31.1969 31.1969 30.7313C31.6626 30.2656 31.1969 29.8 31.1969 29.3344C31.1969 28.8688 29.3344 24.2125 28.4032 22.35C27.9375 20.9531 27.0063 20.9531 26.5407 20.9531C26.0751 20.9531 25.6093 20.9531 24.6781 20.9531C24.2124 20.9531 23.2812 20.9531 22.3499 21.8844C21.4187 22.8156 19.0907 25.1437 19.0907 29.8C19.0907 34.4562 22.35 38.6469 22.8156 39.5781C23.2812 40.0438 29.3343 49.8219 38.6468 53.5469C46.5624 56.8062 47.9594 55.875 49.8219 55.875C51.6844 55.875 55.4094 53.5469 55.875 51.6844C56.8063 49.3563 56.8063 47.4938 56.3407 47.4938C55.875 45.1656 54.9438 45.1656 54.0125 44.7Z" fill="white"/>
</g>
<defs>
<clipPath id="clip0_12_875">
<rect width="74" height="74" fill="white"/>
</clipPath>
</defs>
</svg>
