<svg width="74" height="74" viewBox="0 0 74 74" fill="none" xmlns="http://www.w3.org/2000/svg">
<path d="M61.6045 14.4272C57.0792 12.3508 52.2265 10.821 47.1527 9.94484C47.0603 9.92793 46.968 9.97019 46.9204 10.0547C46.2963 11.1647 45.605 12.6128 45.1209 13.751C39.6637 12.934 34.2345 12.934 28.8892 13.751C28.405 12.5875 27.6886 11.1647 27.0617 10.0547C27.0141 9.97301 26.9218 9.93075 26.8294 9.94484C21.7584 10.8182 16.9057 12.348 12.3776 14.4272C12.3384 14.4441 12.3048 14.4723 12.2825 14.5089C3.07795 28.2603 0.556439 41.6737 1.79341 54.9208C1.799 54.9856 1.83539 55.0476 1.88576 55.087C7.95866 59.5468 13.8413 62.2543 19.6147 64.0489C19.7071 64.0771 19.805 64.0433 19.8638 63.9672C21.2295 62.1022 22.4469 60.1357 23.4907 58.0677C23.5523 57.9466 23.4935 57.8029 23.3676 57.755C21.4366 57.0225 19.5979 56.1294 17.8292 55.1152C17.6893 55.0335 17.6781 54.8334 17.8068 54.7376C18.179 54.4587 18.5513 54.1685 18.9067 53.8755C18.971 53.822 19.0606 53.8107 19.1362 53.8445C30.7558 59.1496 43.3354 59.1496 54.8179 53.8445C54.8935 53.8079 54.9831 53.8192 55.0502 53.8727C55.4057 54.1657 55.7779 54.4587 56.1529 54.7376C56.2816 54.8334 56.2732 55.0335 56.1333 55.1152C54.3646 56.1491 52.5259 57.0225 50.5921 57.7522C50.4662 57.8001 50.4102 57.9466 50.4718 58.0677C51.538 60.1328 52.7554 62.0993 54.0959 63.9644C54.1519 64.0433 54.2526 64.0771 54.345 64.0489C60.1464 62.2543 66.029 59.5468 72.1019 55.087C72.1551 55.0476 72.1887 54.9884 72.1943 54.9236C73.6747 39.6085 69.7147 26.3051 61.6968 14.5117C61.6772 14.4723 61.6437 14.4441 61.6045 14.4272ZM25.2259 46.8547C21.7276 46.8547 18.8451 43.643 18.8451 39.6987C18.8451 35.7544 21.6717 32.5427 25.2259 32.5427C28.808 32.5427 31.6626 35.7826 31.6066 39.6987C31.6066 43.643 28.78 46.8547 25.2259 46.8547ZM48.8178 46.8547C45.3196 46.8547 42.4371 43.643 42.4371 39.6987C42.4371 35.7544 45.2636 32.5427 48.8178 32.5427C52.4 32.5427 55.2545 35.7826 55.1986 39.6987C55.1986 43.643 52.4 46.8547 48.8178 46.8547Z" fill="white"/>
</svg>
