<svg width="74" height="74" viewBox="0 0 74 74" fill="none" xmlns="http://www.w3.org/2000/svg">
<g clip-path="url(#clip0_12_868)">
<path fill-rule="evenodd" clip-rule="evenodd" d="M55.2493 6.87115L19.1789 7.11813C12.3876 7.16464 6.91989 12.7078 6.96639 19.4991L7.21151 55.2962C7.25801 62.0875 12.8011 67.5552 19.5924 67.5087L55.6628 67.2617C62.4541 67.2152 67.9218 61.6721 67.8753 54.8808L67.6302 19.0837C67.5837 12.2924 62.0406 6.82464 55.2493 6.87115ZM19.1321 0.286625C8.56791 0.358962 0.0625471 8.98162 0.134884 19.5458L0.38 55.3429C0.452337 65.9072 9.07496 74.4125 19.6392 74.3402L55.7096 74.0932C66.2738 74.0209 74.7792 65.3982 74.7068 54.834L74.4617 19.0369C74.3894 8.47266 65.7667 -0.0326993 55.2025 0.0396377L19.1321 0.286625ZM23.7588 37.4201C23.8104 44.966 29.9695 51.0412 37.5153 50.9896C45.0612 50.9379 51.1365 44.7789 51.0848 37.233C51.0331 29.6871 44.8741 23.6119 37.3282 23.6635C29.7823 23.7152 23.7071 29.8742 23.7588 37.4201ZM37.2814 16.832C25.9626 16.9095 16.8497 26.1481 16.9272 37.4669C17.0047 48.7857 26.2433 57.8986 37.5621 57.8211C48.8809 57.7436 57.9938 48.505 57.9163 37.1862C57.8388 25.8674 48.6003 16.7545 37.2814 16.832ZM57.7994 20.1074C59.6858 20.0945 61.2047 18.5548 61.1917 16.6683C61.1788 14.7818 59.6391 13.263 57.7526 13.2759C55.8661 13.2888 54.3473 14.8286 54.3602 16.7151C54.3731 18.6015 55.9129 20.1204 57.7994 20.1074Z" fill="white"/>
</g>
<defs>
<clipPath id="clip0_12_868">
<rect width="74" height="74" fill="white"/>
</clipPath>
</defs>
</svg>
