<svg width="34" height="36" viewBox="0 0 34 36" fill="none" xmlns="http://www.w3.org/2000/svg">
<path fill-rule="evenodd" clip-rule="evenodd" d="M30.7494 0.673828H3.03243C1.50167 0.673828 0.260742 1.90463 0.260742 3.42289V23.5827C0.260742 25.101 1.50167 26.3318 3.03243 26.3318H30.7494C32.2801 26.3318 33.521 25.101 33.521 23.5827V3.42289C33.521 1.90463 32.2801 0.673828 30.7494 0.673828ZM6.49782 33.1432C6.49782 32.1049 7.33954 31.2632 8.37786 31.2632H25.404C26.4423 31.2632 27.284 32.1049 27.284 33.1432C27.284 34.1815 26.4423 35.0232 25.404 35.0232H8.37786C7.33954 35.0232 6.49782 34.1815 6.49782 33.1432ZM22.8775 7.71737C23.5301 8.37 23.5301 9.42811 22.8775 10.0807L19.2551 13.7031L22.8376 17.2855C23.4902 17.9381 23.4902 18.9962 22.8376 19.6489C22.1849 20.3015 21.1268 20.3015 20.4742 19.6489L16.8918 16.0664L13.3085 19.6497C12.6559 20.3024 11.5977 20.3024 10.9451 19.6497C10.2925 18.9971 10.2925 17.939 10.9451 17.2864L14.5284 13.7031L10.9052 10.0799C10.2526 9.42723 10.2526 8.36912 10.9052 7.7165C11.5578 7.06388 12.6159 7.06388 13.2685 7.7165L16.8918 11.3397L20.5141 7.71737C21.1668 7.06475 22.2249 7.06475 22.8775 7.71737Z" fill="#211F3C"/>
</svg>
