<svg width="20" height="20" viewBox="0 0 20 20" fill="none" xmlns="http://www.w3.org/2000/svg">
<g clip-path="url(#clip0_12_1254)">
<path d="M0.971896 5.04895C0.971896 5.04895 2.72097 2.35074 5.48544 0.903197C8.2518 -0.544349 11.6573 -0.128085 13.8904 1.2754C16.1254 2.67888 16.878 3.86392 16.878 3.86392L18.8029 2.76701C18.8029 2.76701 19.2 2.57012 19.2 3.03045V9.91847C19.2 9.91847 19.2 10.5326 18.7349 10.3122C18.3453 10.1285 14.1173 7.72372 12.7861 6.96525C12.0562 6.639 12.6973 6.37367 12.6973 6.37367L14.556 5.31146C14.556 5.31146 13.4952 3.98391 11.9447 3.28076C10.2864 2.41637 8.73207 2.31324 6.82984 3.03232C5.58755 3.50109 4.1259 4.70206 3.07457 6.47399L0.971896 5.04895ZM18.2281 14.1514C18.2281 14.1514 16.479 16.8487 13.7146 18.2972C10.9501 19.7447 7.54271 19.3275 5.30959 17.924C3.07457 16.5206 2.322 15.3355 2.322 15.3355L0.397075 16.4324C0.397075 16.4324 0 16.6293 0 16.1699V9.28095C0 9.28095 1.05221e-07 8.66781 0.465148 8.88719C0.854671 9.07095 5.08269 11.4757 6.41387 12.2342C7.14375 12.5604 6.50274 12.8267 6.50274 12.8267L4.644 13.888C4.644 13.888 5.70478 15.2155 7.2553 15.9187C8.91362 16.7831 10.4679 16.8862 12.3702 16.1671C13.6124 15.6983 15.0741 14.4983 16.1254 12.7254L18.2281 14.1514Z" fill="#5F647C"/>
</g>
<defs>
<clipPath id="clip0_12_1254">
<rect width="19.2" height="19.2" fill="white"/>
</clipPath>
</defs>
</svg>
