<svg width="689" height="689" viewBox="0 0 689 689" fill="none" xmlns="http://www.w3.org/2000/svg">
<g clip-path="url(#clip0_51_1112)">
<path opacity="0.4" fillRule="evenodd" clip-rule="evenodd" d="M688.987 347.521L687.987 347.512C687.996 346.509 688 345.505 688 344.5C688 343.495 687.996 342.491 687.987 341.488L688.987 341.479C688.996 342.485 689 343.492 689 344.5C689 345.508 688.996 346.515 688.987 347.521ZM688.884 335.456L687.884 335.482C687.832 333.484 687.764 331.49 687.678 329.501L688.677 329.458C688.763 331.453 688.832 333.452 688.884 335.456ZM688.368 323.452L687.369 323.512C687.249 321.51 687.111 319.514 686.956 317.522L687.953 317.444C688.108 319.442 688.247 321.444 688.368 323.452ZM687.437 311.465L686.441 311.56C686.251 309.566 686.045 307.576 685.821 305.592L686.815 305.48C687.039 307.47 687.246 309.465 687.437 311.465ZM686.088 299.505L685.097 299.634C684.838 297.654 684.563 295.678 684.271 293.709L685.26 293.562C685.553 295.538 685.829 297.519 686.088 299.505ZM684.326 287.614L683.339 287.778C683.011 285.803 682.666 283.833 682.304 281.869L683.287 281.688C683.65 283.658 683.996 285.633 684.326 287.614ZM682.149 275.797C681.75 273.827 681.334 271.862 680.902 269.904L679.926 270.12C680.357 272.072 680.771 274.031 681.169 275.996L682.149 275.797ZM679.554 264.043L678.582 264.276C678.117 262.334 677.636 260.398 677.138 258.469L678.107 258.22C678.606 260.154 679.088 262.096 679.554 264.043ZM676.551 252.399L675.587 252.666C675.054 250.738 674.504 248.817 673.938 246.903L674.896 246.62C675.464 248.539 676.016 250.466 676.551 252.399ZM673.142 240.875L672.188 241.176C671.587 239.265 670.969 237.362 670.334 235.466L671.283 235.148C671.919 237.05 672.539 238.959 673.142 240.875ZM669.326 229.466C668.657 227.576 667.971 225.693 667.27 223.818L666.333 224.168C667.033 226.038 667.716 227.915 668.384 229.8L669.326 229.466ZM665.112 218.2L664.182 218.567C663.449 216.707 662.7 214.856 661.935 213.013L662.859 212.63C663.626 214.478 664.377 216.335 665.112 218.2ZM660.507 207.094L659.59 207.494C658.791 205.659 657.977 203.833 657.147 202.015L658.057 201.6C658.889 203.423 659.706 205.255 660.507 207.094ZM655.514 196.157L654.612 196.588C653.749 194.783 652.871 192.986 651.978 191.198L652.873 190.751C653.768 192.544 654.649 194.346 655.514 196.157ZM650.138 185.395L649.251 185.857C648.327 184.086 647.388 182.324 646.435 180.571L647.313 180.093C648.27 181.851 649.211 183.618 650.138 185.395ZM644.391 174.832L643.521 175.325C642.535 173.586 641.534 171.856 640.518 170.136L641.38 169.628C642.398 171.353 643.402 173.088 644.391 174.832ZM638.279 164.478L637.427 165.002C636.38 163.297 635.319 161.602 634.243 159.917L635.086 159.379C636.165 161.069 637.229 162.769 638.279 164.478ZM631.807 154.341L630.974 154.893C629.869 153.227 628.75 151.571 627.617 149.926L628.44 149.359C629.577 151.009 630.699 152.67 631.807 154.341ZM624.986 144.435L624.173 145.016C623.011 143.39 621.835 141.775 620.646 140.17L621.449 139.574C622.642 141.184 623.821 142.804 624.986 144.435ZM617.826 134.774L617.033 135.383C615.815 133.798 614.583 132.224 613.338 130.661L614.121 130.038C615.369 131.605 616.604 133.184 617.826 134.774ZM610.335 125.368L609.563 126.005C608.291 124.463 607.005 122.932 605.706 121.412L606.466 120.763C607.769 122.286 609.058 123.822 610.335 125.368ZM602.519 116.226L601.771 116.889C600.446 115.393 599.108 113.908 597.758 112.435L598.495 111.759C599.849 113.236 601.191 114.725 602.519 116.226ZM594.393 107.362L593.667 108.05C592.291 106.601 590.903 105.163 589.502 103.738L590.215 103.037C591.62 104.466 593.013 105.908 594.393 107.362ZM585.963 98.7851L585.262 99.4983C583.837 98.0974 582.399 96.7088 580.95 95.3328L581.638 94.6075C583.092 95.9875 584.534 97.3801 585.963 98.7851ZM577.241 90.5053L576.565 91.2424C575.092 89.892 573.607 88.5542 572.111 87.2294L572.774 86.4807C574.275 87.8094 575.764 89.151 577.241 90.5053ZM568.237 82.5338L567.588 83.2939C566.068 81.995 564.537 80.7092 562.995 79.4366L563.632 78.6653C565.178 79.9416 566.714 81.2312 568.237 82.5338ZM558.962 74.8794L558.339 75.6616C556.776 74.4166 555.202 73.185 553.617 71.9668L554.226 71.1739C555.816 72.3956 557.395 73.6308 558.962 74.8794ZM549.426 67.5509L548.83 68.3543C547.225 67.1649 545.61 65.9891 543.984 64.8272L544.565 64.0136C546.196 65.1789 547.816 66.358 549.426 67.5509ZM539.641 60.5596L539.074 61.3832C537.429 60.2501 535.773 59.131 534.107 58.0261L534.659 57.1927C536.33 58.3008 537.991 59.4232 539.641 60.5596ZM529.621 53.9139C527.931 52.8352 526.231 51.7709 524.522 50.7211L523.998 51.5732C525.703 52.62 527.398 53.6812 529.083 54.7567L529.621 53.9139ZM519.372 47.6204L518.864 48.4815C517.144 47.4662 515.414 46.4653 513.675 45.4792L514.168 44.6093C515.912 45.5983 517.647 46.602 519.372 47.6204ZM508.907 41.687L508.429 42.5654C506.676 41.6115 504.914 40.6726 503.143 39.7486L503.605 38.8619C505.382 39.7886 507.149 40.7304 508.907 41.687ZM498.249 36.1274L497.802 37.022C496.014 36.1288 494.217 35.2508 492.412 34.388L492.843 33.4857C494.654 34.351 496.456 35.2316 498.249 36.1274ZM487.4 30.9432L486.984 31.8529C485.167 31.0232 483.341 30.2089 481.506 29.4102L481.905 28.4933C483.745 29.2944 485.577 30.1111 487.4 30.9432ZM476.37 26.1408L475.987 27.0645C474.144 26.3001 472.293 25.5514 470.433 24.8183L470.8 23.888C472.665 24.6232 474.522 25.3742 476.37 26.1408ZM465.182 21.73L464.832 22.6666C462.962 21.9673 461.085 21.2838 459.2 20.6163L459.534 19.6737C461.424 20.3432 463.307 21.0287 465.182 21.73ZM453.851 17.7173L453.534 18.6656C451.638 18.0314 449.735 17.4133 447.824 16.8114L448.125 15.8576C450.041 16.4613 451.95 17.0812 453.851 17.7173ZM442.38 14.1035L442.097 15.0624C440.183 14.4963 438.262 13.9463 436.334 13.4128L436.601 12.449C438.534 12.9841 440.461 13.5357 442.38 14.1035ZM430.78 10.8932L430.53 11.8615C428.601 11.3641 426.666 10.883 424.724 10.4183L424.956 9.44577C426.904 9.91176 428.845 10.3943 430.78 10.8932ZM419.096 8.09787L418.88 9.07436C416.928 8.64336 414.969 8.22896 413.004 7.83134L413.202 6.85121C415.173 7.25 417.137 7.66561 419.096 8.09787ZM407.311 5.71259L407.13 6.69604C405.167 6.33426 403.197 5.98918 401.221 5.66096L401.385 4.67448C403.366 5.00366 405.342 5.34975 407.311 5.71259ZM395.438 3.73973C393.462 3.44693 391.481 3.17089 389.495 2.91178L389.365 3.90338C391.346 4.16174 393.321 4.43697 395.291 4.72893L395.438 3.73973ZM383.52 2.18536L383.408 3.17907C381.423 2.95538 379.434 2.7486 377.44 2.55887L377.534 1.56337C379.534 1.75365 381.53 1.96103 383.52 2.18536ZM371.556 1.04679L371.478 2.04379C369.486 1.88903 367.489 1.75127 365.488 1.63065L365.548 0.632459C367.555 0.753432 369.558 0.89159 371.556 1.04679ZM359.542 0.32248L359.499 1.32156C357.51 1.2361 355.516 1.16756 353.518 1.11608L353.544 0.116407C355.548 0.168039 357.547 0.236777 359.542 0.32248ZM347.521 0.0129679L347.512 1.01293C346.509 1.00432 345.505 1 344.5 1C343.495 1 342.491 1.00432 341.488 1.01293L341.479 0.01297C342.485 0.0043292 343.492 0 344.5 0C345.508 0 346.515 0.0043285 347.521 0.0129679ZM335.456 0.116413L335.482 1.11608C333.484 1.16757 331.49 1.23611 329.501 1.32157L329.458 0.322491C331.453 0.236786 333.452 0.168047 335.456 0.116413ZM323.452 0.632475L323.512 1.63066C321.51 1.75129 319.514 1.88905 317.522 2.04381L317.444 1.04681C319.442 0.89161 321.444 0.75345 323.452 0.632475ZM311.465 1.56339L311.56 2.5589C309.566 2.74863 307.576 2.95541 305.592 3.1791L305.48 2.18539C307.47 1.96106 309.465 1.75367 311.465 1.56339ZM299.505 2.91181L299.634 3.90341C297.654 4.16177 295.678 4.43701 293.709 4.72896L293.562 3.73977C295.538 3.44696 297.519 3.17093 299.505 2.91181ZM287.614 4.67452L287.778 5.661C285.803 5.98922 283.833 6.3343 281.869 6.69608L281.688 5.71263C283.658 5.34979 285.633 5.00371 287.614 4.67452ZM275.797 6.85126L275.996 7.83139C274.031 8.22901 272.072 8.6434 270.12 9.07441L269.904 8.09792C271.862 7.66565 273.827 7.25005 275.797 6.85126ZM264.043 9.44583L264.276 10.4184C262.334 10.883 260.398 11.3641 258.469 11.8616L258.22 10.8933C260.154 10.3943 262.096 9.91182 264.043 9.44583ZM252.399 12.4491L252.666 13.4129C250.738 13.9464 248.817 14.4963 246.903 15.0625L246.62 14.1035C248.539 13.5357 250.466 12.9842 252.399 12.4491ZM240.875 15.8577L241.176 16.8115C239.265 17.4134 237.362 18.0315 235.466 18.6657L235.148 17.7173C237.05 17.0813 238.959 16.4613 240.875 15.8577ZM229.466 19.6738L229.8 20.6164C227.915 21.2839 226.038 21.9674 224.168 22.6667L223.818 21.7301C225.693 21.0287 227.576 20.3432 229.466 19.6738ZM218.2 23.8881L218.567 24.8184C216.707 25.5514 214.856 26.3002 213.013 27.0646L212.63 26.1409C214.478 25.3742 216.335 24.6233 218.2 23.8881ZM207.094 28.4934L207.494 29.4102C205.659 30.209 203.833 31.0233 202.015 31.853L201.6 30.9433C203.423 30.1112 205.255 29.2945 207.094 28.4934ZM196.157 33.4858L196.588 34.3881C194.783 35.2508 192.986 36.1288 191.198 37.022L190.751 36.1274C192.544 35.2316 194.346 34.351 196.157 33.4858ZM185.395 38.862L185.857 39.7486C184.086 40.6726 182.324 41.6116 180.571 42.5654L180.093 41.687C181.851 40.7304 183.618 39.7887 185.395 38.862ZM174.832 44.6094L175.325 45.4793C173.586 46.4654 171.856 47.4662 170.136 48.4816L169.628 47.6204C171.353 46.6021 173.087 45.5983 174.832 44.6094ZM164.478 50.721L165.002 51.5732C163.297 52.62 161.602 53.6812 159.917 54.7567L159.379 53.9139C161.069 52.8352 162.769 51.7709 164.478 50.721ZM154.341 57.1927L154.893 58.0261C153.227 59.131 151.571 60.2501 149.926 61.3832L149.359 60.5595C151.009 59.4232 152.67 58.3008 154.341 57.1927ZM144.435 64.0136L145.016 64.8272C143.39 65.9891 141.775 67.1648 140.17 68.3542L139.574 67.5508C141.184 66.358 142.804 65.1789 144.435 64.0136ZM134.774 71.1739L135.383 71.9668C133.798 73.1849 132.224 74.4166 130.661 75.6616L130.038 74.8794C131.605 73.6308 133.184 72.3955 134.774 71.1739ZM125.368 78.6652L126.005 79.4365C124.463 80.7091 122.932 81.995 121.412 83.2938L120.763 82.5337C122.286 81.2311 123.822 79.9416 125.368 78.6652ZM116.226 86.4806L116.889 87.2293C115.393 88.5541 113.908 89.8919 112.435 91.2423L111.759 90.5052C113.236 89.1509 114.725 87.8093 116.226 86.4806ZM107.362 94.6074L108.05 95.3327C106.601 96.7087 105.163 98.0973 103.738 99.4982L103.037 98.785C104.466 97.38 105.908 95.9874 107.362 94.6074ZM98.7851 103.037L99.4983 103.738C98.0974 105.163 96.7088 106.601 95.3328 108.05L94.6075 107.362C95.9875 105.908 97.3801 104.466 98.7851 103.037ZM90.5053 111.759L91.2424 112.435C89.892 113.908 88.5542 115.393 87.2294 116.889L86.4807 116.226C87.8094 114.725 89.1509 113.236 90.5053 111.759ZM82.5338 120.763L83.2939 121.412C81.995 122.932 80.7092 124.463 79.4366 126.005L78.6653 125.368C79.9416 123.822 81.2312 122.286 82.5338 120.763ZM74.8794 130.038L75.6616 130.661C74.4166 132.224 73.185 133.798 71.9668 135.383L71.1739 134.774C72.3956 133.184 73.6308 131.605 74.8794 130.038ZM67.5509 139.574L68.3543 140.17C67.1649 141.775 65.9891 143.39 64.8272 145.016L64.0136 144.435C65.1789 142.804 66.358 141.184 67.5509 139.574ZM60.5596 149.359L61.3832 149.926C60.2501 151.571 59.131 153.227 58.0261 154.893L57.1927 154.341C58.3008 152.67 59.4232 151.009 60.5596 149.359ZM53.9139 159.379C52.8352 161.069 51.7709 162.769 50.721 164.478L51.5732 165.002C52.62 163.297 53.6812 161.602 54.7567 159.917L53.9139 159.379ZM47.6204 169.628L48.4815 170.136C47.4662 171.856 46.4653 173.586 45.4792 175.325L44.6093 174.832C45.5983 173.088 46.602 171.353 47.6204 169.628ZM41.687 180.093L42.5654 180.571C41.6115 182.324 40.6726 184.086 39.7486 185.857L38.8619 185.395C39.7886 183.618 40.7304 181.851 41.687 180.093ZM36.1274 190.751L37.022 191.198C36.1288 192.986 35.2508 194.783 34.388 196.588L33.4857 196.157C34.351 194.346 35.2316 192.544 36.1274 190.751ZM30.9432 201.6L31.8529 202.016C31.0232 203.833 30.2089 205.659 29.4102 207.494L28.4933 207.095C29.2944 205.255 30.1111 203.423 30.9432 201.6ZM26.1408 212.63L27.0645 213.013C26.3001 214.856 25.5514 216.707 24.8183 218.567L23.888 218.2C24.6232 216.335 25.3742 214.478 26.1408 212.63ZM21.73 223.818L22.6666 224.168C21.9673 226.038 21.2838 227.915 20.6163 229.8L19.6737 229.466C20.3432 227.576 21.0287 225.693 21.73 223.818ZM17.7173 235.149L18.6656 235.466C18.0314 237.362 17.4133 239.265 16.8114 241.176L15.8576 240.875C16.4613 238.959 17.0812 237.05 17.7173 235.149ZM14.1035 246.62L15.0624 246.903C14.4963 248.817 13.9463 250.738 13.4128 252.666L12.449 252.399C12.9841 250.466 13.5357 248.539 14.1035 246.62ZM10.8932 258.22L11.8615 258.47C11.3641 260.399 10.883 262.334 10.4183 264.276L9.44577 264.044C9.91176 262.096 10.3943 260.155 10.8932 258.22ZM8.09787 269.904L9.07436 270.12C8.64336 272.072 8.22896 274.031 7.83134 275.996L6.85121 275.798C7.25 273.827 7.6656 271.863 8.09787 269.904ZM5.71259 281.688L6.69604 281.87C6.33426 283.833 5.98918 285.803 5.66096 287.779L4.67448 287.615C5.00366 285.634 5.34975 283.658 5.71259 281.688ZM3.73973 293.562C3.44693 295.538 3.17089 297.519 2.91178 299.505L3.90338 299.635C4.16174 297.654 4.43697 295.679 4.72893 293.709L3.73973 293.562ZM2.18536 305.48L3.17907 305.592C2.95538 307.577 2.7486 309.566 2.55887 311.56L1.56337 311.466C1.75365 309.466 1.96103 307.47 2.18536 305.48ZM1.04679 317.444L2.04379 317.522C1.88903 319.514 1.75127 321.511 1.63065 323.512L0.632459 323.452C0.753432 321.445 0.89159 319.442 1.04679 317.444ZM0.32248 329.458L1.32156 329.501C1.2361 331.49 1.16756 333.484 1.11608 335.482L0.116407 335.456C0.168039 333.452 0.236777 331.453 0.32248 329.458ZM0.0129679 341.479C0.0043285 342.485 0 343.492 0 344.5C0 345.508 0.0043292 346.515 0.01297 347.521L1.01293 347.512C1.00432 346.509 1 345.505 1 344.5C1 343.495 1.00432 342.491 1.01293 341.488L0.0129679 341.479ZM0.116413 353.544L1.11608 353.518C1.16757 355.516 1.23611 357.51 1.32157 359.499L0.322491 359.542C0.236786 357.547 0.168047 355.548 0.116413 353.544ZM0.632476 365.548L1.63066 365.488C1.75129 367.49 1.88905 369.486 2.04381 371.478L1.04681 371.556C0.89161 369.558 0.75345 367.556 0.632476 365.548ZM1.56339 377.535L2.5589 377.44C2.74863 379.434 2.95541 381.424 3.1791 383.408L2.18539 383.52C1.96106 381.53 1.75367 379.535 1.56339 377.535ZM2.91181 389.495L3.90341 389.366C4.16177 391.346 4.43701 393.322 4.72896 395.291L3.73977 395.438C3.44696 393.462 3.17093 391.481 2.91181 389.495ZM4.67452 401.386L5.661 401.222C5.98922 403.197 6.3343 405.167 6.69608 407.131L5.71263 407.312C5.34979 405.342 5.00371 403.367 4.67452 401.386ZM6.85126 413.203L7.83139 413.004C8.22901 414.969 8.6434 416.928 9.07441 418.88L8.09792 419.096C7.66565 417.138 7.25005 415.173 6.85126 413.203ZM9.44583 424.957L10.4184 424.724C10.883 426.666 11.3641 428.602 11.8616 430.531L10.8933 430.78C10.3943 428.846 9.91182 426.904 9.44583 424.957ZM12.4491 436.601L13.4129 436.334C13.9464 438.262 14.4963 440.183 15.0625 442.097L14.1035 442.38C13.5357 440.461 12.9842 438.534 12.4491 436.601ZM15.8577 448.125L16.8115 447.824C17.4134 449.735 18.0315 451.638 18.6657 453.534L17.7173 453.852C17.0813 451.95 16.4613 450.041 15.8577 448.125ZM19.6738 459.534L20.6164 459.2C21.2839 461.085 21.9674 462.962 22.6667 464.832L21.7301 465.182C21.0287 463.307 20.3432 461.424 19.6738 459.534ZM23.8881 470.8L24.8184 470.433C25.5514 472.293 26.3002 474.144 27.0646 475.987L26.1409 476.37C25.3742 474.522 24.6233 472.665 23.8881 470.8ZM28.4934 481.906L29.4102 481.506C30.209 483.341 31.0233 485.167 31.853 486.985L30.9433 487.4C30.1112 485.577 29.2945 483.745 28.4934 481.906ZM33.4858 492.843L34.3881 492.412C35.2508 494.217 36.1288 496.014 37.022 497.802L36.1274 498.249C35.2316 496.456 34.351 494.654 33.4858 492.843ZM38.862 503.605L39.7486 503.143C40.6726 504.914 41.6116 506.676 42.5654 508.429L41.687 508.907C40.7304 507.149 39.7887 505.382 38.862 503.605ZM44.6094 514.168L45.4793 513.675C46.4654 515.414 47.4662 517.144 48.4816 518.864L47.6204 519.372C46.6021 517.647 45.5983 515.913 44.6094 514.168ZM50.7211 524.522L51.5732 523.998C52.62 525.703 53.6812 527.398 54.7567 529.083L53.9139 529.621C52.8352 527.931 51.7709 526.231 50.7211 524.522ZM57.1927 534.659L58.0261 534.107C59.131 535.773 60.2501 537.429 61.3832 539.074L60.5596 539.641C59.4232 537.991 58.3008 536.33 57.1927 534.659ZM64.0136 544.565L64.8272 543.984C65.9891 545.61 67.1648 547.225 68.3542 548.83L67.5508 549.426C66.358 547.816 65.1789 546.196 64.0136 544.565ZM71.1739 554.226L71.9668 553.617C73.1849 555.202 74.4166 556.776 75.6616 558.339L74.8794 558.962C73.6308 557.395 72.3955 555.816 71.1739 554.226ZM78.6653 563.632L79.4365 562.995C80.7091 564.537 81.995 566.068 83.2938 567.588L82.5337 568.237C81.2311 566.714 79.9416 565.178 78.6653 563.632ZM86.4806 572.774L87.2293 572.111C88.5541 573.607 89.8919 575.092 91.2423 576.565L90.5052 577.241C89.1509 575.764 87.8093 574.275 86.4806 572.774ZM94.6074 581.638L95.3327 580.95C96.7087 582.399 98.0973 583.837 99.4982 585.262L98.785 585.963C97.38 584.534 95.9874 583.092 94.6074 581.638ZM103.037 590.215L103.738 589.502C105.163 590.903 106.601 592.291 108.05 593.667L107.362 594.392C105.908 593.012 104.466 591.62 103.037 590.215ZM111.759 598.495L112.435 597.758C113.908 599.108 115.393 600.446 116.889 601.771L116.226 602.519C114.725 601.191 113.236 599.849 111.759 598.495ZM120.763 606.466L121.412 605.706C122.932 607.005 124.463 608.291 126.005 609.563L125.368 610.335C123.822 609.058 122.286 607.769 120.763 606.466ZM130.038 614.121L130.661 613.338C132.224 614.583 133.798 615.815 135.383 617.033L134.774 617.826C133.184 616.604 131.605 615.369 130.038 614.121ZM139.574 621.449L140.17 620.646C141.775 621.835 143.39 623.011 145.016 624.173L144.435 624.986C142.804 623.821 141.184 622.642 139.574 621.449ZM149.359 628.44L149.926 627.617C151.571 628.75 153.227 629.869 154.893 630.974L154.341 631.807C152.67 630.699 151.009 629.577 149.359 628.44ZM159.379 635.086C161.069 636.165 162.769 637.229 164.478 638.279L165.002 637.427C163.297 636.38 161.602 635.319 159.917 634.243L159.379 635.086ZM169.628 641.38L170.136 640.518C171.856 641.534 173.586 642.535 175.325 643.521L174.832 644.391C173.088 643.402 171.353 642.398 169.628 641.38ZM180.093 647.313L180.571 646.435C182.324 647.388 184.086 648.327 185.857 649.251L185.395 650.138C183.618 649.211 181.851 648.27 180.093 647.313ZM190.751 652.873L191.198 651.978C192.986 652.871 194.783 653.749 196.588 654.612L196.157 655.514C194.346 654.649 192.544 653.768 190.751 652.873ZM201.6 658.057L202.016 657.147C203.833 657.977 205.659 658.791 207.494 659.59L207.095 660.507C205.255 659.706 203.423 658.889 201.6 658.057ZM212.63 662.859L213.013 661.935C214.856 662.7 216.707 663.449 218.567 664.182L218.2 665.112C216.335 664.377 214.478 663.626 212.63 662.859ZM223.818 667.27L224.168 666.333C226.038 667.033 227.915 667.716 229.8 668.384L229.466 669.326C227.576 668.657 225.693 667.971 223.818 667.27ZM235.149 671.283L235.466 670.334C237.362 670.969 239.265 671.587 241.176 672.189L240.875 673.142C238.959 672.539 237.05 671.919 235.149 671.283ZM246.62 674.897L246.903 673.938C248.817 674.504 250.738 675.054 252.666 675.587L252.399 676.551C250.466 676.016 248.539 675.464 246.62 674.897ZM258.22 678.107L258.47 677.138C260.399 677.636 262.334 678.117 264.276 678.582L264.044 679.554C262.096 679.088 260.155 678.606 258.22 678.107ZM269.904 680.902L270.12 679.926C272.072 680.357 274.031 680.771 275.996 681.169L275.798 682.149C273.827 681.75 271.863 681.334 269.904 680.902ZM281.688 683.287L281.87 682.304C283.833 682.666 285.803 683.011 287.779 683.339L287.615 684.326C285.634 683.996 283.658 683.65 281.688 683.287ZM293.562 685.26L293.709 684.271C295.679 684.563 297.654 684.838 299.635 685.097L299.505 686.088C297.519 685.829 295.538 685.553 293.562 685.26ZM305.48 686.815L305.592 685.821C307.577 686.045 309.566 686.251 311.56 686.441L311.466 687.437C309.466 687.246 307.47 687.039 305.48 686.815ZM317.444 687.953L317.522 686.956C319.514 687.111 321.511 687.249 323.512 687.369L323.452 688.368C321.445 688.247 319.442 688.108 317.444 687.953ZM329.458 688.677L329.501 687.678C331.49 687.764 333.484 687.832 335.482 687.884L335.456 688.884C333.453 688.832 331.453 688.763 329.458 688.677ZM341.479 688.987L341.488 687.987C342.491 687.996 343.495 688 344.5 688C345.505 688 346.509 687.996 347.512 687.987L347.521 688.987C346.515 688.996 345.508 689 344.5 689C343.492 689 342.485 688.996 341.479 688.987ZM353.544 688.884L353.518 687.884C355.516 687.832 357.51 687.764 359.499 687.678L359.542 688.677C357.547 688.763 355.548 688.832 353.544 688.884ZM365.548 688.368L365.488 687.369C367.49 687.249 369.486 687.111 371.478 686.956L371.556 687.953C369.558 688.108 367.556 688.247 365.548 688.368ZM377.535 687.437L377.44 686.441C379.434 686.251 381.424 686.045 383.408 685.821L383.52 686.815C381.53 687.039 379.535 687.246 377.535 687.437ZM389.495 686.088L389.366 685.097C391.346 684.838 393.322 684.563 395.291 684.271L395.438 685.26C393.462 685.553 391.481 685.829 389.495 686.088ZM401.386 684.326L401.222 683.339C403.197 683.011 405.167 682.666 407.131 682.304L407.312 683.287C405.342 683.65 403.367 683.996 401.386 684.326ZM413.203 682.149C415.173 681.75 417.138 681.334 419.096 680.902L418.88 679.926C416.928 680.357 414.969 680.771 413.004 681.169L413.203 682.149ZM424.957 679.554L424.724 678.582C426.666 678.117 428.602 677.636 430.531 677.138L430.78 678.107C428.846 678.606 426.904 679.088 424.957 679.554ZM436.601 676.551L436.334 675.587C438.262 675.054 440.183 674.504 442.097 673.938L442.38 674.896C440.461 675.464 438.534 676.016 436.601 676.551ZM448.125 673.142L447.824 672.188C449.735 671.587 451.638 670.969 453.534 670.334L453.852 671.283C451.95 671.919 450.041 672.539 448.125 673.142ZM459.534 669.326L459.2 668.384C461.085 667.716 462.962 667.033 464.832 666.333L465.182 667.27C463.307 667.971 461.424 668.657 459.534 669.326ZM470.8 665.112L470.433 664.182C472.293 663.449 474.144 662.7 475.987 661.935L476.37 662.859C474.522 663.626 472.665 664.377 470.8 665.112ZM481.906 660.507L481.506 659.59C483.341 658.791 485.167 657.977 486.985 657.147L487.4 658.057C485.577 658.889 483.745 659.706 481.906 660.507ZM492.843 655.514L492.412 654.612C494.217 653.749 496.014 652.871 497.802 651.978L498.249 652.873C496.456 653.768 494.654 654.649 492.843 655.514ZM503.605 650.138L503.143 649.251C504.914 648.327 506.676 647.388 508.429 646.435L508.907 647.313C507.149 648.27 505.382 649.211 503.605 650.138ZM514.168 644.391L513.675 643.521C515.414 642.535 517.144 641.534 518.864 640.518L519.372 641.38C517.647 642.398 515.913 643.402 514.168 644.391ZM524.522 638.279L523.998 637.427C525.703 636.38 527.398 635.319 529.083 634.243L529.621 635.086C527.931 636.165 526.231 637.229 524.522 638.279ZM534.659 631.807L534.107 630.974C535.773 629.869 537.429 628.75 539.074 627.617L539.641 628.44C537.991 629.577 536.33 630.699 534.659 631.807ZM544.565 624.986L543.984 624.173C545.61 623.011 547.225 621.835 548.83 620.646L549.426 621.449C547.816 622.642 546.196 623.821 544.565 624.986ZM554.226 617.826L553.617 617.033C555.202 615.815 556.776 614.583 558.339 613.338L558.962 614.121C557.395 615.369 555.816 616.604 554.226 617.826ZM563.632 610.335L562.995 609.563C564.537 608.291 566.068 607.005 567.588 605.706L568.237 606.466C566.714 607.769 565.178 609.058 563.632 610.335ZM572.774 602.519L572.111 601.771C573.607 600.446 575.092 599.108 576.565 597.758L577.241 598.495C575.764 599.849 574.275 601.191 572.774 602.519ZM581.638 594.393L580.95 593.667C582.399 592.291 583.837 590.903 585.262 589.502L585.963 590.215C584.534 591.62 583.092 593.013 581.638 594.393ZM590.215 585.963L589.502 585.262C590.903 583.837 592.291 582.399 593.667 580.95L594.393 581.638C593.013 583.092 591.62 584.534 590.215 585.963ZM598.495 577.241L597.758 576.565C599.108 575.092 600.446 573.607 601.771 572.111L602.519 572.774C601.191 574.275 599.849 575.764 598.495 577.241ZM606.466 568.237L605.706 567.588C607.005 566.068 608.291 564.537 609.563 562.995L610.335 563.632C609.058 565.178 607.769 566.714 606.466 568.237ZM614.121 558.962L613.338 558.339C614.583 556.776 615.815 555.202 617.033 553.617L617.826 554.226C616.604 555.816 615.369 557.395 614.121 558.962ZM621.449 549.426L620.646 548.83C621.835 547.225 623.011 545.61 624.173 543.984L624.986 544.565C623.821 546.196 622.642 547.816 621.449 549.426ZM628.44 539.641C629.577 537.991 630.699 536.33 631.807 534.659L630.974 534.107C629.869 535.773 628.75 537.429 627.617 539.074L628.44 539.641ZM635.086 529.621C636.165 527.931 637.229 526.231 638.279 524.522L637.427 523.998C636.38 525.703 635.319 527.398 634.243 529.083L635.086 529.621ZM641.38 519.372L640.518 518.864C641.534 517.144 642.535 515.414 643.521 513.675L644.391 514.168C643.402 515.912 642.398 517.647 641.38 519.372ZM647.313 508.907L646.435 508.429C647.388 506.676 648.327 504.914 649.251 503.143L650.138 503.605C649.211 505.382 648.27 507.149 647.313 508.907ZM652.873 498.249L651.978 497.802C652.871 496.014 653.749 494.217 654.612 492.412L655.514 492.843C654.649 494.654 653.768 496.456 652.873 498.249ZM658.057 487.4L657.147 486.984C657.977 485.167 658.791 483.341 659.59 481.506L660.507 481.905C659.706 483.745 658.889 485.577 658.057 487.4ZM662.859 476.37L661.935 475.987C662.7 474.144 663.449 472.293 664.182 470.433L665.112 470.8C664.377 472.665 663.626 474.522 662.859 476.37ZM667.27 465.182L666.333 464.832C667.033 462.962 667.716 461.085 668.384 459.2L669.326 459.534C668.657 461.424 667.971 463.307 667.27 465.182ZM671.283 453.851L670.334 453.534C670.969 451.638 671.587 449.735 672.189 447.824L673.142 448.125C672.539 450.041 671.919 451.95 671.283 453.851ZM674.897 442.38L673.938 442.097C674.504 440.183 675.054 438.262 675.587 436.334L676.551 436.601C676.016 438.534 675.464 440.461 674.897 442.38ZM678.107 430.78L677.138 430.53C677.636 428.601 678.117 426.666 678.582 424.724L679.554 424.956C679.088 426.904 678.606 428.845 678.107 430.78ZM680.902 419.096L679.926 418.88C680.357 416.928 680.771 414.969 681.169 413.004L682.149 413.202C681.75 415.173 681.334 417.137 680.902 419.096ZM683.287 407.312L682.304 407.13C682.666 405.167 683.011 403.197 683.339 401.221L684.326 401.385C683.996 403.366 683.65 405.342 683.287 407.312ZM685.26 395.438L684.271 395.291C684.563 393.321 684.838 391.346 685.097 389.365L686.088 389.495C685.829 391.481 685.553 393.462 685.26 395.438ZM686.815 383.52L685.821 383.408C686.045 381.423 686.251 379.434 686.441 377.44L687.437 377.534C687.246 379.534 687.039 381.53 686.815 383.52ZM687.953 371.556L686.956 371.478C687.111 369.486 687.249 367.489 687.369 365.488L688.368 365.548C688.247 367.555 688.108 369.558 687.953 371.556ZM688.677 359.542L687.678 359.499C687.764 357.51 687.832 355.516 687.884 353.518L688.884 353.544C688.832 355.547 688.763 357.547 688.677 359.542Z" fill="#F3F5F9"/>
</g>
<defs>
<clipPath id="clip0_51_1112">
<rect width="689" height="689" fill="white"/>
</clipPath>
</defs>
</svg>
