<svg width="76" height="76" viewBox="0 0 76 76" fill="none" xmlns="http://www.w3.org/2000/svg">
<g opacity="0.5">
<path fill-rule="evenodd" clip-rule="evenodd" d="M26.6228 14.8788C26.8405 14.6957 26.7129 14.3333 26.4284 14.3333H21.9204C21.2485 14.3333 20.5831 14.496 20.0104 14.8473C14.119 18.4613 10.1521 24.907 10.0043 32.2897H10V32.7173V49.6665C10 51.8757 11.7909 53.6665 14 53.6665H29.942C32.1512 53.6665 33.942 51.8757 33.942 49.6665V36.2897C33.942 34.0806 32.1512 32.2897 29.942 32.2897H18.6778C18.5939 31.5869 18.5507 30.8737 18.5507 30.1521C18.5507 24.1294 22.0796 18.7003 26.6228 14.8788ZM61.6808 14.8788C61.8985 14.6957 61.7708 14.3333 61.4863 14.3333H56.9784C56.3064 14.3333 55.6411 14.496 55.0683 14.8473C49.177 18.4613 45.2101 24.907 45.0622 32.2897H45.0581V32.6488L45.058 32.7173L45.0581 32.7858V49.6665C45.0581 51.8757 46.8489 53.6665 49.0581 53.6665H65.0001C67.2093 53.6665 69.0001 51.8757 69.0001 49.6665V36.2897C69.0001 34.0806 67.2092 32.2897 65.0001 32.2897H53.7358C53.6519 31.5869 53.6087 30.8737 53.6087 30.1521C53.6087 24.1294 57.1375 18.7003 61.6808 14.8788Z" fill="url(#paint0_linear_72_1623)"/>
</g>
<defs>
<linearGradient id="paint0_linear_72_1623" x1="10" y1="28.4998" x2="64.5001" y2="53.9998" gradientUnits="userSpaceOnUse">
<stop stop-color="#EAF1FF"/>
<stop stop-color="#DCE7FF"/>
<stop offset="0.528329" stop-color="#B1CBFF"/>
<stop offset="1" stop-color="#8C45FF"/>
</linearGradient>
</defs>
</svg>
