<svg width="38" height="39" viewBox="0 0 38 39" fill="none" xmlns="http://www.w3.org/2000/svg">
<path d="M12.2206 36.1117C10.8906 37.4414 9.0869 38.1884 7.20619 38.1882C5.32548 38.188 3.52187 37.4408 2.19213 36.1108C0.862383 34.7808 0.115434 32.9771 0.115601 31.0964C0.115767 29.2157 0.863034 27.4121 2.19301 26.0823L6.49904 21.7754C4.63056 16.216 5.91226 9.83055 10.3406 5.39954C14.7725 0.967649 21.1615 -0.311396 26.7236 1.56064C27.0808 1.6803 27.5098 1.85757 28.0088 2.09069C28.2537 2.20482 28.4675 2.37631 28.632 2.59062C28.7965 2.80493 28.9069 3.05575 28.9539 3.32182C29.0009 3.58789 28.983 3.86135 28.9018 4.11904C28.8206 4.37673 28.6785 4.61105 28.4874 4.80212L20.9958 12.2938L26.01 17.308L33.4051 9.91299C33.6074 9.71071 33.8557 9.5604 34.1287 9.47492C34.4018 9.38943 34.6915 9.3713 34.973 9.42208C35.2546 9.47285 35.5197 9.59102 35.7457 9.7665C35.9717 9.94197 36.1518 10.1695 36.2707 10.4297C36.4977 10.9243 36.6687 11.3498 36.7848 11.707C38.5957 17.2398 37.3016 23.5659 32.9043 27.9632C28.4742 32.3924 22.0878 33.6733 16.5275 31.8048L12.2206 36.1108V36.1117Z" fill="#F3F5F9"/>
</svg>
