<svg width="44" height="22" viewBox="0 0 44 22" fill="none" xmlns="http://www.w3.org/2000/svg">
<path fill-rule="evenodd" clip-rule="evenodd" d="M12.9046 1.4265C13.1401 0.926906 12.9259 0.331058 12.4263 0.0956381C11.9268 -0.139733 11.3311 0.0742854 11.0956 0.573658L11.0954 0.57397L11.0939 0.577176L11.0841 0.597414C11.0749 0.616435 11.0602 0.646344 11.0401 0.686245C10.9999 0.766073 10.9382 0.885739 10.8556 1.0381C10.6904 1.3431 10.4423 1.77746 10.1162 2.28446C9.46076 3.30352 8.50581 4.59118 7.29311 5.71248C5.67646 7.20728 3.27084 8.62008 1.78633 9.42175C0.58334 10.0714 0.565422 11.8294 1.76398 12.4982C3.24853 13.3267 5.66733 14.7848 7.2931 16.288C8.50581 17.4093 9.46076 18.6969 10.1162 19.716C10.4423 20.223 10.6904 20.6574 10.8556 20.9624C10.9382 21.1147 10.9998 21.2344 11.04 21.3142C11.0601 21.3541 11.0749 21.384 11.0841 21.4031L11.0939 21.4233L11.0954 21.4265L11.0956 21.4268C11.3311 21.9262 11.9268 22.1402 12.4263 21.9048C12.9259 21.6694 13.14 21.0736 12.9046 20.574L12.0049 20.9979C12.9046 20.574 12.9045 20.5738 12.9044 20.5736L12.9042 20.5731L12.9037 20.572L12.9023 20.569L12.8978 20.5595L12.8824 20.5277C12.8693 20.5009 12.8506 20.4629 12.8263 20.4146C12.7778 20.3182 12.7068 20.1808 12.6141 20.0096C12.4288 19.6676 12.1555 19.1894 11.7983 18.6341C11.0873 17.5286 10.0282 16.093 8.65089 14.8195C7.53428 13.7871 6.11937 12.8009 4.8466 12H43C43.5523 12 44 11.5523 44 11C44 10.4477 43.5523 10 43 10H4.7923C6.07903 9.21178 7.51773 8.22871 8.6509 7.18095C10.0282 5.90745 11.0873 4.47186 11.7983 3.36639C12.1555 2.81112 12.4288 2.33288 12.6141 1.99086C12.7068 1.81971 12.7778 1.68225 12.8263 1.58583C12.8506 1.53761 12.8693 1.49962 12.8824 1.47277L12.8978 1.44095L12.9023 1.43151L12.9037 1.42845L12.9042 1.42734L12.9045 1.42688C12.9045 1.42669 12.9046 1.4265 12 1.00024L12.9046 1.4265Z" fill="#211F3C"/>
</svg>
