<svg width="36" height="37" viewBox="0 0 36 37" fill="none" xmlns="http://www.w3.org/2000/svg">
<g clip-path="url(#clip0_298_49813)">
<path fill-rule="evenodd" clip-rule="evenodd" d="M12.1096 31.6493C12.7346 30.9932 12.5372 30.1474 11.6726 29.856C11.1932 29.6887 10.7242 29.4913 10.2863 29.2507C8.28624 28.1351 6.89995 26.4978 6.14994 24.3399C5.95256 23.7873 5.66027 23.5467 5.11891 23.5467C4.85856 23.526 4.53055 23.5673 4.43093 23.8286C3.31625 26.7516 2.58786 30.7695 2.35759 32.3485C2.27206 32.9322 2.34725 33.3702 2.79557 33.6202C3.05728 33.7692 3.31041 33.7244 3.57712 33.6773C3.62839 33.6682 3.68017 33.6591 3.73261 33.6512C3.80999 33.6398 3.89571 33.6274 3.98893 33.6138C5.94502 33.3296 11.2053 32.5652 12.1096 31.6493ZM35.999 3.26338C36.0094 2.61299 35.9361 1.98234 35.8327 1.34229H35.8317C35.7283 0.712579 35.6973 0.681564 35.0423 0.557501C33.8477 0.340392 32.6418 0.381746 31.4369 0.506749C29.0643 0.752555 26.7299 1.28268 24.4838 2.08573C20.4932 3.5115 16.9809 5.64876 14.1331 8.80954C13.978 8.98529 13.8117 9.01537 13.572 8.99469C12.3464 8.86123 10.1801 8.64412 8.95355 8.65446C6.81254 8.67514 5.13958 9.64602 3.97603 11.4524C3.62348 12.0035 3.2744 12.5513 2.9251 13.0995C2.64586 13.5378 2.36646 13.9763 2.08503 14.4168C1.93739 14.646 1.78906 14.8745 1.64083 15.1028C1.19459 15.7901 0.749388 16.4759 0.327488 17.1744C-0.482673 18.4958 0.287074 20.0767 1.79367 20.1895C3.1232 20.2877 4.95504 20.3749 6.55475 20.4511C7.14325 20.4791 7.70033 20.5056 8.18944 20.5306C8.51181 20.5513 8.65655 20.634 8.68851 20.9846C8.79189 22.1312 9.10392 23.2262 9.72799 24.2177C10.9329 26.1379 12.6886 27.2018 14.9442 27.4913C15.7651 27.6021 15.7653 27.6049 15.8231 28.418C15.8246 28.4391 15.8261 28.4607 15.8277 28.4828C15.8726 29.1107 15.9176 29.8616 15.9647 30.6466C16.0476 32.0307 16.137 33.5206 16.2431 34.6277C16.3888 36.1352 17.9584 36.89 19.2366 36.0629C19.6142 35.8165 19.9926 35.5708 20.3711 35.3251C22.023 34.2525 23.6781 33.1779 25.2846 32.0355C27.1239 30.7235 27.9134 28.8757 27.685 26.6144C27.6329 26.1286 27.5887 25.4083 27.5445 24.688C27.5003 23.9672 27.4562 23.2465 27.404 22.7609C27.373 22.4621 27.4463 22.2346 27.685 22.0184C30.5638 19.3943 32.6212 16.2242 34.0244 12.6198C35.1983 9.60467 35.905 6.49652 35.999 3.26338ZM23.4305 13.6104C23.9593 14.1392 24.6764 14.4362 25.4242 14.4362C26.1721 14.4362 26.8892 14.1392 27.418 13.6104C27.9468 13.0816 28.2438 12.3644 28.2438 11.6166C28.2438 10.8688 27.9468 10.1516 27.418 9.62286C26.8892 9.09408 26.1721 8.79702 25.4242 8.79702C24.6764 8.79702 23.9593 9.09408 23.4305 9.62286C22.9017 10.1516 22.6047 10.8688 22.6047 11.6166C22.6047 12.3644 22.9017 13.0816 23.4305 13.6104Z" fill="#ffffff"/>
</g>
<defs>
<clipPath id="clip0_298_49813">
<rect width="36" height="36" fill="white" transform="translate(0 0.403809)"/>
</clipPath>
</defs>
</svg>
