<svg width="40" height="40" viewBox="0 0 40 40" fill="none" xmlns="http://www.w3.org/2000/svg">
<path fill-rule="evenodd" clip-rule="evenodd" d="M20 19.0002C23.7555 19.0002 26.8 15.9557 26.8 12.2002C26.8 8.44466 23.7555 5.4002 20 5.4002C16.2445 5.4002 13.2 8.44466 13.2 12.2002C13.2 15.9557 16.2445 19.0002 20 19.0002ZM22.6 23.9178C27.9774 22.7299 32 17.9348 32 12.2002C32 5.57278 26.6274 0.200195 20 0.200195C13.3726 0.200195 8 5.57278 8 12.2002C8 17.9348 12.0226 22.7299 17.4 23.9178V26.6002H12C10.5641 26.6002 9.4 27.7643 9.4 29.2002C9.4 30.6361 10.5641 31.8002 12 31.8002H17.4V37.2002C17.4 38.6361 18.5641 39.8002 20 39.8002C21.4359 39.8002 22.6 38.6361 22.6 37.2002V31.8002H28C29.4359 31.8002 30.6 30.6361 30.6 29.2002C30.6 27.7643 29.4359 26.6002 28 26.6002H22.6V23.9178Z" fill="#C165D0"/>
</svg>
