<svg width="48" height="42" viewBox="0 0 48 42" fill="none" xmlns="http://www.w3.org/2000/svg">
<g clip-path="url(#clip0_75_968)">
<path fill-rule="evenodd" clip-rule="evenodd" d="M25.9375 2.625C15.7893 2.625 7.5625 10.8518 7.5625 21C7.5625 31.1482 15.7893 39.375 25.9375 39.375C36.0857 39.375 44.3125 31.1482 44.3125 21C44.3125 10.8518 36.0857 2.625 25.9375 2.625ZM6.25 21C6.25 10.1269 15.0644 1.3125 25.9375 1.3125C36.8106 1.3125 45.625 10.1269 45.625 21C45.625 31.8731 36.8106 40.6875 25.9375 40.6875C15.0644 40.6875 6.25 31.8731 6.25 21Z" fill="#22233D"/>
<path fill-rule="evenodd" clip-rule="evenodd" d="M25.0643 27.3503C24.7337 27.2017 24.5862 26.8132 24.7348 26.4826L24.7353 26.4814L24.7362 26.4796L24.7387 26.474L24.7473 26.4553C24.7546 26.4396 24.765 26.4174 24.7785 26.3894C24.8054 26.3334 24.8446 26.2537 24.8958 26.1546C24.9982 25.9566 25.149 25.6799 25.3461 25.3587C25.738 24.7199 26.3233 23.8876 27.0865 23.1478C27.9679 22.2935 29.1826 21.5134 30.0301 21.0167C29.1837 20.5055 27.9676 19.7063 27.0865 18.8522C26.3233 18.1124 25.738 17.2801 25.3461 16.6413C25.149 16.3201 24.9982 16.0434 24.8958 15.8454C24.8446 15.7463 24.8054 15.6666 24.7785 15.6106C24.765 15.5826 24.7546 15.5604 24.7473 15.5447L24.7387 15.526L24.7362 15.5204L24.7353 15.5186L24.7349 15.5176C24.5863 15.187 24.7337 14.7983 25.0643 14.6498C25.3947 14.5012 25.7829 14.6485 25.9317 14.9787L25.9326 14.9807L25.9378 14.992C25.9427 15.0027 25.9507 15.0196 25.9615 15.0423C25.9833 15.0876 26.0169 15.1558 26.0618 15.2428C26.1518 15.4169 26.287 15.6651 26.4648 15.9549C26.8226 16.5381 27.3422 17.2721 28 17.9098C28.9868 18.8663 30.5126 19.7913 31.2654 20.2197C31.8906 20.5756 31.8823 21.4859 31.253 21.8315C30.4995 22.2454 28.9814 23.139 28 24.0902C27.3422 24.7279 26.8226 25.462 26.4648 26.0451C26.287 26.3349 26.1518 26.5831 26.0618 26.7572C26.0169 26.8442 25.9833 26.9124 25.9615 26.9577C25.9507 26.9804 25.9427 26.9973 25.9378 27.008L25.9326 27.0193L25.9319 27.0207M25.0643 27.3503C25.3948 27.4988 25.7832 27.3512 25.9319 27.0207Z" fill="#22233D"/>
<path fill-rule="evenodd" clip-rule="evenodd" d="M-5.73712e-08 21C-2.5686e-08 20.6376 0.293813 20.3438 0.65625 20.3438L24.9375 20.3438C25.2999 20.3438 25.5937 20.6376 25.5937 21C25.5937 21.3624 25.2999 21.6563 24.9375 21.6563L0.65625 21.6563C0.293813 21.6563 -8.90564e-08 21.3624 -5.73712e-08 21Z" fill="#22233D"/>
</g>
<defs>
<clipPath id="clip0_75_968">
<rect width="48" height="42" fill="white"/>
</clipPath>
</defs>
</svg>
