<svg width="56" height="62" viewBox="0 0 56 62" fill="none" xmlns="http://www.w3.org/2000/svg">
<g clip-path="url(#clip0_190_36152)">
<path fillRule="evenodd" clip-rule="evenodd" d="M54.2077 30.6737C55.5164 30.6737 56.3021 29.2207 55.5855 28.1256L37.6696 0.745009C37.0196 -0.248337 35.5639 -0.248336 34.914 0.74501L16.998 28.1256C16.2815 29.2207 17.0672 30.6737 18.3758 30.6737H26.1032C27.0125 30.6737 27.7497 31.4109 27.7497 32.3202V60.3506C27.7497 61.2599 28.4869 61.9971 29.3963 61.9971H43.1882C44.0975 61.9971 44.8347 61.2599 44.8347 60.3505V32.3202C44.8347 31.4109 45.5719 30.6737 46.4813 30.6737H54.2077Z" fill="#4B4EE2"/>
<path fillRule="evenodd" clip-rule="evenodd" d="M13.4428 41.4695C14.12 41.4695 14.5265 40.7177 14.1557 40.1511L7.86103 30.531C7.52471 30.017 6.77149 30.017 6.43516 30.531L0.140472 40.1511C-0.230303 40.7177 0.176233 41.4695 0.853406 41.4695H3.08804C3.55858 41.4695 3.94004 41.851 3.94004 42.3215V52.3792C3.94004 52.8497 4.32149 53.2312 4.79203 53.2312H9.50303C9.97357 53.2312 10.355 52.8497 10.355 52.3792V42.3215C10.355 41.851 10.7365 41.4695 11.207 41.4695H13.4428Z" fill="#D0DBFE"/>
</g>
<defs>
<clipPath id="clip0_190_36152">
<rect width="55.8569" height="61.9971" fill="white"/>
</clipPath>
</defs>
</svg>
