<svg width="96" height="17" viewBox="0 0 96 17" fill="none" xmlns="http://www.w3.org/2000/svg">
<path d="M87.7993 0.563156C83.527 0.563155 80.0636 4.02653 80.0636 8.29883C80.0636 12.5711 83.527 16.0345 87.7993 16.0345C92.0716 16.0345 95.535 12.5711 95.535 8.29883C95.535 4.02653 92.0716 0.563156 87.7993 0.563156ZM87.7993 6.84839L85.5574 6.84839L85.5574 9.74927L87.7993 9.74927L87.7993 6.84839ZM81.0736 6.84839L76.5898 6.84839L76.5898 9.74927L81.0736 9.74927L81.0736 6.84839ZM72.106 6.84839L67.6222 6.84839L67.6222 9.74927L72.106 9.74927L72.106 6.84839ZM63.1384 6.84839L58.6546 6.84839L58.6546 9.74927L63.1384 9.74927L63.1384 6.84839ZM54.1707 6.84839L51.9288 6.84839L51.9288 9.74927L54.1707 9.74927L54.1707 6.84839ZM51.9288 6.84839L49.3664 6.84839L49.3664 9.74927L51.9288 9.74927L51.9288 6.84839ZM44.2415 6.84839L39.1165 6.84839L39.1165 9.74926L44.2415 9.74926L44.2415 6.84839ZM33.9916 6.84839L28.8667 6.84839L28.8667 9.74926L33.9916 9.74926L33.9916 6.84839ZM23.7418 6.84839L18.6168 6.84839L18.6168 9.74926L23.7418 9.74926L23.7418 6.84839ZM13.4919 6.84839L8.36699 6.84839L8.36699 9.74926L13.4919 9.74926L13.4919 6.84839ZM3.24207 6.84839L0.679596 6.84839L0.679596 9.74926L3.24207 9.74926L3.24207 6.84839Z" fill="#5F647C"/>
</svg>
