<svg width="93" height="192" viewBox="0 0 93 192" fill="none" xmlns="http://www.w3.org/2000/svg">
<mask id="path-1-inside-1_140_29432" fill="white">
<path fill-rule="evenodd" clip-rule="evenodd" d="M87.0001 12.5001C90.3138 12.5001 93.0001 9.81382 93.0001 6.50011C93.0001 3.1864 90.3138 0.500107 87.0001 0.500107C83.6864 0.500107 81.0001 3.1864 81.0001 6.50011C81.0001 7.04016 81.0714 7.56354 81.2052 8.06135L11.1389 38.4016C10.0881 36.6628 8.17981 35.5003 5.99997 35.5003C2.68626 35.5003 -2.69263e-05 38.1866 -2.69263e-05 41.5003C-2.69263e-05 44.814 2.68626 47.5003 5.99997 47.5003C6.85825 47.5003 7.67444 47.3201 8.41276 46.9955L83.1734 181.378C81.8457 182.479 81.0001 184.141 81.0001 186C81.0001 189.314 83.6864 192 87.0001 192C90.3138 192 93.0001 189.314 93.0001 186C93.0001 182.686 90.3138 180 87.0001 180C86.2629 180 85.5568 180.133 84.9044 180.376L10.0878 45.8924C11.2642 44.797 12 43.2346 12 41.5003C12 41.0763 11.956 40.6626 11.8723 40.2635L82.0411 9.87884C83.1214 11.4613 84.9394 12.5001 87.0001 12.5001Z"/>
</mask>
<path fill-rule="evenodd" clip-rule="evenodd" d="M87.0001 12.5001C90.3138 12.5001 93.0001 9.81382 93.0001 6.50011C93.0001 3.1864 90.3138 0.500107 87.0001 0.500107C83.6864 0.500107 81.0001 3.1864 81.0001 6.50011C81.0001 7.04016 81.0714 7.56354 81.2052 8.06135L11.1389 38.4016C10.0881 36.6628 8.17981 35.5003 5.99997 35.5003C2.68626 35.5003 -2.69263e-05 38.1866 -2.69263e-05 41.5003C-2.69263e-05 44.814 2.68626 47.5003 5.99997 47.5003C6.85825 47.5003 7.67444 47.3201 8.41276 46.9955L83.1734 181.378C81.8457 182.479 81.0001 184.141 81.0001 186C81.0001 189.314 83.6864 192 87.0001 192C90.3138 192 93.0001 189.314 93.0001 186C93.0001 182.686 90.3138 180 87.0001 180C86.2629 180 85.5568 180.133 84.9044 180.376L10.0878 45.8924C11.2642 44.797 12 43.2346 12 41.5003C12 41.0763 11.956 40.6626 11.8723 40.2635L82.0411 9.87884C83.1214 11.4613 84.9394 12.5001 87.0001 12.5001Z" fill="white"/>
<path d="M81.2052 8.06125L82 9.89657L83.585 9.21021L83.1367 7.54215L81.2052 8.06125ZM11.1389 38.4015L9.42718 39.4359L10.3306 40.9309L11.9337 40.2368L11.1389 38.4015ZM8.41279 46.9954L10.1605 46.0231L9.27506 44.4314L7.60776 45.1645L8.41279 46.9954ZM83.1734 181.378L84.4498 182.918L85.7288 181.858L84.9212 180.406L83.1734 181.378ZM84.9045 180.376L83.1567 181.348L83.9924 182.85L85.6031 182.25L84.9045 180.376ZM10.0878 45.8923L8.72487 44.4286L7.5786 45.4959L8.34005 46.8646L10.0878 45.8923ZM11.8724 40.2633L11.0776 38.428L9.58018 39.0765L9.91489 40.6736L11.8724 40.2633ZM82.0411 9.87873L83.693 8.75111L82.7619 7.38719L81.2464 8.04341L82.0411 9.87873ZM91.0001 6.5C91.0001 8.70914 89.2092 10.5 87.0001 10.5V14.5C91.4184 14.5 95.0001 10.9183 95.0001 6.5H91.0001ZM87.0001 2.5C89.2092 2.5 91.0001 4.29086 91.0001 6.5H95.0001C95.0001 2.08172 91.4184 -1.5 87.0001 -1.5V2.5ZM83.0001 6.5C83.0001 4.29086 84.791 2.5 87.0001 2.5V-1.5C82.5818 -1.5 79.0001 2.08172 79.0001 6.5H83.0001ZM83.1367 7.54215C83.048 7.2121 83.0001 6.86319 83.0001 6.5H79.0001C79.0001 7.21691 79.0949 7.91478 79.2738 8.58034L83.1367 7.54215ZM80.4105 6.22593L10.3442 36.5662L11.9337 40.2368L82 9.89657L80.4105 6.22593ZM12.8507 37.3671C11.4528 35.0539 8.90881 33.5002 6 33.5002V37.5002C7.45087 37.5002 8.72353 38.2714 9.42718 39.4359L12.8507 37.3671ZM6 33.5002C1.58172 33.5002 -2 37.082 -2 41.5002H2C2 39.2911 3.79086 37.5002 6 37.5002V33.5002ZM-2 41.5002C-2 45.9185 1.58172 49.5002 6 49.5002V45.5002C3.79086 45.5002 2 43.7094 2 41.5002H-2ZM6 49.5002C7.14068 49.5002 8.23061 49.2603 9.21782 48.8262L7.60776 45.1645C7.11832 45.3798 6.57587 45.5002 6 45.5002V49.5002ZM6.66505 47.9677L81.4257 182.351L84.9212 180.406L10.1605 46.0231L6.66505 47.9677ZM81.897 179.838C80.1306 181.303 79.0001 183.52 79.0001 186H83.0001C83.0001 184.761 83.5608 183.655 84.4498 182.918L81.897 179.838ZM79.0001 186C79.0001 190.418 82.5818 194 87.0001 194V190C84.791 190 83.0001 188.209 83.0001 186H79.0001ZM87.0001 194C91.4184 194 95.0001 190.418 95.0001 186H91.0001C91.0001 188.209 89.2092 190 87.0001 190V194ZM95.0001 186C95.0001 181.581 91.4184 178 87.0001 178V182C89.2092 182 91.0001 183.791 91.0001 186H95.0001ZM87.0001 178C86.0209 178 85.0784 178.177 84.2059 178.502L85.6031 182.25C86.0353 182.089 86.505 182 87.0001 182V178ZM86.6522 179.404L11.8355 44.92L8.34005 46.8646L83.1567 181.348L86.6522 179.404ZM11.4507 47.356C13.0164 45.8981 14 43.8125 14 41.5002H10C10 42.6565 9.512 43.6957 8.72487 44.4286L11.4507 47.356ZM14 41.5002C14 40.9376 13.9416 40.3864 13.8298 39.8531L9.91489 40.6736C9.97044 40.9386 10 41.2149 10 41.5002H14ZM12.6671 42.0987L82.8359 11.7141L81.2464 8.04341L11.0776 38.428L12.6671 42.0987ZM87.0001 10.5C85.6281 10.5 84.4165 9.81107 83.693 8.75111L80.3893 11.0064C81.8263 13.1114 84.2508 14.5 87.0001 14.5V10.5Z" fill="#FFA654" mask="url(#path-1-inside-1_140_29432)"/>
</svg>
