<svg width="93" height="252" viewBox="0 0 93 252" fill="none" xmlns="http://www.w3.org/2000/svg">
<mask id="path-1-inside-1_140_29424" fill="white">
<path fill-rule="evenodd" clip-rule="evenodd" d="M93.0001 6C93.0001 9.31371 90.3138 12 87.0001 12C85.806 12 84.6934 11.6512 83.7586 11.0499L10.9444 91.1003C11.0772 91.2931 11.199 91.4939 11.3089 91.7021L11.5982 91.7906L11.5023 92.1038C11.8224 92.8378 12 93.6483 12 94.5003C12 94.8476 11.9705 95.1881 11.9138 95.5194L81.7948 122.514C82.8302 120.713 84.7735 119.5 87.0001 119.5C90.3138 119.5 93.0001 122.186 93.0001 125.5C93.0001 128.814 90.3138 131.5 87.0001 131.5C83.6864 131.5 81.0001 128.814 81.0001 125.5C81.0001 125.121 81.0352 124.75 81.1025 124.391L11.2501 97.407C11.1051 97.6685 10.941 97.918 10.7599 98.1536L10.7709 98.3853L10.5642 98.395C10.3911 98.5978 10.2046 98.7888 10.0063 98.9668L84.8955 239.88C85.5504 239.635 86.2596 239.501 87.0001 239.501C90.3138 239.501 93.0001 242.187 93.0001 245.501C93.0001 248.814 90.3138 251.501 87.0001 251.501C83.6864 251.501 81.0001 248.814 81.0001 245.501C81.0001 243.645 81.8423 241.986 83.1652 240.886L8.31116 100.039C7.59984 100.336 6.81909 100.5 6 100.5C2.68629 100.5 0 97.814 0 94.5003C0 91.1866 2.68629 88.5003 6 88.5003C7.32798 88.5003 8.55519 88.9317 9.54912 89.662L82.2794 9.70384C81.478 8.68387 81.0001 7.39775 81.0001 6C81.0001 2.68629 83.6864 0 87.0001 0C90.3138 0 93.0001 2.68629 93.0001 6Z"/>
</mask>
<path fill-rule="evenodd" clip-rule="evenodd" d="M93.0001 6C93.0001 9.31371 90.3138 12 87.0001 12C85.806 12 84.6934 11.6512 83.7586 11.0499L10.9444 91.1003C11.0772 91.2931 11.199 91.4939 11.3089 91.7021L11.5982 91.7906L11.5023 92.1038C11.8224 92.8378 12 93.6483 12 94.5003C12 94.8476 11.9705 95.1881 11.9138 95.5194L81.7948 122.514C82.8302 120.713 84.7735 119.5 87.0001 119.5C90.3138 119.5 93.0001 122.186 93.0001 125.5C93.0001 128.814 90.3138 131.5 87.0001 131.5C83.6864 131.5 81.0001 128.814 81.0001 125.5C81.0001 125.121 81.0352 124.75 81.1025 124.391L11.2501 97.407C11.1051 97.6685 10.941 97.918 10.7599 98.1536L10.7709 98.3853L10.5642 98.395C10.3911 98.5978 10.2046 98.7888 10.0063 98.9668L84.8955 239.88C85.5504 239.635 86.2596 239.501 87.0001 239.501C90.3138 239.501 93.0001 242.187 93.0001 245.501C93.0001 248.814 90.3138 251.501 87.0001 251.501C83.6864 251.501 81.0001 248.814 81.0001 245.501C81.0001 243.645 81.8423 241.986 83.1652 240.886L8.31116 100.039C7.59984 100.336 6.81909 100.5 6 100.5C2.68629 100.5 0 97.814 0 94.5003C0 91.1866 2.68629 88.5003 6 88.5003C7.32798 88.5003 8.55519 88.9317 9.54912 89.662L82.2794 9.70384C81.478 8.68387 81.0001 7.39775 81.0001 6C81.0001 2.68629 83.6864 0 87.0001 0C90.3138 0 93.0001 2.68629 93.0001 6Z" fill="white"/>
<path d="M83.7586 11.0499L84.8406 9.36784L83.4176 8.45256L82.2791 9.70416L83.7586 11.0499ZM10.9444 91.1003L9.46492 89.7546L8.39724 90.9284L9.29745 92.235L10.9444 91.1003ZM11.3089 91.7021L9.54044 92.6361L9.92874 93.3713L10.7238 93.6146L11.3089 91.7021ZM11.5982 91.7906L13.5107 92.3757L14.0958 90.4632L12.1833 89.8781L11.5982 91.7906ZM11.5023 92.1038L9.58981 91.5187L9.37352 92.2257L9.66908 92.9034L11.5023 92.1038ZM11.9138 95.5194L9.94245 95.1821L9.66643 96.7953L11.1931 97.385L11.9138 95.5194ZM81.7948 122.514L81.0741 124.38L82.6739 124.998L83.5287 123.511L81.7948 122.514ZM81.1025 124.391L83.0684 124.758L83.3739 123.124L81.8232 122.525L81.1025 124.391ZM11.2501 97.407L11.9708 95.5414L10.3462 94.9138L9.50129 96.4367L11.2501 97.407ZM10.7599 98.1536L9.17423 96.9347L8.72748 97.5159L8.76214 98.2482L10.7599 98.1536ZM10.7709 98.3853L10.8654 100.383L12.8632 100.288L12.7686 98.2907L10.7709 98.3853ZM10.5642 98.395L10.4697 96.3973L9.60539 96.4382L9.04344 97.0961L10.5642 98.395ZM10.0063 98.9668L8.67038 97.4784L7.50584 98.5236L8.2402 99.9054L10.0063 98.9668ZM84.8955 239.88L83.1295 240.819L83.9533 242.369L85.5971 241.753L84.8955 239.88ZM83.1652 240.886L84.4443 242.423L85.6945 241.383L84.9313 239.947L83.1652 240.886ZM8.31116 100.039L10.0772 99.1004L9.22192 97.491L7.54021 98.1935L8.31116 100.039ZM9.54912 89.662L8.36486 91.2737L9.8165 92.3404L11.0286 91.0078L9.54912 89.662ZM82.2794 9.70384L83.7589 11.0496L84.8971 9.7983L83.8521 8.46821L82.2794 9.70384ZM87.0001 14C91.4184 14 95.0001 10.4183 95.0001 6H91.0001C91.0001 8.20914 89.2092 10 87.0001 10V14ZM82.6767 12.732C83.9245 13.5346 85.411 14 87.0001 14V10C86.2011 10 85.4624 9.76779 84.8406 9.36784L82.6767 12.732ZM12.4239 92.4461L85.2381 12.3957L82.2791 9.70416L9.46492 89.7546L12.4239 92.4461ZM13.0774 90.768C12.9307 90.4903 12.7683 90.2225 12.5914 89.9657L9.29745 92.235C9.38607 92.3637 9.46726 92.4976 9.54044 92.6361L13.0774 90.768ZM12.1833 89.8781L11.8941 89.7896L10.7238 93.6146L11.013 93.703L12.1833 89.8781ZM13.4148 92.6889L13.5107 92.3757L9.68566 91.2054L9.58981 91.5187L13.4148 92.6889ZM14 94.5003C14 93.368 13.7636 92.2857 13.3355 91.3043L9.66908 92.9034C9.88129 93.3899 10 93.9286 10 94.5003H14ZM13.8852 95.8567C13.9608 95.4145 14 94.9612 14 94.5003H10C10 94.7341 9.98014 94.9618 9.94245 95.1821L13.8852 95.8567ZM82.5155 120.648L12.6345 93.6537L11.1931 97.385L81.0741 124.38L82.5155 120.648ZM83.5287 123.511C84.222 122.305 85.5183 121.5 87.0001 121.5V117.5C84.0288 117.5 81.4385 119.121 80.0609 121.517L83.5287 123.511ZM87.0001 121.5C89.2092 121.5 91.0001 123.291 91.0001 125.5H95.0001C95.0001 121.082 91.4184 117.5 87.0001 117.5V121.5ZM91.0001 125.5C91.0001 127.709 89.2092 129.5 87.0001 129.5V133.5C91.4184 133.5 95.0001 129.918 95.0001 125.5H91.0001ZM87.0001 129.5C84.791 129.5 83.0001 127.709 83.0001 125.5H79.0001C79.0001 129.918 82.5818 133.5 87.0001 133.5V129.5ZM83.0001 125.5C83.0001 125.245 83.0237 124.997 83.0684 124.758L79.1365 124.023C79.0468 124.503 79.0001 124.997 79.0001 125.5H83.0001ZM10.5294 99.2727L80.3818 126.256L81.8232 122.525L11.9708 95.5414L10.5294 99.2727ZM12.3456 99.3725C12.5868 99.0586 12.8055 98.7261 12.999 98.3774L9.50129 96.4367C9.40466 96.6108 9.29524 96.7773 9.17423 96.9347L12.3456 99.3725ZM12.7686 98.2907L12.7577 98.059L8.76214 98.2482L8.77311 98.4798L12.7686 98.2907ZM10.6588 100.393L10.8654 100.383L10.6763 96.3875L10.4697 96.3973L10.6588 100.393ZM11.3422 100.455C11.6062 100.218 11.8544 99.9639 12.085 99.694L9.04344 97.0961C8.92767 97.2316 8.80301 97.3594 8.67038 97.4784L11.3422 100.455ZM86.6616 238.941L11.7724 98.0282L8.2402 99.9054L83.1295 240.819L86.6616 238.941ZM87.0001 237.501C86.0164 237.501 85.0698 237.679 84.1939 238.007L85.5971 241.753C86.0311 241.59 86.5028 241.501 87.0001 241.501V237.501ZM95.0001 245.501C95.0001 241.082 91.4184 237.501 87.0001 237.501V241.501C89.2092 241.501 91.0001 243.291 91.0001 245.501H95.0001ZM87.0001 253.501C91.4184 253.501 95.0001 249.919 95.0001 245.501H91.0001C91.0001 247.71 89.2092 249.501 87.0001 249.501V253.501ZM79.0001 245.501C79.0001 249.919 82.5818 253.501 87.0001 253.501V249.501C84.791 249.501 83.0001 247.71 83.0001 245.501H79.0001ZM81.8861 239.348C80.126 240.813 79.0001 243.026 79.0001 245.501H83.0001C83.0001 244.264 83.5585 243.16 84.4443 242.423L81.8861 239.348ZM6.54508 100.978L81.3991 241.824L84.9313 239.947L10.0772 99.1004L6.54508 100.978ZM6 102.5C7.08842 102.5 8.1309 102.282 9.08212 101.884L7.54021 98.1935C7.06878 98.3905 6.54975 98.5003 6 98.5003V102.5ZM-2 94.5003C-2 98.9185 1.58172 102.5 6 102.5V98.5003C3.79086 98.5003 2 96.7094 2 94.5003H-2ZM6 86.5003C1.58172 86.5003 -2 90.082 -2 94.5003H2C2 92.2911 3.79086 90.5003 6 90.5003V86.5003ZM10.7334 88.0503C9.40776 87.0763 7.76822 86.5003 6 86.5003V90.5003C6.88773 90.5003 7.70262 90.7871 8.36486 91.2737L10.7334 88.0503ZM80.7999 8.35807L8.06962 88.3163L11.0286 91.0078L83.7589 11.0496L80.7999 8.35807ZM79.0001 6C79.0001 7.86161 79.6384 9.5797 80.7068 10.9395L83.8521 8.46821C83.3177 7.78803 83.0001 6.93389 83.0001 6H79.0001ZM87.0001 -2C82.5818 -2 79.0001 1.58172 79.0001 6H83.0001C83.0001 3.79086 84.791 2 87.0001 2V-2ZM95.0001 6C95.0001 1.58172 91.4184 -2 87.0001 -2V2C89.2092 2 91.0001 3.79086 91.0001 6H95.0001Z" fill="#6D6FE6" mask="url(#path-1-inside-1_140_29424)"/>
</svg>
