<svg width="93" height="92" viewBox="0 0 93 92" fill="none" xmlns="http://www.w3.org/2000/svg">
<mask id="path-1-inside-1_140_29420" fill="white">
<path fill-rule="evenodd" clip-rule="evenodd" d="M12 6C12 7.22793 11.6311 8.36971 10.9982 9.32057L83.233 81.3297C84.2628 80.4981 85.5733 80.0001 87.0001 80.0001C90.3138 80.0001 93.0001 82.6863 93.0001 86.0001C93.0001 89.3138 90.3138 92.0001 87.0001 92.0001C83.6864 92.0001 81.0001 89.3138 81.0001 86.0001C81.0001 84.8362 81.3314 83.7497 81.905 82.8299L9.62832 10.779C8.62072 11.5452 7.36347 12 6 12C2.68629 12 0 9.31371 0 6C0 2.68629 2.68629 0 6 0C9.31371 0 12 2.68629 12 6Z"/>
</mask>
<path fill-rule="evenodd" clip-rule="evenodd" d="M12 6C12 7.22793 11.6311 8.36971 10.9982 9.32057L83.233 81.3297C84.2628 80.4981 85.5733 80.0001 87.0001 80.0001C90.3138 80.0001 93.0001 82.6863 93.0001 86.0001C93.0001 89.3138 90.3138 92.0001 87.0001 92.0001C83.6864 92.0001 81.0001 89.3138 81.0001 86.0001C81.0001 84.8362 81.3314 83.7497 81.905 82.8299L9.62832 10.779C8.62072 11.5452 7.36347 12 6 12C2.68629 12 0 9.31371 0 6C0 2.68629 2.68629 0 6 0C9.31371 0 12 2.68629 12 6Z" fill="white"/>
<path d="M10.9982 9.32057L9.3333 8.2123L8.42391 9.57839L9.58615 10.737L10.9982 9.32057ZM83.233 81.3297L81.821 82.7461L83.0927 84.0138L84.4896 82.8857L83.233 81.3297ZM81.905 82.8299L83.6021 83.8881L84.4444 82.5373L83.317 81.4134L81.905 82.8299ZM9.62832 10.779L11.0403 9.36261L9.80558 8.13173L8.41777 9.18701L9.62832 10.779ZM12.663 10.4288C13.5077 9.15988 14 7.63439 14 6H10C10 6.82148 9.75452 7.57955 9.3333 8.2123L12.663 10.4288ZM84.645 79.9133L12.4102 7.90415L9.58615 10.737L81.821 82.7461L84.645 79.9133ZM84.4896 82.8857C85.1766 82.3309 86.047 82.0001 87.0001 82.0001V78.0001C85.0996 78.0001 83.3491 78.6652 81.9765 79.7738L84.4896 82.8857ZM87.0001 82.0001C89.2092 82.0001 91.0001 83.7909 91.0001 86.0001H95.0001C95.0001 81.5818 91.4183 78.0001 87.0001 78.0001V82.0001ZM91.0001 86.0001C91.0001 88.2092 89.2092 90.0001 87.0001 90.0001V94.0001C91.4183 94.0001 95.0001 90.4183 95.0001 86.0001H91.0001ZM87.0001 90.0001C84.7909 90.0001 83.0001 88.2092 83.0001 86.0001H79.0001C79.0001 90.4183 82.5818 94.0001 87.0001 94.0001V90.0001ZM83.0001 86.0001C83.0001 85.221 83.2208 84.4997 83.6021 83.8881L80.2079 81.7717C79.4421 82.9997 79.0001 84.4513 79.0001 86.0001H83.0001ZM8.21633 12.1955L80.493 84.2463L83.317 81.4134L11.0403 9.36261L8.21633 12.1955ZM6 14C7.81573 14 9.49533 13.3927 10.8389 12.3711L8.41777 9.18701C7.74611 9.69772 6.91122 10 6 10V14ZM-2 6C-2 10.4183 1.58172 14 6 14V10C3.79086 10 2 8.20914 2 6H-2ZM6 -2C1.58172 -2 -2 1.58172 -2 6H2C2 3.79086 3.79086 2 6 2V-2ZM14 6C14 1.58172 10.4183 -2 6 -2V2C8.20914 2 10 3.79086 10 6H14Z" fill="#7357B5" mask="url(#path-1-inside-1_140_29420)"/>
</svg>
