<svg width="333" height="61" viewBox="0 0 333 61" fill="none" xmlns="http://www.w3.org/2000/svg">
<mask id="path-1-inside-1_153_29420" fill="white">
<path fill-rule="evenodd" clip-rule="evenodd" d="M10 0C4.47715 0 0 4.47715 0 10V36C0 41.5228 4.47715 46 9.99999 46H168.306L184.173 59.7645C185.159 60.6199 186.692 59.8947 186.655 58.5897L186.306 46H323C328.523 46 333 41.5228 333 36V10C333 4.47715 328.523 0 323 0H10Z"/>
</mask>
<path fill-rule="evenodd" clip-rule="evenodd" d="M10 0C4.47715 0 0 4.47715 0 10V36C0 41.5228 4.47715 46 9.99999 46H168.306L184.173 59.7645C185.159 60.6199 186.692 59.8947 186.655 58.5897L186.306 46H323C328.523 46 333 41.5228 333 36V10C333 4.47715 328.523 0 323 0H10Z" fill="#170840" fillOpacity="0.8"/>
<path d="M168.306 46L170.271 43.7338L169.425 43H168.306V46ZM184.173 59.7645L182.207 62.0306L182.207 62.0306L184.173 59.7645ZM186.655 58.5897L189.654 58.5065L189.654 58.5064L186.655 58.5897ZM186.306 46V43H183.221L183.307 46.0833L186.306 46ZM3 10C3 6.13401 6.13401 3 10 3V-3C2.8203 -3 -3 2.8203 -3 10H3ZM3 36V10H-3V36H3ZM9.99999 43C6.134 43 3 39.866 3 36H-3C-3 43.1797 2.82029 49 9.99999 49V43ZM168.306 43H9.99999V49H168.306V43ZM166.34 48.2662L182.207 62.0306L186.139 57.4983L170.271 43.7338L166.34 48.2662ZM182.207 62.0306C185.165 64.5969 189.763 62.4212 189.654 58.5065L183.656 58.673C183.62 57.3681 185.153 56.6429 186.139 57.4983L182.207 62.0306ZM189.654 58.5064L189.304 45.9167L183.307 46.0833L183.656 58.673L189.654 58.5064ZM323 43H186.306V49H323V43ZM330 36C330 39.866 326.866 43 323 43V49C330.18 49 336 43.1797 336 36H330ZM330 10V36H336V10H330ZM323 3C326.866 3 330 6.13401 330 10H336C336 2.8203 330.18 -3 323 -3V3ZM10 3H323V-3H10V3Z" fill="#999EB0" mask="url(#path-1-inside-1_153_29420)"/>
</svg>
