<svg width="311" height="86" viewBox="0 0 311 86" fill="none" xmlns="http://www.w3.org/2000/svg">
<g filter="url(#filter0_b_153_29424)">
<mask id="path-1-inside-1_153_29424" fill="white">
<path fill-rule="evenodd" clip-rule="evenodd" d="M193.938 16L208.254 0.841344C209.038 0.0109659 210.426 0.326825 210.773 1.41484L215.433 16H301C306.523 16 311 20.4772 311 26V76C311 81.5229 306.523 86 301 86H9.99999C4.47715 86 0 81.5229 0 76V26C0 20.4772 4.47715 16 10 16H193.938Z"/>
</mask>
<path fill-rule="evenodd" clip-rule="evenodd" d="M193.938 16L208.254 0.841344C209.038 0.0109659 210.426 0.326825 210.773 1.41484L215.433 16H301C306.523 16 311 20.4772 311 26V76C311 81.5229 306.523 86 301 86H9.99999C4.47715 86 0 81.5229 0 76V26C0 20.4772 4.47715 16 10 16H193.938Z" fill="#E9E8F6" fillOpacity="0.7"/>
<path d="M208.254 0.841344L206.073 -1.21854L206.073 -1.21853L208.254 0.841344ZM193.938 16V19H195.231L196.119 18.0599L193.938 16ZM210.773 1.41484L213.631 0.501951L213.631 0.501939L210.773 1.41484ZM215.433 16L212.575 16.9129L213.242 19H215.433V16ZM206.073 -1.21853L191.756 13.9401L196.119 18.0599L210.435 2.90121L206.073 -1.21853ZM213.631 0.501939C212.588 -2.76208 208.426 -3.70965 206.073 -1.21854L210.435 2.90123C209.651 3.73158 208.263 3.41574 207.916 2.32774L213.631 0.501939ZM218.29 15.0871L213.631 0.501951L207.916 2.32773L212.575 16.9129L218.29 15.0871ZM215.433 19H301V13H215.433V19ZM301 19C304.866 19 308 22.134 308 26H314C314 18.8203 308.18 13 301 13V19ZM308 26V76H314V26H308ZM308 76C308 79.866 304.866 83 301 83V89C308.18 89 314 83.1797 314 76H308ZM301 83H9.99999V89H301V83ZM9.99999 83C6.134 83 3 79.866 3 76H-3C-3 83.1797 2.82029 89 9.99999 89V83ZM3 76V26H-3V76H3ZM3 26C3 22.134 6.13401 19 10 19V13C2.8203 13 -3 18.8203 -3 26H3ZM10 19H193.938V13H10V19Z" fill="#170840" mask="url(#path-1-inside-1_153_29424)"/>
</g>
<defs>
<filter id="filter0_b_153_29424" x="-4" y="-3.62939" width="319" height="93.6294" filterUnits="userSpaceOnUse" colorInterpolationFilters="sRGB">
<feFlood floodOpacity="0" result="BackgroundImageFix"/>
<feGaussianBlur in="BackgroundImageFix" stdDeviation="2"/>
<feComposite in2="SourceAlpha" operator="in" result="effect1_backgroundBlur_153_29424"/>
<feBlend mode="normal" in="SourceGraphic" in2="effect1_backgroundBlur_153_29424" result="shape"/>
</filter>
</defs>
</svg>
