<svg width="34" height="35" viewBox="0 0 34 35" fill="none" xmlns="http://www.w3.org/2000/svg">
<path d="M16.328 11.5951C16.328 7.96581 19.0066 4.77246 22.605 4.77246C26.2033 4.77246 28.8819 7.96581 28.8819 11.5951C28.8819 15.2244 26.2033 18.4177 22.605 18.4177C19.0066 18.4177 16.328 15.2244 16.328 11.5951ZM22.6049 22.9662C19.3343 22.9662 16.4871 24.7316 14.9811 27.3443C14.974 27.3565 14.9701 27.3653 14.968 27.3709C14.9698 27.3747 14.9729 27.3803 14.9779 27.3876C15.0123 27.4373 15.1094 27.5146 15.2721 27.5146H29.9377C30.1004 27.5146 30.1976 27.4373 30.232 27.3876C30.237 27.3803 30.24 27.3747 30.2418 27.3709C30.2397 27.3653 30.2359 27.3565 30.2288 27.3443C28.7227 24.7316 25.8756 22.9662 22.6049 22.9662ZM30.244 27.3786C30.2439 27.3786 30.2437 27.3778 30.2435 27.3762ZM14.9659 27.3786C14.9658 27.3786 14.9659 27.3778 14.9663 27.3762ZM12.6167 25.9813C14.5957 22.5483 18.3303 20.2371 22.6049 20.2371C26.8796 20.2371 30.6141 22.5483 32.5931 25.9813C33.178 26.9959 33.0459 28.1167 32.4765 28.94C31.9256 29.7365 30.9842 30.2437 29.9377 30.2437H15.2721C14.2257 30.2437 13.2843 29.7365 12.7334 28.94C12.164 28.1167 12.0318 26.9959 12.6167 25.9813Z" fill="#22233D"/>
<path d="M4.31612 12.7366C4.31612 9.78445 6.43452 7.05551 9.43393 7.05551C12.4333 7.05551 14.5517 9.78445 14.5517 12.7366C14.5517 15.6888 12.4333 18.4177 9.43393 18.4177C6.43452 18.4177 4.31612 15.6888 4.31612 12.7366Z" fill="#22233D"/>
<path d="M11.0004 30.2437C10.0568 30.0077 9.44779 29.0387 9.82887 28.0828C9.90519 27.8914 9.98475 27.7019 10.0675 27.5146H2.85276C2.80854 27.5146 2.77637 27.5044 2.7545 27.493C4.1615 24.7748 6.89608 22.9662 10.0037 22.9662C10.9304 22.9662 11.8239 23.127 12.659 23.4248C13.3203 22.6689 14.0479 21.9879 14.8313 21.3942C13.3777 20.6545 11.7403 20.2371 10.0037 20.2371C5.76707 20.2371 2.1203 22.7212 0.294301 26.3098C-0.192697 27.2668 -0.0403537 28.2959 0.495015 29.0479C1.01559 29.779 1.88569 30.2437 2.85276 30.2437H11.0004Z" fill="#22233D"/>
</svg>
