<svg width="74" height="74" viewBox="0 0 74 74" fill="none" xmlns="http://www.w3.org/2000/svg">
<path d="M43.2178 64.7981H48.7141L50.71 71.7293L60.3822 64.7981H74V9.50168H43.2178V64.7981ZM49.7274 15.6525H67.7054V58.4943H61.3494L53.1817 64.7063L51.4008 58.4943H49.7274V15.6525ZM0 72.1577C1.93633 72.8513 3.99976 73.1215 6.05015 72.9499C8.10054 72.7783 10.0899 72.1689 11.883 71.1632C17.7324 67.7205 22.0465 52.5576 22.0465 52.5576L35.8639 69.526C35.8639 69.526 37.1228 61.4473 35.649 59.1675C34.1751 56.8877 26.1456 47.7073 26.1456 47.7073L22.6299 50.7674L25.1324 40.7302H40.0705C40.0705 40.7302 40.0705 34.8242 37.1382 34.4876C34.2058 34.151 25.1017 34.4876 25.1017 34.4876V16.1268H38.5353C38.5353 16.1268 38.3817 10.0066 35.7718 10.0066H13.8328L17.2411 0C17.2411 0 11.7141 0.321313 9.76432 3.76395C7.81452 7.20659 1.47386 24.9553 1.47386 24.9553C1.47386 24.9553 3.57718 25.9345 7.15436 23.3028C9.44753 21.4457 11.1008 18.9207 11.883 16.0809L18.3925 15.7596L18.5768 34.5488C18.5768 34.5488 7.35394 34.3805 5.08174 34.5488C2.80954 34.7171 1.50456 40.7914 1.50456 40.7914H18.5768C18.5768 40.7914 17.1183 51.1347 12.7274 58.6932C8.33652 66.2517 0 72.1577 0 72.1577V72.1577Z" fill="#F7EFFB"/>
</svg>
