<svg width="74" height="74" viewBox="0 0 74 74" fill="none" xmlns="http://www.w3.org/2000/svg">
<g clip-path="url(#clip0_12_879)">
<path d="M29.5356 28.5287V25.6075C28.5349 25.4738 27.5174 25.3903 26.4666 25.3903C13.9402 25.3738 3.74902 35.5735 3.74902 48.1271C3.74902 55.8228 7.58532 62.6339 13.4565 66.7572C9.67027 62.7007 7.35181 57.2417 7.35181 51.2655C7.35181 38.8954 17.2595 28.8125 29.5356 28.5287Z" fill="#25F4EE"/>
<path d="M30.0861 61.6489C35.6739 61.6489 40.244 57.1918 40.4443 51.6495L40.461 2.11948H49.5012C49.3177 1.10117 49.2177 0.0494791 49.2177 -1.01892H36.8748L36.858 48.5111C36.658 54.0534 32.0876 58.5105 26.5001 58.5105C24.7654 58.5105 23.1308 58.0765 21.6797 57.3085C23.5478 59.9294 26.6168 61.6489 30.0861 61.6489Z" fill="#25F4EE"/>
<path d="M66.3978 18.9296V16.1753C62.9452 16.1753 59.7426 15.1569 57.0405 13.3873C59.4423 16.1419 62.6948 18.1452 66.3978 18.9296Z" fill="#25F4EE"/>
<path d="M57.0404 13.3876C54.4049 10.3662 52.8205 6.42645 52.8205 2.11951H49.5181C50.3685 6.82711 53.1709 10.867 57.0404 13.3876Z" fill="#FE2C55"/>
<path d="M26.4833 37.7269C20.7622 37.7269 16.1086 42.3845 16.1086 48.1104C16.1086 52.1003 18.377 55.5724 21.6796 57.3086C20.4453 55.6058 19.7114 53.5192 19.7114 51.2488C19.7114 45.5229 24.365 40.8653 30.0862 40.8653C31.1537 40.8653 32.1877 41.0489 33.1552 41.3494V28.7292C32.1543 28.5955 31.137 28.512 30.0862 28.512C29.9026 28.512 29.7358 28.5287 29.5523 28.5287V38.211C28.5683 37.9105 27.5508 37.7269 26.4833 37.7269Z" fill="#FE2C55"/>
<path d="M66.3973 18.9302V28.529C59.9923 28.529 54.0544 26.4758 49.2172 23.0034V48.1273C49.2172 60.6643 39.0262 70.8808 26.483 70.8808C21.6459 70.8808 17.1425 69.3449 13.4563 66.7575C17.6095 71.2146 23.5307 74.0193 30.0859 74.0193C42.6121 74.0193 52.8201 63.8194 52.8201 51.2658V26.1418C57.6571 29.6142 63.595 31.6674 70 31.6674V19.3143C68.749 19.3143 67.5481 19.1806 66.3973 18.9302Z" fill="#FE2C55"/>
<path d="M49.2171 48.1271V23.0031C54.0544 26.4755 59.9923 28.5287 66.3973 28.5287V18.9299C62.6943 18.1455 59.4418 16.1422 57.04 13.3876C53.1702 10.867 50.3849 6.82711 49.5007 2.11951H40.4605L40.4438 51.6493C40.2437 57.1916 35.6734 61.6489 30.0859 61.6489C26.6164 61.6489 23.5641 59.9294 21.6626 57.3253C18.3601 55.5724 16.0917 52.117 16.0917 48.1271C16.0917 42.4012 20.7452 37.7436 26.4663 37.7436C27.5338 37.7436 28.568 37.9272 29.5354 38.2277V28.5454C17.2592 28.8125 7.35156 38.8954 7.35156 51.2655C7.35156 57.2417 9.67002 62.684 13.4563 66.7572C17.1425 69.3447 21.6459 70.8806 26.483 70.8806C39.0094 70.8806 49.2171 60.664 49.2171 48.1271Z" fill="white"/>
</g>
<defs>
<clipPath id="clip0_12_879">
<rect width="74" height="74" fill="white"/>
</clipPath>
</defs>
</svg>
