<svg width="74" height="74" viewBox="0 0 74 74" fill="none" xmlns="http://www.w3.org/2000/svg">
<g clip-path="url(#clip0_12_890)">
<path d="M37 0C16.576 0 0 16.576 0 37C0 57.424 16.576 74 37 74C57.35 74 74 57.424 74 37C74 16.576 57.35 0 37 0ZM61.42 17.02C65.86 22.422 68.45 29.23 68.598 36.704C67.562 36.482 57.128 34.41 46.62 35.668C46.398 35.15 46.176 34.558 45.954 34.04C45.288 32.486 44.622 30.932 43.882 29.452C55.426 24.79 60.754 17.908 61.42 17.02ZM37 5.476C44.992 5.476 52.392 8.51 57.942 13.394C57.35 14.208 52.614 20.572 41.366 24.79C36.186 15.244 30.414 7.474 29.6 6.29C31.968 5.772 34.41 5.476 37 5.476ZM23.532 8.436C24.346 9.546 29.97 17.39 35.224 26.714C20.424 30.636 7.4 30.562 5.994 30.562C8.14 20.72 14.726 12.58 23.532 8.436ZM5.402 37.074C5.402 36.778 5.402 36.408 5.402 36.112C6.734 36.186 22.126 36.334 37.888 31.598C38.776 33.374 39.664 35.15 40.478 37C40.108 37.148 39.664 37.222 39.22 37.37C22.94 42.624 14.282 56.98 13.542 58.164C8.436 52.54 5.402 45.14 5.402 37.074ZM37 68.598C29.674 68.598 22.94 66.082 17.612 61.938C18.204 60.754 24.568 48.396 42.402 42.18C42.476 42.106 42.55 42.106 42.624 42.106C47.064 53.65 48.914 63.27 49.358 66.082C45.584 67.71 41.366 68.598 37 68.598ZM54.612 63.196C54.316 61.272 52.614 52.022 48.47 40.7C58.386 39.146 67.044 41.736 68.154 42.032C66.748 50.838 61.716 58.46 54.612 63.196Z" fill="white"/>
</g>
<defs>
<clipPath id="clip0_12_890">
<rect width="74" height="74" fill="white"/>
</clipPath>
</defs>
</svg>
