<svg width="40" height="30" viewBox="0 0 40 30" fill="none" xmlns="http://www.w3.org/2000/svg">
<path d="M20.2957 20.1585C23.2329 20.1585 25.614 17.7775 25.614 14.8403C25.614 11.9031 23.2329 9.52199 20.2957 9.52199C17.3585 9.52199 14.9775 11.9031 14.9775 14.8403C14.9775 17.7775 17.3585 20.1585 20.2957 20.1585Z" fill="#22233D"/>
<path d="M20.2957 0.658203C7.88644 0.658203 0.79541 11.2947 0.79541 14.8403C0.79541 18.3858 7.88644 29.0223 20.2957 29.0223C32.7051 29.0223 39.7961 18.3858 39.7961 14.8403C39.7961 11.2947 32.7051 0.658203 20.2957 0.658203ZM29.1595 14.8403C29.1595 19.7356 25.1911 23.7041 20.2957 23.7041C15.4004 23.7041 11.432 19.7356 11.432 14.8403C11.432 9.94493 15.4004 5.97648 20.2957 5.97648C25.1911 5.97648 29.1595 9.94493 29.1595 14.8403Z" fill="#22233D"/>
</svg>
