<svg width="96" height="17" viewBox="0 0 96 17" fill="none" xmlns="http://www.w3.org/2000/svg">
<path d="M8.00098 16.0345C12.2733 16.0345 15.7366 12.5711 15.7366 8.29883C15.7366 4.02653 12.2733 0.563156 8.00098 0.563156C3.72868 0.563156 0.265304 4.02653 0.265304 8.29883C0.265304 12.5711 3.72868 16.0345 8.00098 16.0345ZM8.00098 9.74927H10.2429V6.84839H8.00098V9.74927ZM14.7267 9.74927H19.2105V6.84839L14.7267 6.84839V9.74927ZM23.6943 9.74927L28.1781 9.74927V6.84839L23.6943 6.84839V9.74927ZM32.6619 9.74927H37.1457V6.84839H32.6619V9.74927ZM41.6295 9.74927H43.8714V6.84839H41.6295V9.74927ZM43.8714 9.74927H46.4339V6.84839L43.8714 6.84839V9.74927ZM51.5588 9.74927H56.6838V6.84839H51.5588V9.74927ZM61.8087 9.74927H66.9336V6.84839H61.8087V9.74927ZM72.0585 9.74927H77.1835V6.84839L72.0585 6.84839V9.74927ZM82.3084 9.74927L87.4333 9.74927V6.84839L82.3084 6.84839V9.74927ZM92.5582 9.74927H95.1207V6.84839H92.5582V9.74927Z" fill="#5F647C"/>
</svg>
