<svg width="345" height="91" viewBox="0 0 345 91" fill="none" xmlns="http://www.w3.org/2000/svg">
<g filter="url(#filter0_b_154_29449)">
<mask id="path-1-inside-1_154_29449" fill="white">
<path fill-rule="evenodd" clip-rule="evenodd" d="M30.9999 0C25.4771 0 20.9999 4.47715 20.9999 10V34.9998L2.21173 32.2016C0.760792 31.9855 -0.105759 33.7659 0.959473 34.7745L20.9999 53.7489V81C20.9999 86.5229 25.4771 91 30.9999 91H335C340.523 91 345 86.5229 345 81V10C345 4.47715 340.523 0 335 0H30.9999Z"/>
</mask>
<path fill-rule="evenodd" clip-rule="evenodd" d="M30.9999 0C25.4771 0 20.9999 4.47715 20.9999 10V34.9998L2.21173 32.2016C0.760792 31.9855 -0.105759 33.7659 0.959473 34.7745L20.9999 53.7489V81C20.9999 86.5229 25.4771 91 30.9999 91H335C340.523 91 345 86.5229 345 81V10C345 4.47715 340.523 0 335 0H30.9999Z" fill="#E9E8F6" fillOpacity="0.7"/>
<path d="M20.9999 34.9998L20.558 37.9671L23.9999 38.4797V34.9998H20.9999ZM2.21173 32.2016L2.65367 29.2343L2.65366 29.2343L2.21173 32.2016ZM0.959473 34.7745L-1.10312 36.9529L-1.10312 36.9529L0.959473 34.7745ZM20.9999 53.7489H23.9999V52.458L23.0625 51.5705L20.9999 53.7489ZM23.9999 10C23.9999 6.13401 27.1339 3 30.9999 3V-3C23.8202 -3 17.9999 2.8203 17.9999 10H23.9999ZM23.9999 34.9998V10H17.9999V34.9998H23.9999ZM1.7698 35.1689L20.558 37.9671L21.4419 32.0326L2.65367 29.2343L1.7698 35.1689ZM3.02207 32.596C4.08729 33.6046 3.22075 35.385 1.7698 35.1689L2.65366 29.2343C-1.69917 28.586 -4.29881 33.9272 -1.10312 36.9529L3.02207 32.596ZM23.0625 51.5705L3.02206 32.596L-1.10312 36.9529L18.9373 55.9274L23.0625 51.5705ZM23.9999 81V53.7489H17.9999V81H23.9999ZM30.9999 88C27.1339 88 23.9999 84.866 23.9999 81H17.9999C17.9999 88.1797 23.8202 94 30.9999 94V88ZM335 88H30.9999V94H335V88ZM342 81C342 84.866 338.866 88 335 88V94C342.18 94 348 88.1797 348 81H342ZM342 10V81H348V10H342ZM335 3C338.866 3 342 6.13401 342 10H348C348 2.8203 342.18 -3 335 -3V3ZM30.9999 3H335V-3H30.9999V3Z" fill="#170840" mask="url(#path-1-inside-1_154_29449)"/>
</g>
<defs>
<filter id="filter0_b_154_29449" x="-3.5144" y="-4" width="352.514" height="99" filterUnits="userSpaceOnUse" colorInterpolationFilters="sRGB">
<feFlood floodOpacity="0" result="BackgroundImageFix"/>
<feGaussianBlur in="BackgroundImageFix" stdDeviation="2"/>
<feComposite in2="SourceAlpha" operator="in" result="effect1_backgroundBlur_154_29449"/>
<feBlend mode="normal" in="SourceGraphic" in2="effect1_backgroundBlur_154_29449" result="shape"/>
</filter>
</defs>
</svg>
