<svg width="313" height="85" viewBox="0 0 313 85" fill="none" xmlns="http://www.w3.org/2000/svg">
<mask id="path-1-inside-1_154_29439" fill="white">
<path fill-rule="evenodd" clip-rule="evenodd" d="M119.558 16L105.246 0.845739C104.462 0.0153613 103.074 0.33122 102.726 1.41923L98.0687 16H10C4.47715 16 0 20.4772 0 26V75C0 80.5229 4.47715 85 9.99999 85H303C308.523 85 313 80.5228 313 75V26C313 20.4772 308.523 16 303 16H119.558Z"/>
</mask>
<path fill-rule="evenodd" clip-rule="evenodd" d="M119.558 16L105.246 0.845739C104.462 0.0153613 103.074 0.33122 102.726 1.41923L98.0687 16H10C4.47715 16 0 20.4772 0 26V75C0 80.5229 4.47715 85 9.99999 85H303C308.523 85 313 80.5228 313 75V26C313 20.4772 308.523 16 303 16H119.558Z" fill="#170840"/>
<path d="M105.246 0.845739L103.065 2.9056L103.065 2.90561L105.246 0.845739ZM119.558 16L117.377 18.0599L118.265 19H119.558V16ZM102.726 1.41923L105.584 2.33212L105.584 2.33211L102.726 1.41923ZM98.0687 16V19H100.26L100.926 16.9129L98.0687 16ZM103.065 2.90561L117.377 18.0599L121.739 13.9401L107.427 -1.21413L103.065 2.90561ZM105.584 2.33211C105.237 3.42012 103.849 3.736 103.065 2.9056L107.427 -1.21412C105.074 -3.70528 100.911 -2.75768 99.8687 0.506352L105.584 2.33211ZM100.926 16.9129L105.584 2.33212L99.8687 0.506344L95.211 15.0871L100.926 16.9129ZM10 19H98.0687V13H10V19ZM3 26C3 22.134 6.13401 19 10 19V13C2.8203 13 -3 18.8203 -3 26H3ZM3 75V26H-3V75H3ZM9.99999 82C6.134 82 3 78.866 3 75H-3C-3 82.1797 2.82029 88 9.99999 88V82ZM303 82H9.99999V88H303V82ZM310 75C310 78.866 306.866 82 303 82V88C310.18 88 316 82.1797 316 75H310ZM310 26V75H316V26H310ZM303 19C306.866 19 310 22.134 310 26H316C316 18.8203 310.18 13 303 13V19ZM119.558 19H303V13H119.558V19Z" fill="#999EB0" mask="url(#path-1-inside-1_154_29439)"/>
</svg>
